<svg width="512" height="342" viewBox="0 0 512 342" fill="none" xmlns="http://www.w3.org/2000/svg">
<path fill-rule="evenodd" clip-rule="evenodd" d="M279.814 0.172631C278.648 0.47499 277.099 0.979756 275.989 1.41973C275.63 1.56177 275.397 2.26672 275.243 3.6744C274.957 6.30094 274.646 7.30216 273.988 7.71887C273.458 8.05474 273.467 8.27707 274.125 11.0977C274.281 11.7633 274.197 12.1316 273.841 12.3437C272.794 12.9694 272.207 15.7092 272.838 17.0303C273.114 17.6089 273.065 17.8025 272.59 18.014C272.155 18.2081 271.979 18.7037 271.924 19.8913C271.812 22.3005 271.686 22.867 271.207 23.1109C270.919 23.2574 270.772 24.0726 270.772 25.5201C270.772 26.7235 270.543 28.408 270.263 29.2639C269.983 30.1195 269.723 31.3405 269.685 31.9771C269.647 32.6134 269.479 33.2768 269.312 33.4512C269.146 33.6254 268.994 34.6222 268.976 35.6663C268.957 36.7262 268.72 37.9146 268.437 38.3576C268.073 38.9277 267.995 39.5912 268.16 40.7192C268.36 42.0914 268.298 42.3531 267.663 42.8105C267.09 43.2231 266.984 43.5299 267.157 44.2667C267.33 44.9987 267.143 45.5497 266.293 46.8204C265.401 48.1527 265.208 48.7577 265.208 50.2277C265.208 51.6634 265.072 52.1136 264.513 52.5162C264.001 52.8844 263.817 53.369 263.817 54.3442C263.817 55.2352 263.525 56.1079 262.929 57.0006C262.441 57.7319 261.959 58.8912 261.858 59.5765C261.758 60.2621 261.543 61.0719 261.382 61.3765C261.031 62.0388 260.194 64.443 259.647 66.3605C258.536 70.2576 257.878 70.7646 257.519 67.9996C257.401 67.0981 256.953 65.6129 256.523 64.6992C256.093 63.7854 255.078 61.5427 254.267 59.7152C253.457 57.8878 252.458 55.8679 252.046 55.2269C251.635 54.5856 251.298 53.9125 251.298 53.7312C251.298 53.5495 250.82 52.8905 250.236 52.2664C249.651 51.6423 248.408 50.135 247.472 48.9167C246.535 47.6984 245.474 46.4524 245.113 46.1478C244.751 45.8432 244.027 44.9946 243.503 44.2619C242.979 43.529 242.321 42.8598 242.042 42.7745C241.763 42.6892 241.298 42.1692 241.01 41.6185C240.721 41.0681 240.211 40.3667 239.877 40.0602C239.542 39.7534 239.045 39.1468 238.771 38.7118C236.907 35.7472 224.314 25.6054 220.65 24.1169C219.818 23.7791 218.432 23.0348 217.569 22.463C216.706 21.8913 214.905 20.9712 213.566 20.4182C212.227 19.8653 210.349 19.0236 209.393 18.5476C205.406 16.5637 201.212 14.9982 199.886 14.9982C198.65 14.9982 194.594 13.8857 193.693 13.2989C193.473 13.1564 192.143 12.9299 190.737 12.7956C189.331 12.6616 186.928 12.2775 185.398 11.9422C181.789 11.1514 179.688 10.89 176.742 10.8651C174.861 10.8493 174.239 10.949 173.847 11.3295C173.573 11.5958 173.45 11.6556 173.573 11.4621C173.866 11.0033 171.754 11.2024 168.58 11.9325C165.921 12.5447 164.333 12.8772 163.837 12.9265C163.646 12.9454 162.941 13.1494 162.272 13.3798C161.603 13.6102 160.585 13.8735 160.012 13.9646C157.478 14.3672 148.068 18.3208 144.839 20.3399C144.145 20.7737 143.362 21.1547 143.1 21.1863C142.838 21.2179 142.17 21.5518 141.616 21.9281C138.767 23.8638 137.298 24.9542 135.861 26.2015C134.99 26.9572 133.602 28.1408 132.778 28.8319C131.953 29.5231 130.759 30.5245 130.126 31.0576C129.492 31.5906 128.498 32.5873 127.917 33.2726C127.336 33.9579 125.981 35.2662 124.907 36.1799C123.832 37.0937 122.421 38.663 121.77 39.6673C121.119 40.6716 120.138 42.1045 119.591 42.8515C119.043 43.5985 118.075 45.2064 117.44 46.4247C116.805 47.643 116.144 48.861 115.971 49.1318C115.068 50.5378 114.182 52.6901 113.93 54.0842C113.663 55.5647 113.441 56.0645 111.763 58.9657C111.385 59.6197 110.888 61.3018 110.658 62.7036C110.429 64.1058 110.055 65.5251 109.827 65.8576C109.599 66.1905 109.413 66.8893 109.413 67.4107C109.413 67.9323 108.945 69.093 108.374 69.9902C107.743 70.9817 107.333 72.0554 107.329 72.7288C107.322 74.0773 106.402 78.7605 105.903 79.9888C105.4 81.2248 104.57 86.7686 104.314 90.5879C104.197 92.3392 103.99 93.8344 103.854 93.9106C103.569 94.0698 103.558 94.1429 103.373 97.0366C103.278 98.5409 103.061 99.3478 102.656 99.7036C102.291 100.025 102.151 100.456 102.279 100.869C102.39 101.23 102.268 102.522 102.008 103.74C101.748 104.958 101.576 106.859 101.625 107.963C101.674 109.066 101.579 109.97 101.414 109.97C101.249 109.97 101.176 111.11 101.252 112.503C101.328 113.897 101.279 115.174 101.142 115.342C100.882 115.659 100.848 116.536 100.714 126.306C100.652 130.867 100.514 132.444 100.127 133.049C99.7302 133.668 99.7051 134.001 100.012 134.59C100.226 135.003 100.472 136.018 100.556 136.846C100.641 137.674 100.881 139.334 101.089 140.536C101.34 141.984 101.351 142.779 101.121 142.892C100.907 142.998 100.842 144.179 100.95 145.968C101.23 150.61 101.281 151.025 101.716 152.254C101.944 152.895 102.036 153.718 101.921 154.081C101.807 154.444 101.974 155.477 102.293 156.376C102.612 157.274 103.006 158.86 103.169 159.899C103.331 160.939 103.782 162.312 104.17 162.951C104.559 163.589 104.877 164.483 104.878 164.937C104.882 166.463 105.318 168.507 105.761 169.075C106.003 169.385 106.3 170.173 106.422 170.825C106.543 171.477 107.146 172.848 107.761 173.871C108.375 174.893 108.899 175.979 108.926 176.284C109.029 177.495 110.139 180.152 110.632 180.372C110.921 180.5 111.47 181.066 111.853 181.629C112.942 183.228 113.378 183.742 113.847 183.981C114.086 184.103 114.281 184.553 114.281 184.982C114.281 185.821 114.906 186.56 117.111 188.334C118.045 189.085 118.443 189.614 118.299 189.913C118.156 190.209 118.47 190.639 119.225 191.177C119.853 191.625 120.998 192.943 121.769 194.105C123.066 196.062 123.253 196.22 124.275 196.22C125.133 196.22 125.773 196.527 127.134 197.594C128.098 198.35 128.887 199.076 128.887 199.208C128.887 199.54 131.339 201.896 131.685 201.896C131.838 201.896 132.423 202.239 132.985 202.657C136.231 205.078 139.061 206.774 140.972 207.445C141.976 207.798 142.798 208.188 142.798 208.314C142.798 208.439 142.915 208.527 143.058 208.509C143.876 208.406 144.566 208.651 146.195 209.626C147.192 210.223 148.518 210.791 149.141 210.889C150.472 211.099 151.829 211.471 153.752 212.153C154.517 212.424 156.317 212.791 157.751 212.967C159.186 213.143 160.829 213.4 161.403 213.537C161.976 213.675 163.385 213.837 164.532 213.898C165.68 213.959 167.247 214.146 168.014 214.314C171.933 215.17 190.988 215.579 194.876 214.891C196.014 214.689 196.835 215.056 195.891 215.345C195.612 215.43 195.458 215.719 195.547 215.99C195.646 216.292 194.966 217.265 193.77 218.531C192.704 219.66 191.831 220.724 191.831 220.897C191.831 221.069 191.499 221.386 191.092 221.601C190.643 221.838 190.353 222.284 190.353 222.737C190.353 223.147 190.14 223.624 189.879 223.796C189.618 223.968 189.506 224.239 189.629 224.398C189.751 224.556 189.686 224.604 189.484 224.505C188.716 224.127 186.065 228.718 185.784 230.915C185.711 231.478 185.565 232.125 185.459 232.353C185.026 233.28 184.512 235.93 184.405 237.776C184.343 238.856 184.199 239.858 184.085 240.005C183.878 240.272 183.798 246.084 183.97 248.413C184.02 249.098 184.252 249.941 184.484 250.286C184.717 250.631 184.894 251.815 184.879 252.917C184.85 255.097 184.962 255.997 185.684 259.35C186.227 261.87 187.098 263.641 187.794 263.641C188.149 263.641 188.225 263.948 188.096 264.862C187.981 265.673 188.112 266.383 188.486 266.981C188.796 267.475 189.049 268.19 189.049 268.569C189.049 269.72 190.427 273.022 191.017 273.285C191.411 273.46 191.53 273.816 191.428 274.51C191.322 275.234 191.445 275.568 191.905 275.797C192.247 275.967 192.527 276.289 192.527 276.513C192.527 277.448 194.368 279.879 195.334 280.219C196.41 280.598 198.178 283.163 198.178 284.346C198.178 284.759 198.451 285.085 198.917 285.228C199.818 285.503 201.569 286.77 201.569 287.146C201.569 287.296 201.843 287.405 202.177 287.389C202.512 287.372 204.852 288.25 207.379 289.34C209.905 290.43 212.565 291.435 213.29 291.573C214.016 291.711 215.548 292.026 216.696 292.272C218.41 292.64 219.806 292.688 224.521 292.541C227.676 292.443 230.421 292.261 230.62 292.138C230.818 292.014 231.835 291.839 232.88 291.749C237.306 291.365 237.941 291.248 238.72 290.678C239.284 290.264 239.99 290.082 241.042 290.076C242.18 290.071 242.938 289.848 244.117 289.174C244.977 288.682 246.671 287.925 247.881 287.492C249.091 287.059 251.083 286.188 252.308 285.556C254.556 284.398 256.026 284.13 256.792 284.74C257.022 284.923 257.21 285.778 257.21 286.641C257.21 288.141 257.266 288.24 258.514 288.926C260.565 290.053 262.766 290.725 265.572 291.08C266.998 291.26 268.313 291.515 268.495 291.646C269.117 292.094 271.294 291.879 273.033 291.198C273.989 290.823 274.965 290.513 275.201 290.508C275.857 290.495 279.027 288.874 279.233 288.446C279.333 288.238 280.25 287.743 281.271 287.345C282.292 286.947 283.282 286.343 283.47 286.002C283.659 285.662 284.837 284.758 286.088 283.995C288.086 282.777 291.266 280.362 291.929 279.561C292.056 279.408 292.785 278.919 293.55 278.475C294.709 277.803 304.375 270.148 308.436 266.687C311.588 264.001 316.751 258.84 318.103 257.026C318.941 255.9 319.902 254.842 320.238 254.675C320.574 254.508 320.849 254.15 320.849 253.88C320.849 253.61 321.861 251.733 323.098 249.709C324.335 247.685 325.597 245.226 325.903 244.244C326.209 243.263 326.596 242.03 326.763 241.505C326.941 240.946 326.936 240.372 326.751 240.121C326.494 239.772 326.433 239.808 326.424 240.314C326.418 240.679 326.198 240.937 325.892 240.937C325.218 240.937 325.233 240.564 325.953 239.469C326.367 238.841 326.58 237.657 326.684 235.399C326.785 233.213 326.994 232.009 327.354 231.558C328.046 230.689 327.838 227.309 327.013 226.012C326.683 225.493 326.408 224.683 326.401 224.212C326.394 223.74 326.165 223.043 325.892 222.662C325.619 222.282 325.389 221.563 325.382 221.066C325.376 220.569 325.232 219.946 325.064 219.682C324.895 219.418 324.574 218.578 324.351 217.817C324.127 217.055 323.526 215.934 323.015 215.325C321.607 213.646 320.786 212.375 321 212.205C321.106 212.121 320.886 211.881 320.51 211.671C320.135 211.462 319.505 210.703 319.111 209.985C318.715 209.264 317.503 207.986 316.405 207.131C315.311 206.279 313.946 205.04 313.373 204.378C312.799 203.716 310.96 202.255 309.286 201.13C307.613 200.006 306.244 198.931 306.244 198.743C306.244 198.353 309.372 197.189 310.42 197.189C310.803 197.189 311.112 197.004 311.112 196.774C311.112 196.545 311.254 196.358 311.427 196.358C311.858 196.358 318.97 192.609 319.269 192.225C319.401 192.055 320.413 191.552 321.519 191.108C322.624 190.664 323.982 189.998 324.536 189.629C325.09 189.259 327.031 188.169 328.848 187.207C332.427 185.311 337.407 182.358 337.733 181.938C337.844 181.794 338.825 181.224 339.912 180.67C341.852 179.683 343.093 178.918 349.018 175.055C350.644 173.996 353.46 172.228 355.277 171.127C357.095 170.026 359.375 168.555 360.346 167.859C362.039 166.645 364.893 164.818 367.22 163.46C367.824 163.108 370.561 161.239 373.303 159.307C376.044 157.375 378.939 155.4 379.736 154.917C381.762 153.69 383.126 152.752 386.923 149.974C388.74 148.645 390.627 147.355 391.116 147.107C393.014 146.146 396.004 143.94 403.233 138.167C411.468 131.591 417.164 126.822 417.661 126.087C417.837 125.827 418.974 124.704 420.187 123.592C421.401 122.479 422.395 121.472 422.395 121.353C422.395 121.115 426.202 116.493 427.666 114.954C428.586 113.987 433.175 106.66 433.175 106.158C433.175 105.896 434.661 103.105 435.937 100.971C437.943 97.6183 440.085 92.043 440.832 88.2344C441.041 87.1684 441.36 86.178 441.541 86.0332C441.721 85.8886 441.869 85.1878 441.869 84.4762C441.869 83.7647 442.186 82.6125 442.573 81.9159C443.545 80.166 443.698 72.5026 442.795 70.8261C442.477 70.2355 442.217 69.0299 442.217 68.1422C442.217 67.1634 441.894 65.7906 441.394 64.6457C440.942 63.609 440.376 62.2626 440.137 61.6534C439.898 61.0443 439.494 60.1721 439.239 59.7152C438.984 59.2583 438.456 58.1134 438.065 57.1709C437.675 56.2281 436.884 54.821 436.308 54.0438C435.733 53.2663 435.262 52.525 435.262 52.3963C435.262 51.7636 429.772 47.3345 426.915 45.6635C425.864 45.048 424.672 44.2512 424.267 43.8926C423.862 43.534 423.346 43.2405 423.121 43.2405C422.895 43.2405 422.357 42.9592 421.926 42.6153C420.78 41.7033 412.961 38.6858 409.528 37.831C407.902 37.4262 406.024 36.9189 405.355 36.7041C402.124 35.6669 396.423 35.1499 388.314 35.1591C383.548 35.1646 380.77 35.2947 378.965 35.5971C377.552 35.8338 376.261 35.9612 376.096 35.8798C375.931 35.7987 374.843 35.9269 373.677 36.1644C372.512 36.4023 371.449 36.5427 371.314 36.4765C371.18 36.4103 370.394 36.5969 369.569 36.891C368.744 37.1853 367.611 37.4259 367.052 37.4259C366.493 37.4259 365.093 37.679 363.94 37.988C362.787 38.2973 361.658 38.5174 361.43 38.477C360.883 38.3801 358.755 39.0933 358.755 39.3738C358.755 39.4943 357.699 39.8625 356.408 40.1917C352.546 41.1772 348.658 42.689 347.63 43.6052C347.088 44.0872 346.292 44.4785 345.818 44.4948C344.801 44.5303 335.787 48.2245 334.057 49.3148C333.384 49.7393 332.182 50.3509 331.386 50.6743C330.59 50.9977 329.838 51.3909 329.716 51.5485C329.594 51.7057 328.762 52.1346 327.867 52.5012C326.972 52.8678 325.508 53.7331 324.614 54.4239C323.719 55.1148 322.233 56.0517 321.31 56.5061C320.387 56.9605 319.444 57.5768 319.214 57.8759C318.984 58.1749 318.341 58.4989 317.785 58.5963C317.229 58.6935 316.322 59.1493 315.769 59.6092C315.216 60.0693 313.903 60.9606 312.851 61.5903C309.176 63.7896 302.131 69.1385 300.836 70.7137C300.369 71.2802 299.52 71.9364 298.948 72.1717C298.377 72.4071 297.664 72.9769 297.365 73.4377C297.066 73.8987 295.51 75.3169 293.908 76.5894C291.879 78.2012 290.711 79.3946 290.058 80.5232C289.542 81.4139 288.662 82.5167 288.102 82.9736C287.542 83.4305 286.566 84.4574 285.934 85.2557C285.301 86.0539 284.369 87.0363 283.864 87.4392C283.358 87.8421 282.939 88.3726 282.934 88.6182C282.929 88.8641 282.459 89.5546 281.891 90.1527C281.322 90.751 280.857 91.3978 280.857 91.59C280.857 91.7824 280.679 92.0275 280.462 92.1346C279.56 92.5785 280.607 89.7996 283.653 83.6658C284.447 82.0668 285.491 79.8863 285.974 78.8203C288.223 73.8491 294.244 63.5373 297.937 58.3308C298.801 57.1125 300.091 55.1607 300.805 53.9936C301.518 52.8263 302.346 51.7099 302.644 51.5128C302.943 51.3153 303.791 50.4636 304.529 49.62C306.186 47.7269 309.856 43.9524 311.373 42.5812C311.995 42.0194 312.503 41.441 312.503 41.2957C312.503 40.7214 328.081 27.5826 329.731 26.7658C331.531 25.8743 333.417 24.6823 335.312 23.2383C336.284 22.4968 337.296 21.9281 337.559 21.9746C337.822 22.0208 338.188 21.7974 338.371 21.4779C338.554 21.1581 339.265 20.6054 339.949 20.249C341.677 19.3497 344.149 17.4478 344.149 17.0181C344.149 16.8218 343.367 16.0609 342.41 15.3269C341.211 14.4062 340.672 13.7721 340.672 13.2815C340.672 12.4342 340.004 12.2385 337.096 12.2332C334.847 12.2288 331.956 13.1907 331.194 14.1966C330.956 14.5117 329.9 15.1186 328.848 15.5456C327.796 15.9728 326.637 16.585 326.273 16.9062C325.505 17.5826 324.857 17.6801 325.148 17.0748C325.264 16.8351 325.155 16.6595 324.89 16.6595C324.29 16.6595 321.129 19.3932 321.37 19.7036C321.472 19.8348 321.166 20.2936 320.692 20.7236C319.853 21.482 319.828 21.4867 319.817 20.882C319.811 20.5392 319.661 20.259 319.484 20.259C318.793 20.259 310.692 26.4889 309.807 27.7C308.85 29.0103 306.356 31.1157 304.542 32.1438C303.984 32.4603 303.061 33.3781 302.49 34.1836C301.919 34.9893 300.244 36.5778 298.768 37.7139C295.613 40.1419 294.072 41.8154 294.072 42.813C294.072 43.2959 293.558 43.941 292.507 44.7781C291.647 45.4634 290.942 46.165 290.942 46.3375C290.942 46.51 290.316 47.3113 289.551 48.1181C288.786 48.925 288.16 49.6742 288.16 49.7828C288.16 49.8916 287.939 50.1773 287.668 50.4177C286.384 51.5604 279.466 61.871 279.466 62.6441C279.466 63.1217 278.715 64.4142 275.778 68.9909C275.534 69.3716 274.992 70.2748 274.575 70.9983C273.802 72.3387 272.974 72.8208 273.387 71.6905C274.12 69.685 275.21 66.1965 276.351 62.2072C276.7 60.9889 277.165 59.4937 277.385 58.8845C277.605 58.2754 277.923 56.9931 278.092 56.0351C278.261 55.0771 278.484 54.1841 278.588 54.0507C278.691 53.9172 279.024 52.7698 279.326 51.5008C279.628 50.2319 280.014 48.6329 280.184 47.9476C280.355 47.2623 280.716 45.7048 280.987 44.4865C281.258 43.2682 281.728 41.2123 282.032 39.9179C283.365 34.2362 284.026 30.8817 284.354 28.1201C284.548 26.4914 284.77 25.0777 284.847 24.978C284.925 24.8783 285.249 23.3084 285.568 21.4895C286.184 17.9816 286.282 17.5018 287.397 12.5062C287.788 10.7549 288.214 8.32525 288.345 7.10695L288.582 4.89187L287.157 3.98092C286.373 3.48003 285.636 2.76567 285.519 2.39381C285.368 1.91618 284.944 1.63819 284.071 1.44631C283.391 1.29679 282.429 0.878137 281.933 0.515971C281.121 -0.0768409 280.909 -0.111176 279.814 0.172631ZM187.281 20.2546C189.206 20.5564 191.839 21.0722 193.132 21.4006C196.058 22.1438 201.677 24.2049 203.106 25.0588C203.695 25.411 204.474 25.7868 204.838 25.8936C205.475 26.0814 206.278 26.5197 212.46 30.053C215.975 32.0621 222.291 37.097 225.009 40.0563C226.128 41.2746 227.467 42.6452 227.985 43.1021C228.502 43.5589 229.839 45.241 230.955 46.84C232.071 48.439 233.346 50.0635 233.789 50.4501C234.232 50.8366 235.005 51.958 235.507 52.942C236.009 53.9261 237.576 56.6393 238.989 58.9715C241.511 63.1339 241.762 63.7774 242.788 68.714C243.057 70.0084 243.673 72.0826 244.158 73.323C244.642 74.5637 245.039 76.1212 245.041 76.7841C245.042 77.4472 245.21 78.7995 245.413 79.7894C246.041 82.8468 246.077 83.122 246.453 87.8191C246.655 90.3318 246.88 96.5618 246.953 101.663C247.026 106.765 247.274 111.998 247.504 113.293C247.733 114.587 247.901 116.123 247.876 116.707C247.826 117.919 248.335 118.783 250.012 120.336L251.19 121.426L250.681 123.105C250.401 124.028 249.959 125.187 249.699 125.681C249.439 126.174 249.068 127.358 248.875 128.311C248.683 129.264 248.199 130.729 247.8 131.567C247.401 132.405 246.933 133.401 246.759 133.782C246.585 134.163 246.202 135.533 245.906 136.828C245.61 138.122 245.141 139.991 244.863 140.981C244.585 141.971 244.354 143.218 244.35 143.752C244.346 144.286 244.184 145.158 243.99 145.69C243.796 146.222 243.474 148.215 243.275 150.118C243.076 152.022 242.754 154.327 242.56 155.241C242.366 156.154 241.996 158.148 241.736 159.671C241.477 161.194 240.957 163.623 240.582 165.07C240.207 166.517 239.722 168.697 239.506 169.916C239.29 171.134 238.946 173.003 238.741 174.069C238.276 176.486 238.295 180.527 238.772 180.985C239.021 181.223 238.983 181.659 238.651 182.409C238.282 183.241 238.24 184.125 238.468 186.255C238.631 187.776 238.798 190.23 238.84 191.707C238.905 193.988 238.819 194.479 238.272 194.961C237.918 195.273 237.347 195.528 237.004 195.528C236.66 195.528 235.962 195.964 235.451 196.497C234.892 197.08 234.222 197.466 233.767 197.466C233.352 197.466 231.708 198.104 230.115 198.885L227.219 200.304L222.131 200.656C216.493 201.046 213.56 201.708 211.827 202.984C209.993 204.335 206.894 205.537 204.593 205.789C203.408 205.919 200.638 206.228 198.439 206.477C190.622 207.36 174.967 206.913 168.416 205.619C167.301 205.399 166.054 205.219 165.644 205.219C164.701 205.219 159.042 203.923 154.969 202.774C153.11 202.25 149.843 200.876 147.802 199.759C147.249 199.456 146.466 199.035 146.061 198.822C145.657 198.609 144.283 197.767 143.01 196.95C139.506 194.705 135.624 190.903 130.105 184.314C127.966 181.758 125.706 178.247 124.139 175.038C123.283 173.287 122.455 171.605 122.3 171.3C122.144 170.995 121.773 169.936 121.474 168.947C121.176 167.957 120.509 166.088 119.993 164.793C119.476 163.499 118.91 161.63 118.735 160.64C118.56 159.65 118.269 158.458 118.088 157.99C117.907 157.522 117.759 156.673 117.759 156.103C117.759 155.533 117.564 154.794 117.325 154.461C117.085 154.128 116.776 152.61 116.635 151.087C115.933 143.442 115.668 139.918 115.502 135.997C115.403 133.637 115.167 131.037 114.979 130.22C114.792 129.403 114.749 128.593 114.886 128.42C115.022 128.247 115.175 125.925 115.227 123.26C115.319 118.419 116.015 109.365 116.715 103.878C117.599 96.9541 119.018 87.782 119.455 86.1578C119.64 85.4725 119.895 83.6658 120.021 82.1429C120.147 80.6201 120.562 78.5982 120.943 77.6502C121.324 76.7019 121.547 75.8119 121.438 75.6721C121.33 75.5326 121.453 74.9378 121.711 74.3503C121.97 73.763 122.289 72.6596 122.42 71.8982C122.551 71.1367 122.791 70.2022 122.953 69.8215C123.116 69.4408 123.431 68.3817 123.655 67.468C123.878 66.5543 124.235 65.3706 124.448 64.8376C124.662 64.3046 124.806 63.5177 124.768 63.0888C124.73 62.6599 124.993 61.9746 125.353 61.5659C125.712 61.1572 125.936 60.6655 125.851 60.473C125.766 60.2809 126.101 59.5734 126.596 58.9009C127.091 58.2286 127.497 57.2645 127.498 56.7586C127.501 55.4332 128.153 53.7566 128.735 53.5789C129.01 53.4947 129.235 53.1359 129.235 52.7814C129.235 52.427 129.409 51.786 129.621 51.3574C129.968 50.6563 130.032 50.6317 130.256 51.1132C130.451 51.531 130.985 50.9006 132.69 48.2369C133.892 46.3605 134.948 44.4375 135.038 43.9637C135.127 43.4897 135.601 42.4655 136.091 41.6872C137.028 40.1984 139.668 37.6438 139.668 38.2258C139.668 38.413 139.83 38.4861 140.03 38.3881C140.229 38.2901 140.298 37.9761 140.184 37.6901C139.975 37.1648 140.345 36.788 144.417 33.3889C145.343 32.6156 146.649 31.4887 147.318 30.8848C149.158 29.2251 151.642 27.7009 155.491 25.869C160 23.7226 162.727 22.6236 164.88 22.0842C165.836 21.8447 167.558 21.41 168.705 21.1185C174.463 19.6546 181.403 19.332 187.281 20.2546ZM401.355 46.5543C406.121 47.3005 407.568 47.6848 411.08 49.1365C414.89 50.7117 417.804 52.8847 421.737 57.0848C424.359 59.8841 427.761 67.414 428.116 71.206C428.238 72.5004 428.448 74.1202 428.583 74.8055C429.058 77.223 428.609 81.6113 427.705 83.3889C427.511 83.7696 427.476 84.3428 427.627 84.6626C427.816 85.0619 427.693 85.496 427.237 86.047C426.383 87.0781 426.391 87.5422 427.263 87.5422C428.046 87.5422 428.214 88.2355 427.486 88.4581C426.956 88.6201 423.438 94.2138 423.438 94.8946C423.438 95.5099 422.02 98.0639 421.678 98.0639C421.522 98.0639 421.414 98.282 421.438 98.5484C421.494 99.1764 420.379 101.532 419.439 102.771C419.035 103.304 418.267 104.485 417.734 105.396C417.2 106.307 416.47 107.38 416.112 107.781C415.753 108.182 415.55 108.581 415.66 108.669C415.77 108.757 415.14 109.533 414.259 110.394C413.378 111.254 412.657 112.152 412.657 112.389C412.657 112.93 408.139 118.293 407.524 118.481C407.273 118.558 406.841 118.97 406.564 119.396C406.041 120.201 404.544 121.683 401.433 124.475C399.44 126.262 398.436 127.55 398.414 128.346C398.402 128.747 398.204 128.833 397.522 128.729C396.771 128.615 395.959 129.141 391.871 132.39C386.343 136.784 383.425 138.907 378.759 141.933C377.616 142.674 376.386 143.58 376.025 143.945C375.663 144.311 374.333 145.234 373.067 145.997C371.802 146.759 369.424 148.363 367.782 149.56C366.141 150.757 364.025 152.23 363.081 152.833C362.136 153.436 360.346 154.702 359.103 155.647C357.86 156.592 355.512 158.123 353.886 159.05C352.261 159.976 349.913 161.432 348.67 162.286C347.427 163.139 344.901 164.804 343.056 165.986C341.212 167.168 339.623 168.38 339.524 168.679C339.4 169.058 339.044 169.225 338.357 169.228C337.332 169.233 335.102 170.78 334.642 171.804C334.492 172.138 334.202 172.253 333.78 172.147C333.003 171.95 330.239 173.876 330.239 174.614C330.239 175.02 330.147 175.046 329.717 174.761C329.153 174.388 329.236 174.356 326.539 175.991C324.384 177.298 322.949 178.431 323.139 178.676C323.419 179.035 322.617 180.022 322.046 180.022C321.603 180.022 321.611 179.922 322.102 179.325C322.648 178.662 322.644 178.637 322.023 178.816C320.767 179.179 319.378 180.109 318.985 180.853C318.521 181.731 317.461 182.453 313.894 184.318C312.46 185.068 310.931 185.928 310.497 186.228C310.035 186.547 309.114 186.798 308.278 186.832C307.267 186.873 306.584 187.101 305.946 187.609C304.951 188.401 305.551 188.623 306.745 187.904C307.116 187.681 307.565 187.498 307.744 187.498C308.272 187.498 307.284 188.292 306.513 188.487C306.123 188.585 304.858 189.107 303.704 189.646C302.549 190.185 301.168 190.615 300.634 190.603C300.1 190.591 299.09 190.891 298.388 191.27C297.686 191.65 296.892 191.893 296.622 191.81C296.353 191.728 296.045 191.841 295.939 192.062C295.832 192.283 295.081 192.759 294.27 193.12L292.794 193.777L289.695 193.273C287.99 192.995 285.216 192.766 283.531 192.763L280.467 192.759L280.68 191.582C280.798 190.935 281.052 189.159 281.245 187.636C281.438 186.113 281.739 183.871 281.913 182.652C282.597 177.865 282.658 173.043 282.088 168.808C281.781 166.524 281.459 163.783 281.372 162.717C281.206 160.688 280.671 156.597 280.14 153.303C279.698 150.561 279.211 145.404 278.741 138.489C278.422 133.786 278.428 132.216 278.771 131.013C279.321 129.085 279.242 126.598 278.614 126.041C278.298 125.762 278.047 124.51 277.887 122.416C277.62 118.934 277.897 118.09 279.946 116.151C280.42 115.703 281.217 114.596 281.717 113.692C282.218 112.787 283.59 110.863 284.766 109.416C288.743 104.523 289.788 103.191 290.953 101.525C291.593 100.611 292.595 99.2858 293.181 98.5794C293.767 97.8734 294.676 96.6897 295.201 95.949C295.727 95.2086 296.711 93.9798 297.387 93.2184C298.064 92.4569 299.434 90.9072 300.431 89.7745C301.429 88.6417 303.187 86.835 304.339 85.7596C305.491 84.6842 306.79 83.4371 307.225 82.9885C310.258 79.8611 326.128 68.022 330.257 65.8067C330.825 65.5021 332.606 64.5053 334.217 63.5916C341.88 59.2428 346.665 56.8134 351.09 55.0253C352.899 54.2943 354.935 53.4172 355.613 53.076C357.023 52.3675 365.701 49.3924 367.283 49.0756C367.861 48.9596 368.647 48.7314 369.03 48.5686C369.412 48.4058 370.504 48.1411 371.456 47.9805C372.408 47.8199 374.83 47.3775 376.838 46.997C382.103 46 385.312 45.7563 391.792 45.8618C395.854 45.928 398.647 46.1301 401.355 46.5543ZM293.502 46.9785C293.612 47.2069 293.551 47.3938 293.366 47.3938C293.18 47.3938 293.029 47.2069 293.029 46.9785C293.029 46.75 293.09 46.5631 293.165 46.5631C293.241 46.5631 293.392 46.75 293.502 46.9785ZM273.554 73.5432C273.554 73.7627 273.398 74.0191 273.207 74.1133C273.015 74.2074 272.859 74.0277 272.859 73.7143C272.859 73.4008 273.015 73.1442 273.207 73.1442C273.398 73.1442 273.554 73.3236 273.554 73.5432ZM486.904 160.363C486.785 160.515 486.942 160.64 487.251 160.64C487.561 160.64 487.717 160.515 487.599 160.363C487.481 160.211 487.324 160.086 487.251 160.086C487.178 160.086 487.022 160.211 486.904 160.363ZM341.374 168.389C340.727 168.708 340.523 168.546 340.814 167.943C340.992 167.573 341.134 167.542 341.462 167.804C341.791 168.066 341.772 168.193 341.374 168.389ZM315.936 182.722C315.495 183.17 315.511 183.176 316.155 182.8C316.537 182.577 316.916 182.359 316.995 182.315C317.075 182.272 316.976 182.237 316.777 182.237C316.577 182.237 316.199 182.455 315.936 182.722ZM372.253 183.811C372.503 183.891 372.803 183.881 372.919 183.789C373.034 183.697 372.829 183.631 372.463 183.643C372.057 183.657 371.975 183.722 372.253 183.811ZM311.079 184.899C310.675 185.286 310.701 185.333 311.268 185.245C311.629 185.19 311.989 184.989 312.069 184.798C312.275 184.304 311.63 184.37 311.079 184.899ZM124.54 195.251C124.658 195.403 124.589 195.528 124.387 195.528C124.184 195.528 124.019 195.403 124.019 195.251C124.019 195.098 124.087 194.974 124.172 194.974C124.256 194.974 124.422 195.098 124.54 195.251ZM462.561 203.557C462.679 203.71 462.844 203.834 462.929 203.834C463.013 203.834 463.082 203.71 463.082 203.557C463.082 203.405 462.916 203.28 462.714 203.28C462.512 203.28 462.442 203.405 462.561 203.557ZM294.762 205.464C297.471 206.508 298.579 207.142 300.871 208.956C305.781 212.842 310.926 218.621 312.129 221.602C312.354 222.161 312.765 222.768 313.043 222.951C313.32 223.134 313.547 223.75 313.547 224.32C313.547 224.908 313.826 225.642 314.193 226.017C314.683 226.518 314.895 227.377 315.073 229.584C315.494 234.803 313.541 241.871 311.373 242.975C311.039 243.146 310.764 243.487 310.764 243.734C310.764 244.441 308.902 247.833 307.511 249.659C306.815 250.572 306.245 251.415 306.245 251.531C306.243 251.82 303.488 255.012 303.057 255.224C302.866 255.318 302.423 255.787 302.073 256.265C301.35 257.253 298.607 259.583 289.317 267.102C285.741 269.996 281.79 273.236 280.535 274.302C279.281 275.368 277.755 276.551 277.143 276.932C268.26 282.464 267.995 282.55 266.415 280.403C264.773 278.174 265.46 276.139 268.708 273.601C270.392 272.286 271.294 270.598 270.026 271.139C269.015 271.57 269.206 270.718 270.242 270.178C270.716 269.931 271.551 269.01 272.099 268.13C273.04 266.622 273.069 266.471 272.62 265.438C272.358 264.836 271.697 263.968 271.151 263.508C270.396 262.874 270.119 262.328 269.997 261.246C269.91 260.461 269.998 259.59 270.195 259.311C270.391 259.031 270.666 257.929 270.806 256.861C270.947 255.793 271.229 254.359 271.434 253.674C272.259 250.912 272.907 248.084 273.556 244.398C273.932 242.266 274.483 239.338 274.782 237.891C275.08 236.444 275.471 234.412 275.65 233.374C275.829 232.336 276.069 231.367 276.183 231.219C276.298 231.072 276.603 229.865 276.862 228.537C277.122 227.21 277.643 224.691 278.02 222.939C278.398 221.188 278.811 217.886 278.938 215.602C279.065 213.317 279.236 210.825 279.319 210.064C279.402 209.303 279.529 208.131 279.599 207.459C279.699 206.511 279.914 206.161 280.561 205.891C281.243 205.607 286.393 204.514 289.377 204.02C290.376 203.855 291.057 204.037 294.762 205.464ZM226.275 211.342C228.653 212.156 231.57 215.065 233.178 218.223C234.204 220.238 234.413 221.034 234.597 223.631C234.851 227.216 235.222 227.913 237.831 229.706C239.939 231.155 240.268 231.839 240.834 235.953C241.443 240.386 242.041 246.227 242.108 248.413C242.144 249.555 242.348 251.229 242.562 252.132C242.776 253.036 242.952 254.723 242.952 255.881C242.952 258.444 243.887 264.005 244.521 265.215C245.365 266.824 246.429 270.277 246.429 271.405C246.429 272.091 246.83 273.149 247.473 274.164L248.517 275.811L247.56 276.292C247.034 276.557 245.821 277.295 244.864 277.931C242.79 279.312 235.624 282.228 232.693 282.884C231.545 283.141 229.824 283.531 228.868 283.751C225.889 284.438 221.835 284.542 218.83 284.01C216.783 283.647 215.545 283.211 213.554 282.151C210.629 280.593 209.592 279.638 208.108 277.138C207.543 276.187 206.886 275.222 206.649 274.994C205.888 274.264 204.302 270.012 204.238 268.532C204.187 267.34 204.047 267.057 203.394 266.829C202.563 266.539 202.369 266.009 202.983 265.706C203.188 265.606 203.28 265.369 203.189 265.18C203.098 264.991 203.156 264.668 203.317 264.46C203.74 263.914 203.334 263.556 202.737 263.95C202.306 264.236 202.234 264.123 202.262 263.202C202.311 261.575 201.869 259.42 201.358 258.795C201.071 258.443 200.83 256.821 200.7 254.365C200.588 252.233 200.346 249.812 200.163 248.985C199.648 246.659 199.774 239.695 200.368 237.614C200.651 236.624 201.043 235.081 201.241 234.184C201.438 233.288 201.841 232.104 202.136 231.554C202.432 231.004 202.89 229.907 203.155 229.115C203.724 227.416 206.369 223.06 207.634 221.739C208.123 221.228 208.524 220.723 208.524 220.617C208.524 219.705 217.265 212.582 219.566 211.619C220.069 211.409 221.273 211.144 222.24 211.031C223.207 210.918 224.127 210.81 224.282 210.791C224.438 210.772 225.335 211.02 226.275 211.342ZM290.942 216.709C290.942 216.938 291.004 217.125 291.079 217.125C291.154 217.125 291.306 216.938 291.416 216.709C291.526 216.481 291.464 216.294 291.279 216.294C291.094 216.294 290.942 216.481 290.942 216.709ZM368.666 229.861C368.784 230.014 369.028 230.138 369.208 230.138C369.388 230.138 369.535 230.014 369.535 229.861C369.535 229.709 369.291 229.584 368.993 229.584C368.695 229.584 368.548 229.709 368.666 229.861ZM325.157 243.576C324.84 243.961 324.511 244.221 324.426 244.153C324.185 243.961 325.005 242.875 325.39 242.875C325.58 242.875 325.475 243.19 325.157 243.576ZM372.318 246.214C372.318 246.375 372.474 246.43 372.665 246.336C372.857 246.242 373.013 246.11 373.013 246.043C373.013 245.976 372.857 245.921 372.665 245.921C372.474 245.921 372.318 246.053 372.318 246.214ZM415.092 252.289C414.778 252.45 414.735 252.559 414.984 252.562C415.212 252.564 415.495 252.441 415.613 252.289C415.88 251.945 415.76 251.945 415.092 252.289ZM391.096 267.795C391.784 268.148 392.936 268.148 392.661 267.795C392.543 267.642 392.025 267.52 391.511 267.522C390.779 267.525 390.689 267.585 391.096 267.795ZM446.564 268.072C446.446 268.224 446.515 268.348 446.717 268.348C446.92 268.348 447.085 268.224 447.085 268.072C447.085 267.919 447.017 267.795 446.932 267.795C446.848 267.795 446.682 267.919 446.564 268.072ZM273.207 269.179C273.207 269.331 273.451 269.456 273.749 269.456C274.047 269.456 274.194 269.331 274.076 269.179C273.958 269.027 273.714 268.902 273.534 268.902C273.354 268.902 273.207 269.027 273.207 269.179ZM383.599 274.31C382.945 274.72 382.951 274.731 383.766 274.656C384.23 274.613 384.673 274.423 384.752 274.232C384.946 273.761 384.417 273.797 383.599 274.31ZM199.482 282.054C199.482 282.283 199.33 282.47 199.145 282.47C198.96 282.47 198.898 282.283 199.008 282.054C199.119 281.826 199.27 281.639 199.345 281.639C199.42 281.639 199.482 281.826 199.482 282.054ZM257.558 284.131C257.558 284.283 257.489 284.408 257.404 284.408C257.32 284.408 257.154 284.283 257.036 284.131C256.918 283.979 256.987 283.854 257.189 283.854C257.392 283.854 257.558 283.979 257.558 284.131ZM312.156 290.516C312.156 290.677 312.312 290.732 312.503 290.638C312.695 290.544 312.851 290.412 312.851 290.345C312.851 290.277 312.695 290.222 312.503 290.222C312.312 290.222 312.156 290.354 312.156 290.516ZM0.0579713 293.526C-0.179547 293.832 0.368867 294.163 0.690195 293.907C1.02056 293.643 0.959012 293.268 0.585172 293.268C0.405034 293.268 0.167863 293.384 0.0579713 293.526ZM219.826 295.483C219.708 295.636 219.777 295.76 219.979 295.76C220.182 295.76 220.347 295.636 220.347 295.483C220.347 295.331 220.279 295.206 220.194 295.206C220.11 295.206 219.944 295.331 219.826 295.483ZM397.384 298.414C397.4 298.736 397.483 298.802 397.594 298.581C397.694 298.381 397.682 298.142 397.566 298.05C397.451 297.958 397.369 298.122 397.384 298.414ZM301.027 303.651L300.158 304.047L301.114 304.057C301.738 304.063 302.071 303.922 302.071 303.651C302.071 303.156 302.115 303.156 301.027 303.651ZM361.189 308.342C361.189 308.579 361.346 308.774 361.537 308.774C361.728 308.774 361.885 308.657 361.885 308.513C361.885 308.37 361.728 308.176 361.537 308.082C361.346 307.987 361.189 308.105 361.189 308.342ZM355.63 309.442C355.855 309.622 356.09 309.622 356.316 309.442C356.541 309.263 356.423 309.169 355.973 309.169C355.523 309.169 355.405 309.263 355.63 309.442ZM264.86 310.712C264.86 310.864 265.026 310.989 265.229 310.989C265.431 310.989 265.5 310.864 265.382 310.712C265.264 310.56 265.098 310.435 265.014 310.435C264.929 310.435 264.86 310.56 264.86 310.712ZM433.755 336.647C433.627 336.748 433.528 337.029 433.533 337.27C433.542 337.63 433.61 337.618 433.913 337.203C434.288 336.69 434.179 336.309 433.755 336.647ZM511.421 339.231C511.421 339.383 511.586 339.508 511.789 339.508C511.991 339.508 512.06 339.383 511.942 339.231C511.824 339.079 511.658 338.954 511.574 338.954C511.489 338.954 511.421 339.079 511.421 339.231ZM387.619 341.723C387.619 341.875 387.775 342 387.967 342C388.158 342 388.314 341.875 388.314 341.723C388.314 341.571 388.158 341.446 387.967 341.446C387.775 341.446 387.619 341.571 387.619 341.723Z" fill="black"/>
</svg>
