<svg width="2144" height="1918" viewBox="0 0 2144 1918" fill="none" xmlns="http://www.w3.org/2000/svg">
<path fill-rule="evenodd" clip-rule="evenodd" d="M1136.76 1.03471C1126.64 1.86895 1117.2 3.21467 1115.78 4.02657C1114.36 4.83847 1101.99 6.26365 1088.29 7.19472C1074.59 8.1258 1058.66 10.055 1052.89 11.4802C1047.12 12.9053 1030.01 16.5775 1014.86 19.6414C986.829 25.3147 974.441 28.9 962.011 34.9359C958.183 36.7931 952.953 38.3151 950.389 38.3151C944.635 38.3151 900.225 58.5877 882.432 69.3361C875.221 73.691 863.42 80.4097 856.208 84.2656C848.997 88.1215 837.915 95.5627 831.582 100.799C825.249 106.035 818.965 110.318 817.62 110.318C814.387 110.318 780.02 134.901 768.359 145.555C763.31 150.169 753.293 158.372 746.095 163.787C738.899 169.202 726.508 179.789 718.56 187.315C710.614 194.843 700.57 203.791 696.243 207.2C684.301 216.615 650.669 251.74 635.928 270.191C628.717 279.218 618.298 291.913 612.778 298.399C607.255 304.884 599.821 316.322 596.254 323.821C592.688 331.316 587.674 339.696 585.112 342.442C582.55 345.186 576.534 356.13 571.74 366.757C566.949 377.386 561.93 386.727 560.585 387.511C553.31 391.77 516.932 473.888 509.965 501.786C504.038 525.519 504.258 524.71 499.609 539.856C488.377 576.441 487.276 580.734 478.748 621.165C476.949 629.696 473.521 638.721 471.13 641.221C468.741 643.722 466.784 646.847 466.784 648.166C466.784 650.76 447.355 668.965 444.583 668.965C443.655 668.965 423.94 683.77 400.771 701.863C377.6 719.958 354.087 738.113 348.517 742.21C325.598 759.068 309.649 770.537 289.773 784.451C278.235 792.53 244.978 821.525 215.869 848.884C186.758 876.245 152.665 908.128 140.103 919.735C116.885 941.19 68.4311 994.361 62.6855 1004.69C60.9495 1007.81 58.7021 1010.92 57.6872 1011.6C48.6059 1017.73 5.24477 1091.91 5.24477 1101.33C5.24477 1103.71 4.0647 1106.35 2.62238 1107.19C1.18007 1108.04 0 1117.51 0 1128.25C0 1145.72 0.729014 1148.6 6.89948 1155.54C13.7675 1163.27 13.7754 1163.34 9.08131 1171.59C4.98515 1178.8 4.8147 1180.91 7.78848 1187.71C12.6819 1198.89 20.0035 1202.78 36.1574 1202.78C53.0325 1202.78 57.3594 1200.79 76.2222 1184.34C93.9312 1168.9 117.784 1159.63 213.724 1130.89C237.627 1123.73 257.61 1119.67 293.542 1114.66C325.53 1110.21 336.845 1111.17 341.12 1118.74C342.677 1121.49 343.892 1137.57 343.865 1155.16C343.818 1188.69 346.433 1221.84 352.619 1266.1C354.717 1281.12 357.069 1301.23 357.848 1310.79C358.624 1320.35 360.439 1334.87 361.879 1343.07C363.318 1351.26 365.608 1364.67 366.961 1372.86C372.363 1405.53 383.345 1456.03 386.786 1464.05C387.798 1466.4 390.712 1477.02 393.263 1487.63C395.815 1498.25 399.984 1512.52 402.531 1519.35C405.077 1526.18 410.676 1541.26 414.969 1552.87C436.716 1611.66 461.348 1661.7 477.906 1680.74C495.924 1701.46 527.438 1739.02 533.044 1746.47C541.651 1757.9 571.035 1783.82 586.816 1793.9C592.976 1797.84 599.467 1802.22 601.239 1803.63C612.495 1812.63 709.937 1865.36 734.268 1875.62C742.255 1878.99 799.366 1893.02 826.051 1898.16C841.195 1901.08 861.847 1905.08 871.943 1907.04C882.039 1908.99 893.25 1911.01 896.855 1911.51C900.461 1912.01 906.362 1913.03 909.967 1913.78C938.646 1919.72 995.609 1919.35 1045.02 1912.9C1066.65 1910.07 1106.19 1905.57 1132.87 1902.89C1242.7 1891.87 1289.95 1876.19 1386.49 1818.77C1403.49 1808.66 1421.53 1797.93 1426.58 1794.94C1503.87 1749.09 1564.57 1695.32 1595.22 1645.53C1599.28 1638.95 1606.62 1627.42 1611.55 1619.91C1629.94 1591.86 1633.5 1582.32 1632.27 1564.26C1631.24 1549.01 1631.98 1546.06 1641.86 1526.09C1654.33 1500.88 1665.84 1453.43 1670.3 1408.86C1671.88 1393.16 1674.33 1373.05 1675.75 1364.17C1681.41 1328.89 1683.31 1311.39 1686.39 1266.69C1688.15 1241.07 1688.92 1210.34 1688.11 1198.41C1686.79 1179.05 1687.21 1176.04 1691.98 1170.51C1697.3 1164.33 1697.51 1164.3 1738.31 1164.74C1777.74 1165.16 1780.97 1165.6 1823.87 1176.3C1848.39 1182.42 1874.35 1189.05 1881.56 1191.03C1888.77 1193.01 1904.11 1197.05 1915.65 1200.02C1927.19 1202.99 1942.53 1206.98 1949.74 1208.9C1956.95 1210.82 1973.48 1214.28 1986.46 1216.58C2034.52 1225.11 2058.84 1233.02 2082.17 1247.71C2104.85 1261.99 2113.41 1264.09 2125.73 1258.4C2148.91 1247.68 2149.6 1230.81 2130.26 1148.16C2127.43 1136.08 2074.32 1039.72 2063.99 1027.94C2061.97 1025.64 2055.5 1016.09 2049.61 1006.72C2020.1 959.772 1961.19 891.093 1927.1 863.871C1892.94 836.599 1862.92 819.673 1802.89 793.851C1745.34 769.097 1711.99 759.99 1663.24 755.719C1628.05 752.635 1621.57 750.408 1614.53 738.955C1608.01 728.355 1606.13 696.865 1609.92 661.516C1617 595.236 1618.92 574.38 1619.74 554.753C1626.21 398.384 1624.4 354.561 1610.2 324.95C1604.09 312.201 1601.01 302.848 1596.89 284.477C1588.68 247.897 1533.96 172.336 1478.71 121.3C1460.85 104.809 1441.52 88.0569 1435.76 84.0719C1429.99 80.0869 1424.68 76.2633 1423.95 75.573C1418.29 70.1505 1397.96 56.9788 1379.37 46.6973C1353.44 32.3512 1331.96 23.3135 1309.88 17.4639C1301.23 15.1722 1291.79 12.3492 1288.9 11.1897C1277.59 6.65096 1261.72 3.69386 1240.39 2.15199C1208.19 -0.176944 1158.07 -0.718203 1136.76 1.03471ZM1239.48 43.0251C1258.45 45.5725 1275.3 48.4353 1276.93 49.3887C1278.56 50.3446 1283.74 51.5761 1288.43 52.1248C1298.17 53.2694 1323.57 62.6075 1346.59 73.5098C1420.78 108.645 1497.26 180.052 1533.6 248.125C1546.09 271.524 1563.14 319.674 1566.3 340.476C1566.88 344.302 1568.03 349.109 1568.84 351.157C1574.53 365.374 1576.71 405.654 1575.14 467.668C1574.21 504.395 1572.93 535.94 1572.29 537.77C1571.66 539.6 1570.54 552.866 1569.81 567.249C1569.08 581.635 1567.32 596.301 1565.9 599.844C1564.48 603.385 1561.96 642.453 1560.3 686.66C1558.13 744.231 1556.2 769.936 1553.47 777.251C1548.65 790.204 1525.36 814.65 1500 833.391C1489.19 841.383 1477.85 849.837 1474.82 852.174C1468.84 856.777 1450.16 867.925 1425.27 881.75C1405.44 892.759 1348.55 915.646 1318.25 924.805C1305.54 928.646 1293.74 932.867 1292.02 934.186C1284.94 939.618 1252.49 954.587 1240.44 957.974C1221.34 963.344 1130.17 959.136 1052.89 949.314C1031.25 946.565 1000.57 942.702 984.705 940.73C956.058 937.167 936.852 933.726 921.768 929.446C906.086 924.999 824.609 899.458 819.495 897.387C812.509 894.556 788.934 887.577 782.228 886.356C743.273 879.252 664.221 846.086 633.306 823.876C599.307 799.452 548.175 740.834 541.496 718.622C540.468 715.208 538.061 709.063 536.144 704.967C534.227 700.87 530.81 687.887 528.547 676.116C524.338 654.212 525.909 627.749 532.606 607.708C534.054 603.377 535.273 593.041 535.315 584.741C535.357 576.441 536.537 569.65 537.94 569.65C539.388 569.65 540.248 562.628 539.933 553.41C539.603 543.719 540.605 536.007 542.417 534.291C544.087 532.71 545.456 528.936 545.456 525.909C545.456 519.285 554.915 497.652 557.818 497.632C558.953 497.624 560.055 493.158 560.272 487.705C560.487 482.255 562.971 474.097 565.787 469.578C568.601 465.059 571.724 457.235 572.724 452.193C573.723 447.15 575.737 443.023 577.197 443.023C578.661 443.023 579.127 444.141 578.236 445.506C577.344 446.872 577.57 447.974 578.737 447.957C580.779 447.925 587.873 430.373 592.428 414.078C595.667 402.496 627.489 352.572 639.99 339.465C643.669 335.609 653.097 324.652 660.94 315.116C668.787 305.579 676.399 296.564 677.858 295.081C679.316 293.602 685.73 286.339 692.113 278.943C703.242 266.049 761.289 210.977 767.352 207.56C772.528 204.64 791.779 188.983 811.258 171.851C821.685 162.677 837.246 150.886 845.837 145.645C882.354 123.371 916.639 104.434 933.042 97.4819C942.705 93.3852 956.515 87.4933 963.726 84.3898C975.516 79.3123 987.448 75.3744 1014.51 67.6254C1033.47 62.1953 1084.66 50.7667 1090.1 50.7493C1093.26 50.7393 1096.47 49.7685 1097.24 48.5941C1098.01 47.4197 1108.99 45.7786 1121.65 44.9468C1160.28 42.4068 1172.68 41.1729 1174.23 39.7129C1177.08 37.0116 1205.34 38.4442 1239.48 43.0251ZM860.142 258.685C843.833 259.936 839.221 261.739 828.22 271.147C818.006 279.884 802.45 306.227 802.45 314.79C802.45 316.879 801.251 319.289 799.785 320.146C798.319 321.005 797.685 322.572 798.374 323.629C799.067 324.687 798.398 329.777 796.893 334.941C786.138 371.82 784.232 416.151 792.414 439.15C802.035 466.204 851.976 471.318 874.974 447.609C881.142 441.251 902.166 394.103 910.091 368.853C916.012 349.995 917.672 336.161 918.115 302.016C918.398 280.37 917.709 275.688 913.605 271.397C904.581 261.955 883.342 256.905 860.142 258.685ZM1338.08 318.147C1328.52 319.893 1304.14 342.867 1296.97 356.893C1290.64 369.257 1284.34 388.385 1279.62 409.505C1278.4 414.967 1278.07 431.726 1278.88 446.748C1280.51 477.17 1284.42 487.623 1298.28 498.667C1313.29 510.622 1321.1 513.157 1339.52 512.047L1356.54 511.022L1374.18 493.505C1386.68 481.093 1393.04 472.455 1396.01 463.852C1401.36 448.319 1409.14 387.591 1407.09 377.267C1406.23 372.934 1400.49 359.999 1394.32 348.518C1378.56 319.165 1366.93 312.884 1338.08 318.147ZM1042.4 584.388C1019.09 589.553 997.303 597.133 983.394 604.917C978.346 607.74 970.285 612.167 965.478 614.751C937.209 629.959 907.279 659.344 902.987 676.111C902.071 679.691 897.957 686.693 893.842 691.668C884.905 702.484 884.459 710.315 891.986 724.283C899.019 737.336 943.093 779.172 962.685 791.391C992.864 810.213 1051.59 832.812 1082.63 837.545C1103.5 840.728 1113.94 837.776 1125.7 825.381C1130.87 819.921 1136.93 815.455 1139.15 815.455C1160.73 815.455 1226.03 752.422 1248.04 710.342C1261.87 683.902 1260.55 673.208 1242.28 663.999C1236.19 660.928 1226.53 652.898 1220.82 646.157C1201.62 623.513 1191.68 615.156 1178.59 610.632C1171.47 608.174 1155.57 601.962 1143.25 596.83C1103.14 580.123 1076.48 576.833 1042.4 584.388ZM1118.02 630.545C1142.41 642.257 1170.95 668.818 1181.95 690.05C1190.49 706.548 1190.11 707.44 1163.08 734.138C1139.87 757.06 1109.56 776.483 1090.36 780.751C1082.73 782.447 1074.13 785.007 1071.24 786.442C1063.1 790.494 1052.63 788.719 1035 780.292C1018.92 772.61 1015.76 770.661 989.397 752.164C971.064 739.305 951.747 717.704 949.266 707.293C947.523 699.976 948.301 697.712 954.954 690.72C959.195 686.266 966.107 678.008 970.316 672.369C977.601 662.604 1005.53 641.507 1020.61 634.379C1041.28 624.603 1061.26 619.767 1079.11 620.216C1094.77 620.611 1100.49 622.13 1118.02 630.545ZM485.201 729.175C496.58 751.578 499.821 755.655 539.907 797.918C580.724 840.954 603.442 858.232 650.031 881.673C678.424 895.959 744.351 921.424 764.651 925.947C782.661 929.962 812.973 938.958 855.052 952.775C909.485 970.651 959.963 983.18 987.328 985.601C997.424 986.495 1015.65 988.814 1027.84 990.753C1087.9 1000.31 1176.15 1006.87 1221.62 1005.15C1271.68 1003.26 1281.36 1001.12 1294.05 989.164C1302.77 980.951 1320.1 972.725 1333.48 970.45C1359.24 966.078 1420.12 943.899 1464.03 922.888C1483.41 913.62 1501.11 902.715 1514.27 891.939C1515.8 890.691 1527.74 883.108 1540.81 875.088C1564.06 860.822 1587.98 839.253 1610.31 812.44C1616.32 805.223 1623.58 798.472 1626.45 797.441C1633.49 794.904 1695.11 799.529 1716.32 804.185C1760.79 813.95 1848.85 853.676 1878.89 877.526C1895.77 890.926 1921.44 915.08 1932.16 927.638C1948.84 947.178 1985.32 994.713 1988.03 1000.43C1989.32 1003.16 1991.5 1007.07 1992.87 1009.12C2005.26 1027.63 2029.89 1066.95 2034.08 1074.91C2036.95 1080.38 2043.74 1092.67 2049.17 1102.23C2061.43 1123.83 2081.09 1174.33 2080.96 1183.91C2080.8 1195.71 2074.8 1197.08 2051.55 1190.64C2025.95 1183.55 2018.23 1181.78 1990.39 1176.64C1967.02 1172.32 1925.8 1162.4 1888.12 1152.04C1875.86 1148.66 1854.03 1142.66 1839.6 1138.7C1794.45 1126.29 1772.35 1122.8 1718.97 1119.62C1703.99 1118.74 1690.39 1116.61 1687.24 1114.68C1683.03 1112.08 1680.96 1106.73 1678.44 1091.86C1676.63 1081.17 1672.91 1066.85 1670.18 1060.02C1667.45 1053.19 1663.94 1040.95 1662.38 1032.81C1659.04 1015.4 1654.69 1006.79 1641.95 992.354C1630.02 978.842 1617.11 974.743 1607.52 981.422C1598.38 987.788 1589.64 1000.62 1586.28 1012.62C1584.71 1018.2 1582.44 1024.59 1581.24 1026.8C1580.03 1029.02 1576.17 1040.76 1572.66 1052.89C1565.87 1076.36 1540.16 1144.41 1531.03 1163.06C1528.02 1169.2 1522.03 1182.61 1517.71 1192.85C1504.61 1223.9 1497.85 1235.06 1492.15 1235.06C1488.63 1235.06 1483.14 1229.36 1474.8 1217.06C1468.09 1207.16 1460.61 1196.27 1458.18 1192.85C1455.75 1189.44 1446.89 1175.47 1438.5 1161.82C1408.79 1113.47 1396.65 1098.1 1382.83 1091.36C1373.88 1087 1357.28 1087.98 1350.15 1093.29C1346.66 1095.88 1340.9 1098.4 1337.33 1098.87C1330.93 1099.73 1330.84 1099.49 1329.55 1077.03C1328.51 1058.97 1327.16 1053.16 1322.99 1048.75C1316.41 1041.78 1303.32 1036.43 1292.83 1036.43C1283.13 1036.43 1263.65 1045.45 1248.99 1056.72C1236.56 1066.27 1227.49 1073.01 1206.11 1088.57C1197.67 1094.72 1173.69 1112.87 1152.82 1128.92C1131.95 1144.96 1112.92 1158.09 1110.54 1158.09C1108.16 1158.09 1096.42 1149.84 1084.45 1139.76C1059.46 1118.71 1054.11 1117.85 1041.12 1132.77C1034.15 1140.77 1032.81 1141.33 1026.87 1138.77C1023.25 1137.21 1017.26 1131.38 1013.55 1125.82C990.7 1091.54 961.864 1077.41 937.544 1088.55C926.541 1093.59 910.662 1107.92 901.757 1120.85C897.603 1126.88 897.328 1126.93 892.203 1122.57C885.417 1116.79 878.36 1090.49 876.542 1064.19C875.478 1048.81 873.684 1041.53 869.501 1035.64C862.486 1025.77 848.976 1019.33 834.954 1019.17C825.28 1019.06 822.849 1020.39 810.964 1032.29C803.69 1039.57 794.674 1051.25 790.932 1058.25C779.648 1079.33 752.38 1121.4 742.712 1132.64C737.719 1138.44 731.509 1143.19 728.907 1143.19C715.662 1143.19 703.452 1124.06 689.307 1081.12C679.119 1050.2 657.922 1034 627.607 1033.96C613.313 1033.94 601.714 1042.9 597.689 1057.05C593.81 1070.69 584.212 1088.36 569.12 1109.68C550.58 1135.85 539.241 1156.49 527.065 1186.21L516.056 1213.09L509.666 1204.19C506.152 1199.29 499.134 1185.13 494.073 1172.73C489.012 1160.32 483.814 1148.32 482.524 1146.06C481.234 1143.8 477.652 1134.13 474.56 1124.57C471.471 1115.01 467.12 1103.36 464.891 1098.67C462.665 1093.99 458.175 1082.25 454.913 1072.6C439.412 1026.7 420.617 989.623 408.484 981.01C382.265 962.396 363.386 959.496 350.088 972.037L342.221 979.458L343.102 1022.49C344.122 1072.18 346.787 1067.82 313.96 1070.1C286.155 1072.02 242.319 1077.85 218.969 1082.71C176.678 1091.53 142.089 1102.06 89.0614 1122.25C76.7493 1126.94 65.1007 1130.78 63.1785 1130.78C60.5456 1130.78 59.9582 1127.27 60.7947 1116.5C62.6828 1092.22 90.5588 1041.53 123.339 1002.78C135.855 987.989 152.691 966.21 159.703 955.737C177.142 929.699 205.765 895.363 223.868 878.763C229.826 873.295 242.78 860.727 252.651 850.83C262.522 840.931 271.21 832.835 271.96 832.835C273.882 832.835 288.163 821.84 310.671 803.04C333.504 783.964 355.947 766.964 369.67 758.348C375.108 754.934 384.137 749.249 389.736 745.713C408.963 733.569 444.505 715.293 454.984 712.16C473.335 706.672 473.946 707.015 485.201 729.175ZM1267.96 1146.92C1270.35 1159.21 1273.26 1175.7 1274.42 1183.57C1275.59 1191.44 1278.5 1200.71 1280.9 1204.17C1286.92 1212.88 1300.37 1220.14 1310.5 1220.15C1315.36 1220.16 1324.56 1223.41 1332.06 1227.79C1342.46 1233.84 1348.66 1235.57 1362.27 1236.2C1378.4 1236.95 1379.76 1236.58 1385.76 1229.83C1389.26 1225.9 1392.87 1220.15 1393.78 1217.07C1398.7 1200.44 1404.74 1196.25 1409.86 1205.91C1411.48 1208.97 1416.21 1217.62 1420.37 1225.13C1435.9 1253.2 1448.68 1286.02 1452.75 1308.31C1454.49 1317.86 1456.44 1328.25 1457.06 1331.38C1457.69 1334.51 1460.23 1337.8 1462.71 1338.69C1465.19 1339.58 1468.65 1341.64 1470.4 1343.27C1472.45 1345.19 1479.4 1345.86 1490.07 1345.18C1502.65 1344.37 1507.96 1342.81 1512.45 1338.58C1518.32 1333.06 1537.27 1293.1 1548.58 1262.37C1554.1 1247.39 1558.16 1237.76 1566.9 1218.92C1577.68 1195.67 1588.85 1170.65 1591.85 1163.06C1602.51 1136.01 1618.6 1141.62 1620.31 1172.99C1620.72 1180.5 1622.11 1191.96 1623.4 1198.46C1624.8 1205.46 1624.77 1220.12 1623.35 1234.46C1622.03 1247.76 1620.21 1267.59 1619.31 1278.51C1616.78 1309.04 1613.51 1334.99 1607.64 1371.29C1604.69 1389.55 1602.28 1408.21 1602.28 1412.76C1602.28 1417.31 1600.37 1427.51 1598.04 1435.43C1595.7 1443.35 1592.2 1457.09 1590.25 1465.97C1583.74 1495.66 1580.66 1506.33 1574.19 1521.58C1565.77 1541.47 1545.46 1579.46 1538.23 1588.87C1535.08 1592.97 1529.86 1600.65 1526.64 1605.94L1520.77 1615.57L1526.72 1619.52C1529.99 1621.68 1535.93 1623.13 1539.93 1622.74C1552.67 1621.47 1548.87 1630.17 1525.48 1655.91C1503.06 1680.56 1476.59 1704.32 1446.24 1727.03C1431.82 1737.82 1418.46 1747.87 1416.55 1749.35C1414.64 1750.82 1403.43 1757.06 1391.64 1763.2C1379.85 1769.34 1368.43 1775.79 1366.26 1777.53C1362.49 1780.55 1337.31 1795 1310.18 1809.71C1262.47 1835.58 1218.09 1850.01 1157.78 1859.27C1153.46 1859.94 1135.16 1861.71 1117.14 1863.21C1099.11 1864.71 1082.59 1866.39 1080.42 1866.94C1056.61 1873.05 964.059 1878.18 941.342 1874.66C936.346 1873.88 928.717 1872.81 924.39 1872.27C920.064 1871.74 907.083 1869.45 895.544 1867.19C884.006 1864.93 868.075 1861.88 860.142 1860.42C852.209 1858.95 836.069 1855.63 824.276 1853.04C812.48 1850.45 801.27 1848.32 799.363 1848.31C795.508 1848.29 754.552 1833.89 738.201 1826.81C732.432 1824.31 718.861 1817.12 708.044 1810.84C697.226 1804.56 676.575 1792.93 662.152 1784.99C623.412 1763.68 607.913 1751.29 581.217 1720.27C575.251 1713.34 561.148 1697.29 549.877 1684.6C516.332 1646.85 484.307 1578.39 453.413 1478.38C450.25 1468.14 445.365 1453.07 442.559 1444.89C439.753 1436.71 436.307 1423.86 434.901 1416.33C432.452 1403.23 431.487 1396.75 424.91 1349.27C423.3 1337.67 420.311 1319.79 418.262 1309.55C416.214 1299.3 413.314 1273.86 411.817 1253.02C410.319 1232.17 407.841 1209.82 406.312 1203.36C403.218 1190.29 403.446 1160.73 406.674 1156.79C407.817 1155.39 409.178 1151.24 409.698 1147.57C411.793 1132.76 413.66 1136.07 434.172 1190.99C457.244 1252.77 482.731 1295.89 503.514 1308.32C512.417 1313.64 515.613 1314.18 530.27 1312.89C554.574 1310.74 557.498 1306.02 573.98 1242.33C585.12 1199.3 589.205 1187.75 600.932 1166.13C614.87 1140.45 629.092 1123.82 634.441 1126.95C636.036 1127.88 640.174 1133.88 643.638 1140.27C650.682 1153.25 677.593 1179.03 693.621 1188.13C702.621 1193.25 707.462 1194.09 727.712 1194.09C758.459 1194.09 764.1 1190.91 789.469 1159.23C812.2 1130.84 819.54 1127.2 825.7 1141.24C834.576 1161.46 848.373 1184.51 856.707 1193.04C869.021 1205.64 877.906 1208.71 897.225 1207.06C917.016 1205.36 924.375 1199.37 935.995 1175.5C940.534 1166.18 946.088 1157.1 948.341 1155.33C954.315 1150.64 961.673 1150.2 963.388 1154.43C966.792 1162.83 987.385 1185.86 1000.93 1196.42L1015.47 1207.75H1037.24C1053.18 1207.75 1062.28 1209.08 1071.24 1212.71C1086.66 1218.97 1112.02 1219.22 1125.3 1213.25C1130.52 1210.91 1143.9 1200.95 1155.04 1191.12C1166.19 1181.29 1181.98 1168.44 1190.15 1162.56C1198.31 1156.69 1209.71 1147.77 1215.48 1142.75C1227.54 1132.25 1245.27 1119.78 1250.93 1117.81C1258.27 1115.26 1263.55 1124.29 1267.96 1146.92Z" fill="black"/>
</svg>
