<svg width="262" height="338" viewBox="0 0 262 338" fill="none" xmlns="http://www.w3.org/2000/svg">
<mask id="path-1-outside-1_531_1640" maskUnits="userSpaceOnUse" x="0.271484" y="21.6562" width="261" height="316" fill="black">
<rect fill="white" x="0.271484" y="21.6562" width="261" height="316"/>
<path d="M248.033 132.219C248.033 131.47 249.653 126.521 251.636 121.225C253.616 115.927 256.059 111.593 257.064 111.593C258.294 111.593 258.323 112.304 257.153 113.767C256.197 114.964 254.985 117.507 254.46 119.42C242.802 161.881 226.05 208.303 207.964 248.25C206.201 252.144 200.338 268.58 194.935 284.775C184.006 317.535 182.996 319.921 181.262 317.114C180.616 316.067 181.598 312.244 183.448 308.619C185.297 304.993 187.729 298.509 188.853 294.209C191.424 284.363 203.619 250.65 206.924 244.248C215.911 226.842 248.033 139.303 248.033 132.219Z"/>
<path fill-rule="evenodd" clip-rule="evenodd" d="M194.574 33.0927C192.907 38.5611 197.063 23.4261 196.479 26.3464C195.895 29.2684 194.874 31.9939 194.212 32.4043C192.728 33.3192 173.278 37.537 148.918 42.2227C138.876 44.1533 127.307 46.8562 123.209 48.2268C112.751 51.7228 107.644 51.4253 106.316 47.2389C104.763 42.3445 102.989 42.9028 100.108 49.1921C97.7554 54.33 96.4026 54.9318 75.0164 60.3497C62.5835 63.4995 46.6017 68.1 39.5002 70.5715C32.3987 73.0448 25.2241 75.0676 23.5548 75.0676C19.3659 75.0676 17.288 81.8979 7.20956 128.77C5.69328 135.827 4.80298 141.951 5.23247 142.38C6.26188 143.412 6.83224 141.246 13.3269 111.593C16.3664 97.722 19.2112 85.7852 19.6494 85.0686C21.8282 81.5065 27.3421 85.0895 41.0738 98.983C49.3473 107.354 61.542 119.008 68.174 124.881C74.806 130.753 79.7235 136.089 79.1027 136.738C77.3152 138.599 59.1702 142.733 40.6409 145.504C31.298 146.899 21.5169 149.278 18.9051 150.79C14.2398 153.487 14.2328 153.517 18.5035 152.468C20.8944 151.88 31.0667 149.946 41.1086 148.172C51.1505 146.398 64.7658 143.686 71.363 142.149C82.1022 139.644 83.6655 139.629 86.2807 141.996C90.0662 145.422 90.9496 145.328 91.979 141.392C92.598 139.027 95.1332 137.806 101.311 136.898C105.977 136.213 118.792 133.049 129.79 129.864C140.789 126.681 154.26 123.563 159.725 122.935L169.664 121.794L170.158 140.608C170.925 169.715 168.65 306.137 167.228 316.465C166.225 323.747 165.489 325.275 163.696 323.786C162.45 322.751 160.949 319.985 160.361 317.639C159.772 315.293 158.511 313.564 157.56 313.797C153.94 314.686 114.901 228.841 95.674 177.714C85.7904 151.432 82.8412 145.899 82.8412 153.646C82.8412 156.11 83.9402 159.041 85.2843 160.156C86.6285 161.271 90.6435 170.173 94.2064 179.937C106.42 213.391 124.273 254.586 145.997 299.437C160.633 329.652 161.052 335.636 147.515 321.126C143.027 316.315 137.069 309.663 134.277 306.342C123.572 293.621 116.699 285.953 104.697 273.348C97.865 266.173 82.5752 249.345 70.7162 235.953C58.8589 222.56 42.8005 204.95 35.0331 196.819C27.2638 188.687 17.1541 177.095 12.567 171.058C7.97988 165.021 3.82748 160.478 3.34234 160.965C1.97386 162.334 20.7153 185.798 34.7566 200.297C41.7033 207.472 57.0835 224.3 68.9321 237.692C80.7807 251.085 96.0792 267.912 102.927 275.087C114.556 287.271 119.83 293.129 132.538 307.981C135.33 311.245 141.31 317.898 145.824 322.765C150.34 327.633 154.056 332.201 154.084 332.919C154.181 335.455 157.612 334.185 157.612 331.614C157.612 328.282 161.824 328.247 165.126 331.552C167.362 333.788 167.805 333.628 168.763 330.247C169.709 326.91 173.039 181.593 173.205 136.514L173.262 120.559L178.913 118.787C182.021 117.811 196.302 114.538 210.647 111.511C224.993 108.485 237.834 104.958 239.186 103.674C241.237 101.722 240.102 101.715 232.23 103.636C227.054 104.898 218.516 106.834 213.256 107.937C207.996 109.04 197.049 111.431 188.933 113.252C180.814 115.072 173.891 116.28 173.549 115.938C173.206 115.595 174.898 110.368 177.308 104.323C180.802 95.5566 194.128 48.272 194.128 44.6386C194.128 38.6311 218.425 57.6294 236.984 78.1497C245.402 87.4549 252.503 95.3948 252.768 95.7949C253.034 96.1932 253.747 96.0227 254.354 95.4157C254.96 94.807 249.678 87.895 242.616 80.0542C231.472 67.6826 224.231 60.9671 200.809 41.2817C196.253 37.4535 196.218 37.257 198.404 27.8491C199.625 22.5982 195.557 38.5559 196.699 36.4217C197.842 34.2876 198.513 30.4281 198.191 27.8453C197.711 23.9875 197.062 24.9267 194.574 33.0927ZM171.605 108.445C176.131 102.855 192.389 49.9365 192.389 40.7947C192.389 37.2257 180.355 38.3667 151.067 44.7134C121.55 51.1088 112.402 53.7612 112.402 55.9232C112.402 58.0399 145.579 92.4693 157.939 103.18L168.477 112.31L171.605 108.445ZM124.574 73.831C138.81 89.1995 151.06 100.856 166.675 113.887C169.836 116.526 170.05 117.317 167.953 118.644C166.569 119.521 163.37 120.248 160.843 120.263C158.316 120.277 146.97 122.756 135.63 125.77C110.214 132.524 94.4881 135.997 93.5526 135.061C90.2784 131.786 96.62 63.2126 100.67 58.1095C104.212 53.6464 108.474 56.4502 124.574 73.831ZM94.1995 77.8314C95.568 70.0932 96.7017 62.3934 96.7208 60.7184C96.7382 59.0435 96.1644 57.7651 95.448 57.8764C82.8447 59.8262 29.9278 75.7634 26.6448 78.5967C24.6764 80.2977 47.1059 103.738 68.3478 122.178C81.2206 133.353 86.4737 136.955 87.6788 135.43C88.5899 134.277 89.868 124.012 90.5218 112.617C91.1756 101.223 92.831 85.5695 94.1995 77.8314Z"/>
</mask>
<path d="M248.033 132.219C248.033 131.47 249.653 126.521 251.636 121.225C253.616 115.927 256.059 111.593 257.064 111.593C258.294 111.593 258.323 112.304 257.153 113.767C256.197 114.964 254.985 117.507 254.46 119.42C242.802 161.881 226.05 208.303 207.964 248.25C206.201 252.144 200.338 268.58 194.935 284.775C184.006 317.535 182.996 319.921 181.262 317.114C180.616 316.067 181.598 312.244 183.448 308.619C185.297 304.993 187.729 298.509 188.853 294.209C191.424 284.363 203.619 250.65 206.924 244.248C215.911 226.842 248.033 139.303 248.033 132.219Z" fill="black"/>
<path fill-rule="evenodd" clip-rule="evenodd" d="M194.574 33.0927C192.907 38.5611 197.063 23.4261 196.479 26.3464C195.895 29.2684 194.874 31.9939 194.212 32.4043C192.728 33.3192 173.278 37.537 148.918 42.2227C138.876 44.1533 127.307 46.8562 123.209 48.2268C112.751 51.7228 107.644 51.4253 106.316 47.2389C104.763 42.3445 102.989 42.9028 100.108 49.1921C97.7554 54.33 96.4026 54.9318 75.0164 60.3497C62.5835 63.4995 46.6017 68.1 39.5002 70.5715C32.3987 73.0448 25.2241 75.0676 23.5548 75.0676C19.3659 75.0676 17.288 81.8979 7.20956 128.77C5.69328 135.827 4.80298 141.951 5.23247 142.38C6.26188 143.412 6.83224 141.246 13.3269 111.593C16.3664 97.722 19.2112 85.7852 19.6494 85.0686C21.8282 81.5065 27.3421 85.0895 41.0738 98.983C49.3473 107.354 61.542 119.008 68.174 124.881C74.806 130.753 79.7235 136.089 79.1027 136.738C77.3152 138.599 59.1702 142.733 40.6409 145.504C31.298 146.899 21.5169 149.278 18.9051 150.79C14.2398 153.487 14.2328 153.517 18.5035 152.468C20.8944 151.88 31.0667 149.946 41.1086 148.172C51.1505 146.398 64.7658 143.686 71.363 142.149C82.1022 139.644 83.6655 139.629 86.2807 141.996C90.0662 145.422 90.9496 145.328 91.979 141.392C92.598 139.027 95.1332 137.806 101.311 136.898C105.977 136.213 118.792 133.049 129.79 129.864C140.789 126.681 154.26 123.563 159.725 122.935L169.664 121.794L170.158 140.608C170.925 169.715 168.65 306.137 167.228 316.465C166.225 323.747 165.489 325.275 163.696 323.786C162.45 322.751 160.949 319.985 160.361 317.639C159.772 315.293 158.511 313.564 157.56 313.797C153.94 314.686 114.901 228.841 95.674 177.714C85.7904 151.432 82.8412 145.899 82.8412 153.646C82.8412 156.11 83.9402 159.041 85.2843 160.156C86.6285 161.271 90.6435 170.173 94.2064 179.937C106.42 213.391 124.273 254.586 145.997 299.437C160.633 329.652 161.052 335.636 147.515 321.126C143.027 316.315 137.069 309.663 134.277 306.342C123.572 293.621 116.699 285.953 104.697 273.348C97.865 266.173 82.5752 249.345 70.7162 235.953C58.8589 222.56 42.8005 204.95 35.0331 196.819C27.2638 188.687 17.1541 177.095 12.567 171.058C7.97988 165.021 3.82748 160.478 3.34234 160.965C1.97386 162.334 20.7153 185.798 34.7566 200.297C41.7033 207.472 57.0835 224.3 68.9321 237.692C80.7807 251.085 96.0792 267.912 102.927 275.087C114.556 287.271 119.83 293.129 132.538 307.981C135.33 311.245 141.31 317.898 145.824 322.765C150.34 327.633 154.056 332.201 154.084 332.919C154.181 335.455 157.612 334.185 157.612 331.614C157.612 328.282 161.824 328.247 165.126 331.552C167.362 333.788 167.805 333.628 168.763 330.247C169.709 326.91 173.039 181.593 173.205 136.514L173.262 120.559L178.913 118.787C182.021 117.811 196.302 114.538 210.647 111.511C224.993 108.485 237.834 104.958 239.186 103.674C241.237 101.722 240.102 101.715 232.23 103.636C227.054 104.898 218.516 106.834 213.256 107.937C207.996 109.04 197.049 111.431 188.933 113.252C180.814 115.072 173.891 116.28 173.549 115.938C173.206 115.595 174.898 110.368 177.308 104.323C180.802 95.5566 194.128 48.272 194.128 44.6386C194.128 38.6311 218.425 57.6294 236.984 78.1497C245.402 87.4549 252.503 95.3948 252.768 95.7949C253.034 96.1932 253.747 96.0227 254.354 95.4157C254.96 94.807 249.678 87.895 242.616 80.0542C231.472 67.6826 224.231 60.9671 200.809 41.2817C196.253 37.4535 196.218 37.257 198.404 27.8491C199.625 22.5982 195.557 38.5559 196.699 36.4217C197.842 34.2876 198.513 30.4281 198.191 27.8453C197.711 23.9875 197.062 24.9267 194.574 33.0927ZM171.605 108.445C176.131 102.855 192.389 49.9365 192.389 40.7947C192.389 37.2257 180.355 38.3667 151.067 44.7134C121.55 51.1088 112.402 53.7612 112.402 55.9232C112.402 58.0399 145.579 92.4693 157.939 103.18L168.477 112.31L171.605 108.445ZM124.574 73.831C138.81 89.1995 151.06 100.856 166.675 113.887C169.836 116.526 170.05 117.317 167.953 118.644C166.569 119.521 163.37 120.248 160.843 120.263C158.316 120.277 146.97 122.756 135.63 125.77C110.214 132.524 94.4881 135.997 93.5526 135.061C90.2784 131.786 96.62 63.2126 100.67 58.1095C104.212 53.6464 108.474 56.4502 124.574 73.831ZM94.1995 77.8314C95.568 70.0932 96.7017 62.3934 96.7208 60.7184C96.7382 59.0435 96.1644 57.7651 95.448 57.8764C82.8447 59.8262 29.9278 75.7634 26.6448 78.5967C24.6764 80.2977 47.1059 103.738 68.3478 122.178C81.2206 133.353 86.4737 136.955 87.6788 135.43C88.5899 134.277 89.868 124.012 90.5218 112.617C91.1756 101.223 92.831 85.5695 94.1995 77.8314Z" fill="black"/>
<path d="M248.033 132.219C248.033 131.47 249.653 126.521 251.636 121.225C253.616 115.927 256.059 111.593 257.064 111.593C258.294 111.593 258.323 112.304 257.153 113.767C256.197 114.964 254.985 117.507 254.46 119.42C242.802 161.881 226.05 208.303 207.964 248.25C206.201 252.144 200.338 268.58 194.935 284.775C184.006 317.535 182.996 319.921 181.262 317.114C180.616 316.067 181.598 312.244 183.448 308.619C185.297 304.993 187.729 298.509 188.853 294.209C191.424 284.363 203.619 250.65 206.924 244.248C215.911 226.842 248.033 139.303 248.033 132.219Z" stroke="black" stroke-width="6" mask="url(#path-1-outside-1_531_1640)"/>
<path fill-rule="evenodd" clip-rule="evenodd" d="M194.574 33.0927C192.907 38.5611 197.063 23.4261 196.479 26.3464C195.895 29.2684 194.874 31.9939 194.212 32.4043C192.728 33.3192 173.278 37.537 148.918 42.2227C138.876 44.1533 127.307 46.8562 123.209 48.2268C112.751 51.7228 107.644 51.4253 106.316 47.2389C104.763 42.3445 102.989 42.9028 100.108 49.1921C97.7554 54.33 96.4026 54.9318 75.0164 60.3497C62.5835 63.4995 46.6017 68.1 39.5002 70.5715C32.3987 73.0448 25.2241 75.0676 23.5548 75.0676C19.3659 75.0676 17.288 81.8979 7.20956 128.77C5.69328 135.827 4.80298 141.951 5.23247 142.38C6.26188 143.412 6.83224 141.246 13.3269 111.593C16.3664 97.722 19.2112 85.7852 19.6494 85.0686C21.8282 81.5065 27.3421 85.0895 41.0738 98.983C49.3473 107.354 61.542 119.008 68.174 124.881C74.806 130.753 79.7235 136.089 79.1027 136.738C77.3152 138.599 59.1702 142.733 40.6409 145.504C31.298 146.899 21.5169 149.278 18.9051 150.79C14.2398 153.487 14.2328 153.517 18.5035 152.468C20.8944 151.88 31.0667 149.946 41.1086 148.172C51.1505 146.398 64.7658 143.686 71.363 142.149C82.1022 139.644 83.6655 139.629 86.2807 141.996C90.0662 145.422 90.9496 145.328 91.979 141.392C92.598 139.027 95.1332 137.806 101.311 136.898C105.977 136.213 118.792 133.049 129.79 129.864C140.789 126.681 154.26 123.563 159.725 122.935L169.664 121.794L170.158 140.608C170.925 169.715 168.65 306.137 167.228 316.465C166.225 323.747 165.489 325.275 163.696 323.786C162.45 322.751 160.949 319.985 160.361 317.639C159.772 315.293 158.511 313.564 157.56 313.797C153.94 314.686 114.901 228.841 95.674 177.714C85.7904 151.432 82.8412 145.899 82.8412 153.646C82.8412 156.11 83.9402 159.041 85.2843 160.156C86.6285 161.271 90.6435 170.173 94.2064 179.937C106.42 213.391 124.273 254.586 145.997 299.437C160.633 329.652 161.052 335.636 147.515 321.126C143.027 316.315 137.069 309.663 134.277 306.342C123.572 293.621 116.699 285.953 104.697 273.348C97.865 266.173 82.5752 249.345 70.7162 235.953C58.8589 222.56 42.8005 204.95 35.0331 196.819C27.2638 188.687 17.1541 177.095 12.567 171.058C7.97988 165.021 3.82748 160.478 3.34234 160.965C1.97386 162.334 20.7153 185.798 34.7566 200.297C41.7033 207.472 57.0835 224.3 68.9321 237.692C80.7807 251.085 96.0792 267.912 102.927 275.087C114.556 287.271 119.83 293.129 132.538 307.981C135.33 311.245 141.31 317.898 145.824 322.765C150.34 327.633 154.056 332.201 154.084 332.919C154.181 335.455 157.612 334.185 157.612 331.614C157.612 328.282 161.824 328.247 165.126 331.552C167.362 333.788 167.805 333.628 168.763 330.247C169.709 326.91 173.039 181.593 173.205 136.514L173.262 120.559L178.913 118.787C182.021 117.811 196.302 114.538 210.647 111.511C224.993 108.485 237.834 104.958 239.186 103.674C241.237 101.722 240.102 101.715 232.23 103.636C227.054 104.898 218.516 106.834 213.256 107.937C207.996 109.04 197.049 111.431 188.933 113.252C180.814 115.072 173.891 116.28 173.549 115.938C173.206 115.595 174.898 110.368 177.308 104.323C180.802 95.5566 194.128 48.272 194.128 44.6386C194.128 38.6311 218.425 57.6294 236.984 78.1497C245.402 87.4549 252.503 95.3948 252.768 95.7949C253.034 96.1932 253.747 96.0227 254.354 95.4157C254.96 94.807 249.678 87.895 242.616 80.0542C231.472 67.6826 224.231 60.9671 200.809 41.2817C196.253 37.4535 196.218 37.257 198.404 27.8491C199.625 22.5982 195.557 38.5559 196.699 36.4217C197.842 34.2876 198.513 30.4281 198.191 27.8453C197.711 23.9875 197.062 24.9267 194.574 33.0927ZM171.605 108.445C176.131 102.855 192.389 49.9365 192.389 40.7947C192.389 37.2257 180.355 38.3667 151.067 44.7134C121.55 51.1088 112.402 53.7612 112.402 55.9232C112.402 58.0399 145.579 92.4693 157.939 103.18L168.477 112.31L171.605 108.445ZM124.574 73.831C138.81 89.1995 151.06 100.856 166.675 113.887C169.836 116.526 170.05 117.317 167.953 118.644C166.569 119.521 163.37 120.248 160.843 120.263C158.316 120.277 146.97 122.756 135.63 125.77C110.214 132.524 94.4881 135.997 93.5526 135.061C90.2784 131.786 96.62 63.2126 100.67 58.1095C104.212 53.6464 108.474 56.4502 124.574 73.831ZM94.1995 77.8314C95.568 70.0932 96.7017 62.3934 96.7208 60.7184C96.7382 59.0435 96.1644 57.7651 95.448 57.8764C82.8447 59.8262 29.9278 75.7634 26.6448 78.5967C24.6764 80.2977 47.1059 103.738 68.3478 122.178C81.2206 133.353 86.4737 136.955 87.6788 135.43C88.5899 134.277 89.868 124.012 90.5218 112.617C91.1756 101.223 92.831 85.5695 94.1995 77.8314Z" stroke="black" stroke-width="6" mask="url(#path-1-outside-1_531_1640)"/>
</svg>
