<svg width="280" height="274" viewBox="0 0 280 274" fill="none" xmlns="http://www.w3.org/2000/svg">
<path d="M190.258 35.1539C192.218 54.4194 194.722 72.9792 197.674 90.1172C198.455 94.6566 198.917 99.7046 199.016 103.601C199.066 105.557 199.023 107.172 198.896 108.269C198.856 108.616 198.811 108.877 198.768 109.064C198.405 109.253 198.14 109.527 197.97 109.748C197.668 110.141 197.462 110.615 197.317 111.066C197.022 111.984 196.869 113.156 196.878 114.379C196.885 115.26 197.208 116.213 198.159 116.696C198.935 117.09 199.752 116.949 200.204 116.833C200.719 116.701 201.192 116.483 201.507 116.321C201.671 116.237 201.809 116.159 201.907 116.101C201.956 116.072 201.997 116.048 202.026 116.03L202.062 116.007L202.074 116L202.079 115.997L202.08 115.996L202.081 115.995C202.081 115.995 202.082 115.995 201.271 114.733L202.082 115.995L202.296 115.857L202.453 115.657C204.39 113.179 205.354 110.625 205.477 106.136C205.596 101.767 204.923 95.4201 203.557 85.2738L202.071 85.4739L203.557 85.2738C199.393 54.3355 195.601 24.3375 194.637 14.7164L194.637 14.7159C194.358 11.9452 193.934 9.30455 193.468 7.27188C193.236 6.2601 192.986 5.36373 192.725 4.66501C192.596 4.31786 192.451 3.98233 192.285 3.69293C192.146 3.44986 191.887 3.04306 191.454 2.77501L191.453 2.77427L17.4167 16.985C18.6289 16.4662 21.4649 15.8931 25.8517 15.3444C30.1618 14.8054 35.7817 14.3094 42.41 13.8783C55.6631 13.0163 72.8872 12.4172 91.6059 12.2432L91.606 12.2432C103.312 12.1331 122.695 11.1273 134.711 10.0029C146.658 8.88658 163.542 7.97443 172.2 7.97443C174.123 7.97443 175.78 7.94047 177.229 7.91076C179.409 7.8661 181.118 7.83107 182.553 7.93563C184.823 8.10113 185.814 8.59304 186.509 9.60679C187.35 10.8337 187.923 13.04 188.457 17.2565C188.777 19.778 189.071 22.8748 189.436 26.7197C189.672 29.2034 189.937 31.9993 190.258 35.1539ZM190.258 35.1539L191.751 35.002L190.258 35.154C190.258 35.1539 190.258 35.1539 190.258 35.1539ZM254.658 211.336C255.183 213.724 256.179 215.677 256.871 215.677C260.234 215.677 259.342 212.009 253.772 202.933C250.419 197.47 245.414 189.193 242.652 184.538C236.516 174.196 228.496 165.936 224.592 165.936C222.993 165.936 215.797 168.894 208.6 172.511L254.658 211.336ZM254.658 211.336C254.135 208.949 249.805 201.062 245.037 193.81L254.658 211.336ZM269.776 237.616C270.119 237.269 270.35 236.759 270.497 236.411C270.676 235.986 270.866 235.454 271.061 234.849C271.453 233.634 271.901 232.025 272.377 230.171C273.329 226.457 274.409 221.681 275.393 216.936C276.377 212.191 277.268 207.455 277.84 203.82C278.125 202.007 278.335 200.441 278.434 199.277C278.483 198.701 278.509 198.181 278.497 197.763C278.491 197.558 278.474 197.328 278.43 197.108C278.401 196.965 278.307 196.504 277.933 196.13L277.931 196.127C277.62 195.817 277.168 195.603 276.645 195.63C276.187 195.653 275.846 195.854 275.652 195.998C275.279 196.275 275.017 196.665 274.845 196.958C274.469 197.6 274.12 198.498 273.843 199.488L273.843 199.488L254.831 233.049L254.317 234.459C257.86 235.75 261.225 236.801 263.801 237.453C265.083 237.777 266.207 238.013 267.076 238.124C267.504 238.179 267.925 238.211 268.294 238.193C268.479 238.185 268.698 238.162 268.922 238.101C269.126 238.045 269.474 237.922 269.776 237.616ZM269.776 237.616L268.709 236.562L269.776 237.616C269.776 237.616 269.776 237.616 269.776 237.616ZM202.744 223.069C202.791 223.979 203.059 225.937 203.392 228.366C203.441 228.722 203.491 229.088 203.542 229.462C203.949 232.448 204.432 236.081 204.792 239.684C205.153 243.298 205.385 246.829 205.304 249.624C205.263 251.025 205.145 252.182 204.947 253.048C204.744 253.934 204.513 254.26 204.436 254.336C204.429 254.337 204.292 254.415 203.906 254.519C203.49 254.631 202.921 254.738 202.199 254.834C200.758 255.027 198.84 255.161 196.586 255.245C192.085 255.414 186.377 255.381 180.749 255.26C175.125 255.139 169.605 254.932 165.489 254.755C163.431 254.666 161.725 254.585 160.534 254.526C160.171 254.508 159.856 254.492 159.593 254.479C159.425 254.47 159.278 254.463 159.155 254.456L158.793 254.437L158.7 254.432L158.677 254.431L158.671 254.431L158.67 254.431C158.67 254.431 158.67 254.431 158.588 255.928L158.67 254.431L158.618 254.428L127.693 255.897C127.691 255.898 127.69 255.898 127.688 255.899C127.628 255.917 127.527 255.944 127.376 255.978C127.075 256.045 126.649 256.124 126.101 256.211C125.007 256.386 123.499 256.586 121.677 256.798C118.039 257.222 113.204 257.686 108.056 258.089C97.7167 258.897 84.4217 260.265 78.4941 261.133C76.1198 261.48 73.4377 261.915 70.5647 262.381C65.879 263.14 60.6856 263.983 55.4913 264.661C47.5176 265.702 39.8618 266.307 34.5302 265.632L27.9123 250.88L25.4397 243.674C24.7242 241.588 24.0913 240.112 23.5427 239.301C23.4007 239.091 23.2178 238.854 22.9879 238.656C22.7902 238.486 22.3291 238.148 21.6756 238.193C20.9223 238.245 20.493 238.75 20.3084 239.072C20.1323 239.379 20.0594 239.701 20.0224 239.927C19.8789 240.805 19.9934 242.204 20.2527 243.838C20.5229 245.541 20.9846 247.693 21.6505 250.185L23.0997 249.797L21.6506 250.185L23.3528 256.551L23.3755 256.636L23.408 256.718L27.7191 267.564C28.7882 270.254 31.5015 271.903 34.3714 271.649C37.5908 271.365 40.5387 271.134 43.3982 270.911C50.811 270.332 57.6296 269.799 67.0428 268.487C67.0471 268.487 67.0513 268.486 67.0555 268.486L84.8885 266.275C137.414 259.766 144.056 259.253 167.968 259.786C177.778 260.006 195.803 260.196 204.9 260.283C208.767 260.32 211.808 257.009 211.41 253.151C210.728 246.521 209.535 235.053 208.439 225.081C207.891 220.095 207.366 215.479 206.942 212.026C206.73 210.3 206.541 208.857 206.387 207.8C206.31 207.273 206.239 206.829 206.177 206.49C206.166 206.432 206.155 206.375 206.144 206.32C206.124 206.216 206.103 206.118 206.082 206.03C206.058 205.93 206.009 205.729 205.922 205.541C205.848 205.379 205.72 205.128 205.514 204.905C205.336 204.711 204.747 204.179 203.885 204.413C203.179 204.605 202.887 205.182 202.817 205.325C202.706 205.551 202.642 205.784 202.602 205.964C202.445 206.662 202.372 207.813 202.345 209.246C202.29 212.196 202.423 216.902 202.744 223.069ZM202.744 223.069L204.242 222.991L202.744 223.069C202.744 223.069 202.744 223.069 202.744 223.069ZM13.3763 19.6163C14.106 18.6293 15.1614 17.9513 17.4164 16.9852L20.846 235.734L21.9069 236.794C21.9071 236.794 21.9073 236.794 21.9075 236.794C22.2135 236.487 22.3043 236.134 22.3258 236.051L22.327 236.046C22.3628 235.908 22.3785 235.78 22.3869 235.692C22.4041 235.51 22.406 235.309 22.4024 235.116C22.3952 234.721 22.3608 234.196 22.3065 233.575C22.1972 232.324 21.9975 230.578 21.7263 228.472C21.1832 224.255 20.3457 218.54 19.3451 212.341C8.76063 146.76 6.15656 117.725 7.34125 78.913L5.84212 78.8672L7.34125 78.913C8.40261 44.1278 9.08345 35.2486 11.3608 25.3115L11.3609 25.3113C12.0693 22.2179 12.6033 20.6617 13.3763 19.6163ZM21.88 234.824C21.8797 234.824 21.8752 234.817 21.8666 234.801C21.8759 234.815 21.8803 234.823 21.88 234.824ZM19.7852 234.673L19.7846 234.674C19.7848 234.674 19.785 234.674 19.7852 234.673ZM101.802 78.1829L101.8 78.183C101.525 78.2029 101.317 78.2913 101.222 78.3356C101.11 78.388 101.017 78.4452 100.952 78.4886C100.823 78.5753 100.702 78.6743 100.603 78.7612C100.398 78.9395 100.161 79.1738 99.9077 79.4384C99.3944 79.9738 98.7254 80.7257 97.953 81.629C96.404 83.4408 94.3899 85.9203 92.281 88.6336C88.0848 94.0304 82.9745 100.235 80.9307 102.42C79.8101 103.619 78.8476 104.934 78.1968 106.113C77.8728 106.699 77.604 107.292 77.4401 107.847C77.2936 108.343 77.1529 109.06 77.3833 109.75C77.594 110.383 78.1061 111.043 79.0106 111.195C79.7245 111.314 80.3771 111.049 80.8187 110.817C81.7515 110.325 82.8868 109.347 84.198 108.03C86.8745 105.341 90.7633 100.74 96.032 94.0855C98.0084 91.5899 99.9102 89.3295 101.378 87.7015C102.114 86.8844 102.725 86.2449 103.173 85.8188C103.256 85.7398 103.329 85.6715 103.394 85.6132C103.41 85.6193 103.426 85.6259 103.442 85.6328C103.724 85.7507 104.094 85.9419 104.554 86.2186C105.472 86.7711 106.638 87.5972 108.005 88.6617C110.732 90.7859 114.149 93.7739 117.788 97.1921C125.07 104.034 133.135 112.499 138.213 119.032L144.82 127.53L145.344 128.203L146.19 128.098L153.904 127.133C156.036 126.867 158.173 126.789 159.949 126.877C160.837 126.921 161.615 127.006 162.244 127.122C162.897 127.243 163.299 127.382 163.498 127.488C166.437 129.063 169.742 133.056 173.878 141.074C177.977 149.02 182.756 160.635 188.781 177.059L188.781 177.06C189.504 179.031 190.337 180.848 191.11 182.196C191.493 182.864 191.888 183.464 192.275 183.917C192.467 184.142 192.693 184.374 192.951 184.562C193.179 184.728 193.609 184.992 194.175 184.992C194.431 184.992 194.661 184.934 194.78 184.902C194.93 184.862 195.09 184.81 195.25 184.753C195.571 184.638 195.966 184.477 196.414 184.283C197.314 183.894 198.501 183.338 199.887 182.661C202.661 181.307 206.278 179.444 210.073 177.398L210.073 177.398C214.536 174.99 218.089 173.273 220.665 172.258C221.958 171.748 222.954 171.436 223.669 171.292C224.026 171.221 224.268 171.201 224.414 171.204C224.434 171.204 224.451 171.205 224.464 171.206C225.961 172.112 228.616 174.225 230.968 176.301C232.155 177.348 233.226 178.351 233.991 179.137C234.377 179.534 234.66 179.851 234.838 180.078C234.874 180.124 234.902 180.161 234.923 180.19C234.929 180.214 234.935 180.233 234.939 180.247C234.965 180.338 234.996 180.42 235.021 180.484C235.073 180.612 235.137 180.748 235.203 180.88C235.337 181.149 235.524 181.49 235.749 181.884C236.202 182.679 236.849 183.756 237.638 185.034C239.218 187.594 241.394 190.999 243.784 194.634C246.147 198.229 248.401 201.98 250.124 205.119C250.986 206.689 251.709 208.095 252.245 209.244C252.797 210.429 253.101 211.238 253.193 211.657L253.193 211.658C253.477 212.949 253.895 214.16 254.366 215.083C254.598 215.538 254.873 215.984 255.193 216.339C255.453 216.627 256.027 217.177 256.871 217.177C257.936 217.177 259.16 216.882 259.862 215.755C260.497 214.736 260.403 213.478 260.129 212.354C259.567 210.042 257.825 206.669 255.05 202.148L255.05 202.148C251.7 196.691 246.7 188.42 243.942 183.772C240.823 178.515 237.214 173.768 233.861 170.314C232.186 168.589 230.545 167.156 229.033 166.142C227.571 165.163 226.027 164.436 224.592 164.436C224.208 164.436 223.78 164.518 223.388 164.612C222.971 164.713 222.489 164.856 221.961 165.031C220.902 165.38 219.592 165.877 218.125 166.48C215.187 167.688 211.554 169.348 207.927 171.171C201.925 174.186 198.782 175.682 196.987 176.183C196.095 176.431 195.847 176.337 195.835 176.332C195.832 176.331 195.83 176.33 195.825 176.326C195.818 176.322 195.801 176.308 195.773 176.276C195.709 176.204 195.619 176.075 195.491 175.833L195.491 175.832C195.163 175.212 194.025 172.556 192.418 168.654C190.831 164.8 188.826 159.833 186.787 154.683C181.344 140.937 176.53 131.718 171.291 126.212C168.645 123.432 165.857 121.562 162.793 120.548C159.731 119.534 156.494 119.41 153.002 119.968L153.002 119.968C150.23 120.412 149.282 120.427 148.331 119.903C147.807 119.615 147.202 119.11 146.356 118.188C145.512 117.269 144.506 116.023 143.157 114.319C137.544 107.233 128.538 98.1985 120.411 90.9844C116.343 87.3742 112.466 84.1931 109.315 81.9244C107.743 80.7924 106.321 79.8655 105.129 79.2249C104.533 78.9049 103.965 78.6402 103.444 78.4583C102.948 78.2854 102.372 78.1427 101.802 78.1829ZM224.372 171.151L224.373 171.152L224.372 171.151ZM234.976 180.269C234.991 180.295 234.985 180.29 234.969 180.258C234.972 180.263 234.974 180.267 234.976 180.269ZM244.273 228.311C244.062 228.474 243.897 228.476 243.992 228.461C244.051 228.452 244.196 228.442 244.452 228.457C244.469 228.458 244.486 228.459 244.503 228.46C244.423 228.409 244.346 228.36 244.273 228.311ZM22.9891 240.381C22.9892 240.382 22.9884 240.385 22.9866 240.392C22.9881 240.384 22.9891 240.381 22.9891 240.381Z" fill="black" stroke="black" stroke-width="3"/>
</svg>
