<svg width="380" height="342" viewBox="0 0 380 342" fill="none" xmlns="http://www.w3.org/2000/svg">
<path fill-rule="evenodd" clip-rule="evenodd" d="M193.176 0.399664C191.169 0.95773 189.119 2.35003 188.901 3.30467C188.677 4.28176 184.496 8.20352 179.363 12.2519C177.318 13.8644 176.13 14.9743 174.117 17.1536C173.268 18.0733 171.224 19.781 169.576 20.9482C167.928 22.1155 166.254 23.482 165.855 23.9851C165.456 24.4882 164.458 25.2914 163.637 25.7701C161.918 26.7711 159.061 30.1931 159.061 31.25C159.061 31.6432 158.872 31.9652 158.642 31.9652C158.412 31.9652 158.223 31.7502 158.223 31.4874C158.223 31.2247 158.031 31.0096 157.796 31.0096C157.353 31.0096 150.877 36.5119 148.987 38.4938C148.396 39.1131 147.15 40.2091 146.219 40.9287C142.471 43.8246 140.34 45.6971 138.138 48.0297C136.868 49.3761 135.169 50.8582 134.363 51.3241C133.558 51.7899 132.239 52.908 131.433 53.8096C130.627 54.7107 129.403 55.7843 128.712 56.1957C128.022 56.6076 127.361 57.1097 127.245 57.3128C127.129 57.5154 125.716 58.697 124.106 59.9383C122.495 61.1796 120.612 62.7773 119.922 63.4888C119.231 64.2007 117.994 65.2399 117.173 65.7984C116.352 66.3565 115.326 67.2605 114.893 67.8066C114.46 68.3532 113.436 69.1549 112.618 69.5888C110.787 70.5606 107.725 73.1116 104.514 76.3429C103.177 77.6884 101.878 78.7892 101.629 78.7892C100.902 78.7892 97.1324 82.2499 96.8829 83.1467C96.7578 83.5968 96.0721 84.1974 95.3593 84.4807C94.6464 84.7645 93.0699 85.9652 91.856 87.1487C90.6421 88.3322 89.5382 89.3007 89.4026 89.3007C88.8484 89.3007 84.258 93.7003 83.1521 95.2913C82.4987 96.2321 81.5095 97.1987 80.9549 97.4395C79.7627 97.9569 78.275 100.547 78.2729 102.11C78.2721 102.735 78.0871 103.083 77.846 102.913C77.612 102.748 77.5287 102.413 77.6614 102.168C78.221 101.135 75.8187 101.83 74.8907 102.97C74.3327 103.656 72.9341 104.925 71.783 105.79C70.6318 106.656 68.8469 108.264 67.8164 109.365C66.7858 110.466 65.4438 111.661 64.8343 112.021C64.2248 112.381 62.9238 113.769 61.943 115.105C60.9627 116.442 59.4792 117.935 58.6461 118.422C57.8136 118.91 56.7214 119.813 56.2191 120.43C55.7172 121.047 55.0579 121.774 54.754 122.045C52.4425 124.112 47.6303 128.904 43.9463 132.808C41.5289 135.37 38.4689 138.465 37.147 139.686C35.8246 140.906 34.6337 142.401 34.5006 143.006C34.3675 143.611 33.7115 144.407 33.043 144.774C31.5273 145.606 25.3785 151.58 21.7614 155.734C20.2645 157.453 18.3804 159.366 17.5746 159.983C16.7688 160.602 15.6386 161.676 15.063 162.371C13.9182 163.755 10.1855 167.042 6.90037 169.561C2.0664 173.266 1.42428 173.854 0.726055 175.217C-0.0655132 176.761 -0.268952 179.604 0.412107 179.604C0.642335 179.604 0.830704 179.951 0.830704 180.376C0.830704 180.8 1.52935 181.878 2.38329 182.77L3.93544 184.394L3.14806 185.941C2.71482 186.792 1.8278 188.235 1.17688 189.15C-0.604669 191.651 -0.222487 193.723 1.81232 192.595C2.30835 192.321 3.3808 191.971 4.19539 191.819C6.24903 191.437 10.1202 189.078 13.5979 186.089C18.9229 181.513 21.3014 179.604 21.6769 179.604C21.8803 179.604 23.1373 178.261 24.4697 176.618C25.9185 174.832 26.9692 173.874 27.0839 174.236C27.2166 174.653 27.7507 174.413 28.8089 173.462C29.652 172.704 31.4427 171.513 32.7885 170.813C34.4135 169.969 35.1624 169.324 35.018 168.894C34.7195 168.007 35.797 166.366 37.2345 165.518C39.0679 164.436 39.7603 163.425 39.7603 161.833C39.7603 160.633 39.8645 160.474 40.3505 160.934C40.8264 161.385 41.2522 161.068 42.5481 159.296C43.4322 158.087 45.0246 156.461 46.0861 155.682C47.8434 154.393 50.3349 151.494 52.7845 147.889C53.6263 146.65 54.1157 146.012 56.3974 143.172C56.7671 142.713 57.2869 142.336 57.5532 142.336C57.8194 142.336 58.2698 141.84 58.554 141.234C58.8383 140.627 59.9003 139.391 60.9137 138.486C61.9271 137.581 62.8664 136.474 63.0012 136.026C63.136 135.578 63.825 134.655 64.5325 133.976C65.697 132.858 65.8854 132.81 66.5258 133.472C66.9151 133.873 67.8159 134.335 68.5276 134.498C70.0621 134.848 70.7365 133.835 70.7365 131.179C70.7365 129.14 71.1128 127.916 71.6281 128.279C71.8399 128.429 71.9613 128.334 71.8981 128.07C71.7683 127.526 78.188 119.402 78.7472 119.402C79.2282 119.402 82.4572 115.806 82.4572 115.27C82.4572 115.039 83.2124 114.317 84.1354 113.665C85.0588 113.014 85.9123 112.128 86.032 111.696C86.2627 110.866 89.1079 108.413 89.8392 108.413C90.0757 108.413 90.5324 107.851 90.8547 107.164C91.1766 106.477 92.6681 104.922 94.1696 103.708C97.3932 101.1 97.2253 101.243 99.6197 99.0449C100.656 98.0936 101.654 97.0171 101.838 96.6526C102.022 96.288 102.472 95.9899 102.838 95.9899C103.204 95.9899 104.301 95.1838 105.276 94.1981C107.998 91.4479 110.578 89.1383 111.813 88.3461C113.291 87.3972 115.945 84.6709 115.945 84.1009C115.945 83.8362 116.42 83.8056 117.096 84.0268C118.13 84.3655 118.505 84.1047 120.768 81.4773C123.59 78.1991 127.783 74.4929 131.106 72.339C132.322 71.5506 134.407 69.6695 135.739 68.1583C137.273 66.4181 138.512 65.4109 139.119 65.4109C140.055 65.4109 141.898 63.6455 141.898 62.7496C141.898 62.5021 142.416 62.0324 143.049 61.7052C143.683 61.3783 145.425 59.912 146.921 58.4466C148.418 56.9812 150.207 55.4518 150.898 55.0485C151.589 54.6448 152.719 53.7045 153.41 52.9591C154.1 52.2133 155.372 51.2672 156.235 50.8558C157.099 50.4449 157.805 49.9323 157.805 49.7168C157.805 49.5013 158.842 48.5089 160.11 47.5122C161.379 46.5151 162.984 44.9613 163.678 44.0592C164.567 42.9039 165.17 42.5025 165.72 42.7018C166.305 42.9139 167.568 41.815 170.765 38.3108C173.448 35.3714 175.523 33.4918 176.359 33.2448C177.09 33.0293 178.63 31.8104 179.781 30.5366C180.932 29.2628 182.669 27.7549 183.641 27.1849C184.614 26.6154 186.43 25.0821 187.677 23.7777C190.389 20.943 194.013 18.372 195.907 17.9396C197.037 17.6815 197.397 17.8167 197.94 18.704C199.595 21.4045 204.581 27.4391 206.921 29.5743C208.34 30.8687 209.878 32.3374 210.339 32.8377C213.186 35.9314 222.034 42.9579 223.774 43.5059C224.558 43.7529 225.199 44.2298 225.199 44.5661C225.199 45.2881 226.942 47.2547 227.582 47.2547C227.827 47.2547 228.261 47.5763 228.546 47.969C228.832 48.3622 229.756 48.9198 230.601 49.2084C231.537 49.529 232.395 50.2495 232.802 51.0575C233.28 52.0097 234.306 52.7479 236.455 53.6849C238.112 54.4078 239.637 55.4001 239.877 55.9128C240.115 56.4212 240.483 56.716 240.693 56.5674C241.012 56.3429 243.123 57.6277 246.995 60.4013C249.774 62.3908 253.312 65.0932 254.715 66.2968C255.639 67.089 256.863 67.9815 257.436 68.2796C259.389 69.2964 260.988 70.4436 262.108 71.6309C263.745 73.3658 265.669 74.9668 266.116 74.9668C266.331 74.9668 269.033 76.7098 272.12 78.8403C275.207 80.9708 278.11 82.8844 278.57 83.0927C279.031 83.301 280.122 84.0306 280.996 84.7139C281.869 85.3971 282.843 85.9561 283.159 85.9561C284.189 85.9561 285.058 86.5219 285.058 87.1927C285.058 87.5539 285.554 87.9911 286.16 88.1645C286.765 88.338 288.505 89.3098 290.025 90.3237C291.61 91.3806 293.339 92.1675 294.078 92.1675C295.024 92.1675 295.613 92.5483 296.294 93.6009C296.805 94.3892 297.453 95.0362 297.734 95.0386C298.014 95.0405 299.806 95.9005 301.716 96.9497C303.625 97.9985 305.353 98.8566 305.556 98.8566C305.759 98.8566 306.476 99.3865 307.15 100.034C307.824 100.682 309.581 101.794 311.054 102.506C312.527 103.217 314.038 104.093 314.411 104.452C314.784 104.811 316.643 105.853 318.542 106.767C320.441 107.681 322.52 108.855 323.161 109.376C323.802 109.898 324.433 110.324 324.564 110.324C324.694 110.324 325.795 110.835 327.01 111.46C328.226 112.085 329.974 112.882 330.895 113.23C331.816 113.579 332.958 114.25 333.433 114.722C333.909 115.193 334.493 115.579 334.732 115.579C334.97 115.579 336.051 116.117 337.134 116.774C338.216 117.431 339.281 117.968 339.5 117.968C339.719 117.968 341.639 118.91 343.768 120.062C347.528 122.095 352.745 124.703 354.232 125.293C354.635 125.453 354.964 125.805 354.964 126.076C354.964 126.347 355.351 126.569 355.823 126.569C356.295 126.569 357.379 126.978 358.23 127.477C359.082 127.977 360.532 128.649 361.452 128.969C362.373 129.29 363.409 129.834 363.755 130.177C364.1 130.519 365.325 131.16 366.476 131.601C367.627 132.041 368.851 132.676 369.197 133.011C369.542 133.346 371.194 134.421 372.868 135.401C375.301 136.825 376.031 137.067 376.513 136.611C376.879 136.265 377.616 136.166 378.389 136.359C379.618 136.667 380.165 136.059 379.243 135.408C378.575 134.937 378.759 133.736 379.499 133.736C380.059 133.736 380.116 133.433 379.835 131.944C379.649 130.959 379.524 129.406 379.556 128.493C379.635 126.272 378.218 123.771 376.354 122.841C375.525 122.429 374.706 122.131 374.534 122.18C374.361 122.228 374.22 122.052 374.22 121.787C374.22 121.202 369.344 118.446 368.31 118.446C367.904 118.446 367.464 118.248 367.333 118.005C367.202 117.763 366.5 117.415 365.773 117.233C365.047 117.051 363.872 116.498 363.162 116.004C362.452 115.51 361.645 115.105 361.369 115.104C361.093 115.103 360.029 114.457 359.006 113.668C357.982 112.88 356.68 112.235 356.111 112.235C355.542 112.235 354.628 111.835 354.079 111.347C352.697 110.117 350.531 108.89 349.744 108.89C349.383 108.89 348.385 108.387 347.526 107.771C346.667 107.156 344.363 105.837 342.406 104.841C340.449 103.844 338.106 102.628 337.2 102.137C336.293 101.647 335.351 101.239 335.107 101.231C334.862 101.222 333.537 100.577 332.161 99.7974C330.786 99.0172 329.373 98.3741 329.022 98.3683C328.67 98.3626 327.912 97.9373 327.337 97.4232C326.761 96.9091 325.761 96.4839 325.114 96.4781C324.468 96.4724 324.035 96.2894 324.153 96.0716C324.505 95.4222 306.126 84.5185 304.684 84.5213C304.313 84.5223 303.559 84.1276 303.01 83.6446C301.949 82.7114 299.731 81.3722 291.337 76.5971C287.556 74.446 285.96 73.7571 285.582 74.113C285.206 74.4666 285.058 74.4159 285.058 73.9329C285.058 73.1866 281.849 70.1889 281.05 70.1889C280.772 70.1889 280.432 69.8582 280.296 69.454C280.16 69.0498 279.151 68.2357 278.054 67.6451C276.274 66.6876 274.346 65.4343 271.857 63.6168C271.405 63.2866 270.188 62.5341 269.152 61.9445C268.116 61.3544 267.117 60.6034 266.933 60.2746C266.749 59.9464 266.298 59.6774 265.93 59.6774C265.562 59.6774 264.465 58.9325 263.491 58.0223C262.518 57.1116 261.18 56.0925 260.518 55.7571C259.856 55.4216 258.669 54.6562 257.881 54.0561C257.092 53.4555 256.246 53.0413 256 53.1345C255.755 53.2281 255.359 52.8568 255.12 52.3103C254.844 51.6786 254.041 51.1602 252.919 50.8898C251.947 50.6552 251.152 50.2089 251.152 49.8979C251.152 49.0092 249.571 47.6212 245.501 44.935C243.429 43.568 241.526 42.2942 241.273 42.1045C241.019 41.9153 239.983 41.1232 238.971 40.3448C237.958 39.5665 236.47 38.545 235.664 38.0748C234.858 37.6047 233.277 36.2482 232.151 35.0599C230.162 32.9619 230.074 32.9218 229.08 33.6652C228.517 34.0862 227.933 34.2897 227.783 34.1177C227.631 33.9457 227.852 33.585 228.273 33.3164C229.012 32.8439 229.012 32.8028 228.269 32.0383C227.445 31.1903 223.61 28.3134 221.779 27.1691C220.463 26.3463 213.492 19.8407 211.385 17.4684C210.579 16.5611 209.073 14.4846 208.036 12.8539C207 11.2236 205.765 9.42762 205.29 8.86286C204.816 8.29859 203.797 6.70943 203.025 5.33195C201.46 2.54019 200.19 1.38631 198.684 1.38631C198.128 1.38631 196.998 1.0638 196.171 0.66962C195.345 0.275439 194.615 -0.0250997 194.55 0.00165684C194.485 0.0288912 193.867 0.207591 193.176 0.399664ZM172.723 36.9821C172.59 37.3763 172.644 37.6988 172.842 37.6988C173.041 37.6988 173.312 37.3763 173.444 36.9821C173.577 36.5879 173.523 36.2654 173.325 36.2654C173.126 36.2654 172.855 36.5879 172.723 36.9821ZM235.849 40.3419C236.499 40.9034 236.53 41.0434 236.005 41.0434C235.643 41.0434 235.113 40.7208 234.827 40.3267C234.164 39.415 234.786 39.4241 235.849 40.3419ZM139.386 50.1215C139.386 50.3843 139.093 50.5993 138.734 50.5993C138.375 50.5993 138.198 50.3843 138.34 50.1215C138.482 49.8587 138.776 49.6437 138.993 49.6437C139.209 49.6437 139.386 49.8587 139.386 50.1215ZM238.176 50.0933C238.176 50.3408 237.987 50.6757 237.757 50.8382C237.527 51.0006 237.338 50.798 237.338 50.3886C237.338 49.9791 237.527 49.6437 237.757 49.6437C237.987 49.6437 238.176 49.8458 238.176 50.0933ZM244.036 51.0188C244.036 51.2491 243.753 51.7054 243.408 52.0327C242.727 52.6782 242.641 52.5238 243.034 51.3551C243.303 50.5548 244.036 50.3088 244.036 51.0188ZM137.294 51.7938C137.007 52.1879 136.56 52.5038 136.301 52.4952C136.041 52.487 136.194 52.1645 136.641 51.7785C137.685 50.8774 137.955 50.8836 137.294 51.7938ZM257.431 55.855C257.431 56.4537 256.987 56.4537 256.175 55.855C255.667 55.4804 255.728 55.3906 256.489 55.3844C257.007 55.3806 257.431 55.5922 257.431 55.855ZM259.524 66.6618C259.524 67.056 259.336 67.2457 259.105 67.0832C258.875 66.9208 258.687 66.4654 258.687 66.0713C258.687 65.6771 258.875 65.4874 259.105 65.6498C259.336 65.8123 259.524 66.2676 259.524 66.6618ZM264.722 69.5405C265.106 70.6844 264.806 70.7723 264.214 69.6896C263.933 69.176 263.873 68.7555 264.08 68.7555C264.288 68.7555 264.576 69.1086 264.722 69.5405ZM278.219 71.2639C278.103 71.5927 278.008 71.3237 278.008 70.6667C278.008 70.0097 278.103 69.7412 278.219 70.0694C278.336 70.3982 278.336 70.9357 278.219 71.2639ZM129.131 72.1001C129.273 72.3629 129.096 72.5779 128.737 72.5779C128.378 72.5779 128.084 72.3629 128.084 72.1001C128.084 71.8373 128.261 71.6223 128.478 71.6223C128.695 71.6223 128.989 71.8373 129.131 72.1001ZM284.64 74.9668C284.64 75.4977 284.361 75.9224 284.012 75.9224C283.375 75.9224 283.153 74.9119 283.663 74.3299C284.194 73.7241 284.64 74.0151 284.64 74.9668ZM275.012 77.8336C275.012 78.0964 274.812 78.3114 274.569 78.3114C274.325 78.3114 274.242 78.0964 274.384 77.8336C274.527 77.5708 274.726 77.3558 274.827 77.3558C274.929 77.3558 275.012 77.5708 275.012 77.8336ZM278.552 80.1896C278.685 80.4343 278.602 80.7692 278.368 80.9345C278.134 81.0993 277.942 80.8992 277.942 80.4897C277.942 79.6502 278.193 79.5269 278.552 80.1896ZM296.361 89.3007C296.361 89.5635 296.172 89.7785 295.942 89.7785C295.712 89.7785 295.523 89.5635 295.523 89.3007C295.523 89.0379 295.712 88.8229 295.942 88.8229C296.172 88.8229 296.361 89.0379 296.361 89.3007ZM318.698 94.7954C318.839 95.2163 318.703 95.5121 318.369 95.5121C318.055 95.5121 317.69 95.1895 317.557 94.7954C317.416 94.3744 317.552 94.0787 317.887 94.0787C318.2 94.0787 318.565 94.4012 318.698 94.7954ZM304.128 105.466C299.921 106.621 299.819 106.897 299.022 119.252C298.669 124.722 298.27 132.529 298.135 136.602C297.284 162.356 298.187 200.595 299.881 210.545C300.228 212.58 300.701 217.362 300.933 221.172C301.165 224.983 301.549 229.283 301.787 230.728C302.369 234.271 303.418 241.912 304.083 247.451C304.383 249.948 305.031 254.355 305.525 257.246C306.449 262.66 306.516 263.033 308.225 272.296C308.782 275.319 309.479 279.404 309.772 281.375C310.428 285.783 311.234 290.042 311.917 292.707C312.201 293.816 312.336 294.834 312.217 294.97C312.098 295.105 310.507 295.45 308.681 295.736C300.72 296.98 288.849 299.158 286.733 299.762C285.467 300.123 283.3 300.667 281.919 300.969C278.76 301.661 276.358 302.248 275.012 302.656C274.437 302.83 273.024 303.139 271.873 303.343C270.721 303.547 269.215 303.942 268.524 304.221C267.193 304.758 255.303 307.547 252.826 307.902C252.021 308.018 250.514 308.313 249.478 308.558C245.061 309.601 241.202 310.461 239.641 310.751C238.72 310.922 237.024 311.268 235.873 311.52C234.722 311.772 233.215 312.071 232.524 312.184C231.834 312.297 229.668 312.719 227.711 313.122C225.754 313.525 222.392 314.183 220.241 314.584C218.09 314.985 215.924 315.561 215.427 315.864C214.931 316.167 214.475 316.358 214.416 316.288C214.161 315.993 202.258 317.761 198.466 318.657C197.398 318.909 194.83 319.345 192.758 319.625C190.686 319.905 187.578 320.343 185.851 320.597C184.124 320.852 181.487 321.163 179.99 321.289C178.494 321.415 175.574 321.736 173.502 322.002C168.842 322.6 162.109 323.205 149.704 324.138C144.443 324.534 139.993 324.96 139.816 325.085C139.639 325.21 136.903 325.655 133.736 326.074C123.234 327.464 119.577 328.691 117.488 331.525C116.009 333.53 115.718 335.044 116.374 337.312C116.999 339.474 117.584 340.114 120.042 341.329C121.673 342.135 122.247 342.167 126.321 341.68C128.787 341.385 132.877 340.706 135.41 340.17C137.942 339.635 140.746 339.195 141.64 339.192C142.534 339.19 143.947 338.983 144.78 338.733C145.612 338.482 149.401 337.916 153.2 337.476C156.999 337.036 160.578 336.457 161.154 336.188C161.729 335.92 163.613 335.645 165.34 335.576C167.066 335.506 169.986 335.223 171.828 334.945C173.67 334.668 176.684 334.333 178.525 334.2C180.367 334.067 182.439 333.878 183.13 333.779C187.222 333.194 189.071 332.818 189.697 332.442C190.131 332.182 190.505 332.204 190.664 332.497C190.807 332.761 191.489 332.977 192.18 332.977C193.667 332.977 197.665 331.575 198.049 330.92C198.197 330.668 198.971 330.601 199.77 330.772C200.796 330.992 201.371 330.88 201.727 330.391C202.004 330.009 202.737 329.694 203.354 329.689C205.107 329.676 211.786 328.785 214.106 328.256C215.257 327.993 216.938 327.765 217.84 327.749C218.743 327.734 219.81 327.382 220.211 326.967C220.685 326.478 221.976 326.152 223.894 326.036C225.519 325.939 227.207 325.639 227.646 325.371C228.084 325.103 229.773 324.791 231.399 324.677C233.026 324.563 234.57 324.318 234.833 324.133C235.095 323.948 236.827 323.704 238.683 323.591C240.538 323.478 242.395 323.178 242.809 322.925C243.223 322.672 244.192 322.465 244.962 322.465C245.843 322.465 246.627 322.111 247.078 321.509C247.611 320.8 248.313 320.554 249.808 320.554C250.916 320.554 252.049 320.295 252.326 319.979C252.63 319.632 254.359 319.361 256.684 319.296C259.624 319.214 260.653 319.01 261.019 318.438C261.292 318.012 262.115 317.686 262.919 317.684C263.699 317.683 265.468 317.458 266.849 317.184C268.231 316.911 269.907 316.596 270.574 316.484C271.906 316.261 274.562 315.343 275.221 314.877C275.452 314.714 276.676 314.558 277.942 314.53C281.825 314.444 289.034 313.062 291.671 311.899C292.2 311.666 293.349 311.476 294.225 311.476C295.101 311.476 296.363 311.275 297.031 311.029C297.698 310.783 299.597 310.483 301.249 310.361C302.902 310.24 304.498 309.969 304.794 309.76C305.506 309.258 310.121 308.787 320.881 308.117C328.454 307.645 330.001 307.668 331.799 308.277C334.385 309.154 337.615 308.822 338.716 307.566C339.15 307.069 339.669 306.778 339.868 306.918C340.498 307.362 342.825 303.884 342.825 302.497C342.825 299.188 340.937 295.837 338.471 294.772C337.72 294.448 331.714 293.542 331.104 293.661C328.884 294.095 324.023 294.249 323.829 293.891C323.691 293.636 323.515 290.661 323.439 287.281C323.362 283.901 323.091 280.695 322.836 280.156C322.582 279.617 322.066 276.452 321.69 273.122C321.314 269.792 320.829 266.364 320.613 265.504C320.397 264.645 320.221 263.16 320.221 262.205C320.221 261.25 319.945 259.715 319.608 258.794C319.27 257.873 318.908 255.857 318.801 254.316C318.694 252.774 318.203 249.577 317.708 247.212C317.214 244.847 316.717 241.729 316.604 240.284C316.491 238.839 316.235 237.226 316.035 236.701C315.835 236.175 315.57 234.563 315.446 233.117C315.323 231.672 315.012 229.199 314.756 227.623C314.501 226.046 314.289 223.788 314.286 222.606C314.284 221.423 314.091 218.413 313.858 215.917C313.625 213.42 313.365 210.302 313.28 208.989C312.962 204.06 312.802 203.257 312.112 203.101C311.31 202.919 311.255 202.371 311.899 200.997C312.657 199.382 312.876 193.851 312.205 193.25C311.775 192.865 311.639 191.031 311.639 185.577C311.639 181.635 311.56 174.324 311.464 169.331C311.367 164.339 311.303 155.846 311.321 150.459C311.34 145.071 311.351 140.449 311.347 140.186C311.33 139.246 312.741 126.271 313.191 123.224C313.967 117.975 314.056 112.584 313.408 110.03C312.957 108.251 312.395 107.327 311.044 106.143C309.041 104.388 308.316 104.316 304.128 105.466ZM84.6461 119.634C81.1202 121.498 81.1035 121.638 82.4484 137.797C83.762 153.572 84.0634 161.096 84.315 184.382C84.3987 192.134 84.6017 201.595 84.7662 205.405C84.9307 209.215 85.0952 217.923 85.1321 224.756C85.2886 253.846 87.1325 279.659 89.8036 290.153C90.1293 291.434 90.3022 292.655 90.187 292.867C90.0724 293.08 90.1699 293.388 90.4039 293.554C90.6379 293.718 90.8317 294.325 90.8346 294.9C90.8375 295.476 91.2072 297.237 91.6559 298.814C94.5409 308.951 96.4539 313.086 100.425 317.767L103.6 321.509H107.06C110.005 321.509 110.76 321.336 112.135 320.345C113.738 319.191 113.749 319.161 113.696 316.228L113.643 313.274L111.85 312.473C109.425 311.39 108.386 309.983 106.315 304.979C103.975 299.324 103.746 298.661 103.367 296.425C103.188 295.374 102.72 293.546 102.326 292.364C101.236 289.089 100.842 287.239 100.295 282.808C99.9634 280.126 99.6214 278.787 99.2878 278.866C98.9533 278.945 98.7825 278.267 98.7825 276.859C98.7825 275.479 98.5653 274.594 98.163 274.337C97.6465 274.007 97.6134 273.446 97.9633 270.964C98.3459 268.253 98.3041 267.865 97.4932 266.613C96.5933 265.224 96.6682 263.118 97.6096 263.347C98.4313 263.548 98.7792 260.653 98.572 255.335C98.459 252.444 98.366 249.983 98.3656 249.867C98.3648 249.75 97.893 250.383 97.3174 251.273C96.219 252.973 95.8699 252.323 96.7272 250.175C97.0491 249.369 97.055 248.503 96.7482 247.233C96.4145 245.855 96.4447 245.194 96.8762 244.412C97.502 243.277 98.0094 235.506 97.4577 235.506C97.2655 235.506 97.1081 235.171 97.1081 234.761C97.1081 234.352 97.2869 234.143 97.5054 234.297C97.7243 234.451 98.0278 233.818 98.1806 232.889C98.3798 231.676 98.2547 230.848 97.7344 229.942C97.0491 228.748 97.0491 228.497 97.736 225.168C98.4954 221.487 98.325 216.394 97.4426 216.394C97.1458 216.394 97.0851 215.019 97.2584 212.214C97.9361 201.254 98.0223 196.805 97.5577 196.805C97.299 196.805 96.9235 197.297 96.7226 197.899C96.2563 199.3 95.1742 200.352 94.8381 199.731C94.5112 199.127 96.155 195.954 97.091 195.382C97.7302 194.992 97.8005 194.237 97.6858 189.009C97.6142 185.747 97.3543 182.053 97.1086 180.8C96.7816 179.136 96.7913 178.072 97.1437 176.853C97.5012 175.616 97.5058 174.736 97.1609 173.452C96.9047 172.5 96.5966 167.205 96.4752 161.687C96.2023 149.251 96.1131 147.58 95.6619 146.453C95.4375 145.893 95.5807 143.86 96.0399 141.077C96.4459 138.615 96.6477 136.225 96.4874 135.765C96.327 135.306 96.0336 132.845 95.8343 130.296C95.4321 125.141 94.6539 122.907 92.4358 120.538C90.4529 118.42 87.5733 118.086 84.6461 119.634ZM373.603 121.699C373.474 121.846 373.136 121.699 372.852 121.372C372.442 120.9 372.49 120.846 373.087 121.105C373.499 121.284 373.732 121.551 373.603 121.699ZM51.0624 148.07C51.0624 148.332 50.874 148.547 50.6438 148.547C50.4136 148.547 50.2252 148.332 50.2252 148.07C50.2252 147.807 50.4136 147.592 50.6438 147.592C50.874 147.592 51.0624 147.807 51.0624 148.07ZM48.2888 151.668C48.4533 152.158 48.1812 152.554 47.4692 152.863C45.4402 153.743 44.8776 153.018 46.5512 151.68C47.7128 150.751 47.9799 150.75 48.2888 151.668ZM96.2634 219.038C95.9758 219.652 95.8423 220.598 95.9666 221.142C96.091 221.685 96.0219 222.009 95.8134 221.861C95.2491 221.463 95.3538 218.11 95.9516 217.427C96.7059 216.567 96.9152 217.648 96.2634 219.038ZM97.5267 248.407C97.5267 248.669 97.7151 248.884 97.9453 248.884C98.1756 248.884 98.3639 248.669 98.3639 248.407C98.3639 248.144 98.1756 247.929 97.9453 247.929C97.7151 247.929 97.5267 248.144 97.5267 248.407ZM97.7541 265.574C97.6214 265.819 97.7047 266.154 97.9386 266.319C98.1726 266.484 98.3639 266.284 98.3639 265.874C98.3639 265.035 98.1128 264.912 97.7541 265.574ZM319.251 267.131C319.117 267.511 319.018 267.398 318.998 266.841C318.98 266.338 319.079 266.056 319.218 266.215C319.357 266.373 319.372 266.786 319.251 267.131Z" fill="black"/>
</svg>
