<svg width="284" height="309" viewBox="0 0 284 309" fill="none" xmlns="http://www.w3.org/2000/svg">
<mask id="path-1-outside-1_531_1650" maskUnits="userSpaceOnUse" x="0.125488" y="0.0439453" width="284" height="309" fill="black">
<rect fill="white" x="0.125488" y="0.0439453" width="284" height="309"/>
<path fill-rule="evenodd" clip-rule="evenodd" d="M47.1072 44.7157C61.3102 27.1313 75.6645 17.9842 108.345 5.69956C118.253 1.97572 175.826 2.24025 182.437 6.04062C184.933 7.47554 193.222 11.9228 200.855 15.9232C218.444 25.1397 223.285 29.2672 234.692 44.7835C239.775 51.6955 247.199 61.4059 251.194 66.3629C269.499 89.0886 279.975 117.154 280.29 144.315C280.518 163.938 277.501 183.618 272.289 196.494C256.283 236.049 250.674 245.499 232.463 263.587C198.212 297.604 156.507 311.197 112.327 302.743C85.8959 297.685 56.2014 278.575 37.8425 254.809C30.4037 245.18 17.1014 223.276 17.0736 220.613C16.453 219.281 9.42383 204.144 8.94093 200.769C3.36267 184.83 1.37352 153.368 4.8495 136.057C12.1162 99.8723 24.928 72.1792 47.1072 44.7157ZM163.974 49.8326C166.447 50.9597 168.104 52.8348 167.659 53.9984C167.146 55.3307 172.157 58.117 181.215 61.5382C198.037 67.8884 208.14 75.8682 213.904 87.3563C216.182 91.8994 219.414 97.681 221.087 100.205C222.758 102.73 226.062 112.122 228.428 121.076C230.795 130.032 233.666 139.683 234.81 142.523C237.627 149.522 236.761 178.772 233.436 188.897C228.354 204.373 205.493 230.885 190.94 238.181C174.529 246.408 165.395 248.354 148.478 247.226C114.398 244.951 93.5331 236.143 69.5125 213.887C54.1097 199.616 51.9135 194.203 51.8839 170.404C51.8144 117.836 66.146 88.2016 103.128 64.4427C119.421 53.9739 125.679 51.0171 128.912 52.2572C130.204 52.7546 132.266 51.9512 133.492 50.4727C136.234 47.1663 157.161 46.728 163.974 49.8326ZM97.3967 142.972C99.8259 137.927 119.711 112.1 128.84 102.137C130.812 99.9853 132.876 98.2304 133.426 98.2374C134.308 98.2496 139.552 106.052 166.942 148.119C173.218 157.758 173.303 158.113 170.517 162.831C168.946 165.493 163.035 172.98 157.382 179.471C147.992 190.253 144.151 196.395 141.564 204.755C140.277 208.918 137.036 208.606 137.036 204.321C137.036 202.407 136.059 200.832 134.862 200.82C133.668 200.807 131.124 198.56 129.211 195.829C127.298 193.097 120.059 183.331 113.126 174.13C106.194 164.927 100.52 156.864 100.52 156.212C100.52 155.56 99.2087 153.577 97.6072 151.806C94.9433 148.861 94.9258 148.108 97.3967 142.972ZM58.2202 76.2718C52.8211 68.7354 47.328 61.199 46.0134 59.524C44.6989 57.8491 43.16 56.4803 42.5949 56.4803C39.2458 56.4803 17.0545 98.6166 17.0545 104.975C17.0545 106.776 20.5566 107.123 43.8556 107.638C47.6967 107.724 50.9831 108.753 51.4039 110.004C51.9917 111.753 48.1383 111.976 33.0363 111.058L13.9263 109.896L10.7077 123.628C8.33237 133.764 7.52565 143.73 7.62477 161.708C7.74127 182.745 8.33238 187.716 11.9718 198.233C16.9397 212.591 17.4823 212.715 37.5922 204.03L50.3032 198.541L49.06 191.431C44.3876 164.712 50.7484 121.433 62.4857 100.076L68.0379 89.9757L58.2202 76.2718ZM122.481 27.4935C126.71 39.0172 128.263 43.2465 126.825 45.7765C125.991 47.2434 124.152 48.139 121.247 49.5539C120.645 49.8469 119.998 50.1622 119.305 50.5094C104.721 57.8127 82.3087 73.2402 76.2418 80.1522C73.1884 83.6291 70.081 85.7927 69.3368 84.9579C67.0346 82.3785 52.8715 63.2932 49.6668 58.4544C47.9992 55.9342 46.629 52.8887 46.6238 51.6852C46.6064 47.5926 70.0202 25.6789 79.6535 20.7723C89.1998 15.911 110.27 7.87036 113.561 7.83384C114.518 7.82166 117.794 14.6537 120.842 23.0162C121.426 24.6203 121.973 26.1095 122.481 27.4935ZM175.084 28.888C178.777 17.0173 181.406 13.9683 169.5 7.83384C164.986 5.50665 155.172 6.94494 139.834 6.36924L119.157 5.5936L120.132 9.7313C120.668 12.0063 123.648 20.6161 126.756 28.8656L132.403 43.8634L145.784 44.0355C153.141 44.1311 161.277 45.0132 163.861 45.9959C170.697 48.5962 171.813 48.2585 171.813 43.5902C171.813 41.2839 173.284 34.6677 175.084 28.888ZM195.994 17.9999C205.785 22.7447 215.582 28.9141 219.818 33.005C225.554 38.5429 250.062 70.3008 250.062 72.1949C250.062 72.9115 248.265 73.9463 246.071 74.4977C243.876 75.049 237.06 78.7451 230.924 82.7142C224.636 86.7772 219.489 89.0974 219.133 88.0277C217.055 81.794 201.763 66.5125 193.613 62.5226C188.586 60.0632 182.316 55.7986 179.68 53.0453L174.886 48.0394L177.849 34.7164C177.849 34.7164 180 17.5 184.827 12.9977C185.289 12.9977 190.314 15.2483 195.994 17.9999ZM94.4337 236.703C82.253 229.753 70.5157 220.677 58.4393 208.871C54.899 205.411 51.3779 202.63 50.6145 202.691C48.1279 202.888 23.2014 213.356 21.0192 215.122C19.3794 216.445 19.6819 218.376 22.3475 223.604C28.1345 234.948 39.4822 251.786 46.0099 258.709L52.1915 265.266L58.9436 252.059C68.789 232.802 71.4443 228.671 73.9778 228.671C75.4541 228.671 74.383 231.859 70.9122 237.802C67.9805 242.825 63.1709 251.607 60.2252 257.319L54.8712 267.706L61.6111 273.604C70.5141 281.396 79.2917 286.922 90.9716 292.089L100.551 296.326L104.596 288.153C106.82 283.659 110.476 274.893 112.721 268.675C116.804 257.366 121.284 248.859 122.508 250.085C122.866 250.444 121.628 254.576 119.755 259.27C108.418 287.699 105.759 295.472 106.978 296.605C109.383 298.834 126.436 301.722 137.213 301.722C148.603 301.722 171.173 297.208 172.778 294.609C173.331 293.715 169.255 283.697 163.722 272.347L153.663 251.708L146.153 251.556C142.023 251.473 138.018 251.019 137.253 250.546C136.488 250.073 131.459 249.259 126.079 248.735C114.827 247.643 111.16 246.248 94.4337 236.703ZM218.22 244.443C222.226 250.595 226.484 256.736 227.684 258.089C229.484 260.117 228.665 261.587 223.01 266.478C209.044 278.558 180.264 295.491 178.169 292.861C176.018 290.164 161.703 259.917 160.754 256.065C159.641 251.55 159.909 251.282 165.513 251.282C172.95 251.282 193.912 242.865 201.638 236.778C204.841 234.254 208.242 232.43 209.199 232.723C210.155 233.016 214.215 238.289 218.22 244.443ZM257.431 221.594L246.356 210.38C240.265 204.215 234.864 199.153 234.353 199.136C233.842 199.118 231.972 201.647 230.199 204.755C228.427 207.864 223.954 214.071 220.261 218.546C216.568 223.023 213.546 227.403 213.546 228.278C213.546 229.155 216.872 234.825 220.936 240.879C224.999 246.934 229.176 253.306 230.214 255.04C231.897 257.851 233.057 257.016 240.891 247.346C245.725 241.38 251.425 233.144 253.555 229.045L257.431 221.594ZM260.627 87.1495C265.797 96.1869 274.87 121.528 273.448 122.953C273.108 123.292 264.385 122.626 254.061 121.471C243.739 120.318 234.951 119.716 234.534 120.133C232.125 122.542 239.229 124.383 254.901 125.41C266.831 126.193 273.34 127.378 274.698 129.014C277.503 132.394 277.522 161.417 274.727 172.144C273.481 176.927 271.639 183.971 270.634 187.797C269.631 191.624 266.506 199.842 263.693 206.06L258.577 217.366L247.179 205.625C238.7 196.892 236.093 193.104 237.005 190.841C239.124 185.58 241.014 166.767 240.421 156.827C239.776 145.981 230.425 112.992 223.287 96.3797C222.447 94.423 224.683 91.9028 231.31 87.3458C249.832 74.6037 253.437 74.5796 260.627 87.1495ZM153.863 135.368C151.507 130.722 145.975 122.031 141.573 116.051C137.168 110.073 132.977 105.198 132.257 105.221C130.852 105.262 108.383 132.498 103.243 140.389C101.281 143.4 100.528 146.724 101.2 149.4C102.266 153.644 124.857 185.334 133.202 194.29L137.63 199.046L141.014 193.421C142.877 190.328 147.679 183.884 151.688 179.101C155.696 174.318 161.082 167.588 163.659 164.148L168.342 157.892L163.246 150.853C160.441 146.981 156.221 140.013 153.863 135.368Z"/>
</mask>
<path fill-rule="evenodd" clip-rule="evenodd" d="M47.1072 44.7157C61.3102 27.1313 75.6645 17.9842 108.345 5.69956C118.253 1.97572 175.826 2.24025 182.437 6.04062C184.933 7.47554 193.222 11.9228 200.855 15.9232C218.444 25.1397 223.285 29.2672 234.692 44.7835C239.775 51.6955 247.199 61.4059 251.194 66.3629C269.499 89.0886 279.975 117.154 280.29 144.315C280.518 163.938 277.501 183.618 272.289 196.494C256.283 236.049 250.674 245.499 232.463 263.587C198.212 297.604 156.507 311.197 112.327 302.743C85.8959 297.685 56.2014 278.575 37.8425 254.809C30.4037 245.18 17.1014 223.276 17.0736 220.613C16.453 219.281 9.42383 204.144 8.94093 200.769C3.36267 184.83 1.37352 153.368 4.8495 136.057C12.1162 99.8723 24.928 72.1792 47.1072 44.7157ZM163.974 49.8326C166.447 50.9597 168.104 52.8348 167.659 53.9984C167.146 55.3307 172.157 58.117 181.215 61.5382C198.037 67.8884 208.14 75.8682 213.904 87.3563C216.182 91.8994 219.414 97.681 221.087 100.205C222.758 102.73 226.062 112.122 228.428 121.076C230.795 130.032 233.666 139.683 234.81 142.523C237.627 149.522 236.761 178.772 233.436 188.897C228.354 204.373 205.493 230.885 190.94 238.181C174.529 246.408 165.395 248.354 148.478 247.226C114.398 244.951 93.5331 236.143 69.5125 213.887C54.1097 199.616 51.9135 194.203 51.8839 170.404C51.8144 117.836 66.146 88.2016 103.128 64.4427C119.421 53.9739 125.679 51.0171 128.912 52.2572C130.204 52.7546 132.266 51.9512 133.492 50.4727C136.234 47.1663 157.161 46.728 163.974 49.8326ZM97.3967 142.972C99.8259 137.927 119.711 112.1 128.84 102.137C130.812 99.9853 132.876 98.2304 133.426 98.2374C134.308 98.2496 139.552 106.052 166.942 148.119C173.218 157.758 173.303 158.113 170.517 162.831C168.946 165.493 163.035 172.98 157.382 179.471C147.992 190.253 144.151 196.395 141.564 204.755C140.277 208.918 137.036 208.606 137.036 204.321C137.036 202.407 136.059 200.832 134.862 200.82C133.668 200.807 131.124 198.56 129.211 195.829C127.298 193.097 120.059 183.331 113.126 174.13C106.194 164.927 100.52 156.864 100.52 156.212C100.52 155.56 99.2087 153.577 97.6072 151.806C94.9433 148.861 94.9258 148.108 97.3967 142.972ZM58.2202 76.2718C52.8211 68.7354 47.328 61.199 46.0134 59.524C44.6989 57.8491 43.16 56.4803 42.5949 56.4803C39.2458 56.4803 17.0545 98.6166 17.0545 104.975C17.0545 106.776 20.5566 107.123 43.8556 107.638C47.6967 107.724 50.9831 108.753 51.4039 110.004C51.9917 111.753 48.1383 111.976 33.0363 111.058L13.9263 109.896L10.7077 123.628C8.33237 133.764 7.52565 143.73 7.62477 161.708C7.74127 182.745 8.33238 187.716 11.9718 198.233C16.9397 212.591 17.4823 212.715 37.5922 204.03L50.3032 198.541L49.06 191.431C44.3876 164.712 50.7484 121.433 62.4857 100.076L68.0379 89.9757L58.2202 76.2718ZM122.481 27.4935C126.71 39.0172 128.263 43.2465 126.825 45.7765C125.991 47.2434 124.152 48.139 121.247 49.5539C120.645 49.8469 119.998 50.1622 119.305 50.5094C104.721 57.8127 82.3087 73.2402 76.2418 80.1522C73.1884 83.6291 70.081 85.7927 69.3368 84.9579C67.0346 82.3785 52.8715 63.2932 49.6668 58.4544C47.9992 55.9342 46.629 52.8887 46.6238 51.6852C46.6064 47.5926 70.0202 25.6789 79.6535 20.7723C89.1998 15.911 110.27 7.87036 113.561 7.83384C114.518 7.82166 117.794 14.6537 120.842 23.0162C121.426 24.6203 121.973 26.1095 122.481 27.4935ZM175.084 28.888C178.777 17.0173 181.406 13.9683 169.5 7.83384C164.986 5.50665 155.172 6.94494 139.834 6.36924L119.157 5.5936L120.132 9.7313C120.668 12.0063 123.648 20.6161 126.756 28.8656L132.403 43.8634L145.784 44.0355C153.141 44.1311 161.277 45.0132 163.861 45.9959C170.697 48.5962 171.813 48.2585 171.813 43.5902C171.813 41.2839 173.284 34.6677 175.084 28.888ZM195.994 17.9999C205.785 22.7447 215.582 28.9141 219.818 33.005C225.554 38.5429 250.062 70.3008 250.062 72.1949C250.062 72.9115 248.265 73.9463 246.071 74.4977C243.876 75.049 237.06 78.7451 230.924 82.7142C224.636 86.7772 219.489 89.0974 219.133 88.0277C217.055 81.794 201.763 66.5125 193.613 62.5226C188.586 60.0632 182.316 55.7986 179.68 53.0453L174.886 48.0394L177.849 34.7164C177.849 34.7164 180 17.5 184.827 12.9977C185.289 12.9977 190.314 15.2483 195.994 17.9999ZM94.4337 236.703C82.253 229.753 70.5157 220.677 58.4393 208.871C54.899 205.411 51.3779 202.63 50.6145 202.691C48.1279 202.888 23.2014 213.356 21.0192 215.122C19.3794 216.445 19.6819 218.376 22.3475 223.604C28.1345 234.948 39.4822 251.786 46.0099 258.709L52.1915 265.266L58.9436 252.059C68.789 232.802 71.4443 228.671 73.9778 228.671C75.4541 228.671 74.383 231.859 70.9122 237.802C67.9805 242.825 63.1709 251.607 60.2252 257.319L54.8712 267.706L61.6111 273.604C70.5141 281.396 79.2917 286.922 90.9716 292.089L100.551 296.326L104.596 288.153C106.82 283.659 110.476 274.893 112.721 268.675C116.804 257.366 121.284 248.859 122.508 250.085C122.866 250.444 121.628 254.576 119.755 259.27C108.418 287.699 105.759 295.472 106.978 296.605C109.383 298.834 126.436 301.722 137.213 301.722C148.603 301.722 171.173 297.208 172.778 294.609C173.331 293.715 169.255 283.697 163.722 272.347L153.663 251.708L146.153 251.556C142.023 251.473 138.018 251.019 137.253 250.546C136.488 250.073 131.459 249.259 126.079 248.735C114.827 247.643 111.16 246.248 94.4337 236.703ZM218.22 244.443C222.226 250.595 226.484 256.736 227.684 258.089C229.484 260.117 228.665 261.587 223.01 266.478C209.044 278.558 180.264 295.491 178.169 292.861C176.018 290.164 161.703 259.917 160.754 256.065C159.641 251.55 159.909 251.282 165.513 251.282C172.95 251.282 193.912 242.865 201.638 236.778C204.841 234.254 208.242 232.43 209.199 232.723C210.155 233.016 214.215 238.289 218.22 244.443ZM257.431 221.594L246.356 210.38C240.265 204.215 234.864 199.153 234.353 199.136C233.842 199.118 231.972 201.647 230.199 204.755C228.427 207.864 223.954 214.071 220.261 218.546C216.568 223.023 213.546 227.403 213.546 228.278C213.546 229.155 216.872 234.825 220.936 240.879C224.999 246.934 229.176 253.306 230.214 255.04C231.897 257.851 233.057 257.016 240.891 247.346C245.725 241.38 251.425 233.144 253.555 229.045L257.431 221.594ZM260.627 87.1495C265.797 96.1869 274.87 121.528 273.448 122.953C273.108 123.292 264.385 122.626 254.061 121.471C243.739 120.318 234.951 119.716 234.534 120.133C232.125 122.542 239.229 124.383 254.901 125.41C266.831 126.193 273.34 127.378 274.698 129.014C277.503 132.394 277.522 161.417 274.727 172.144C273.481 176.927 271.639 183.971 270.634 187.797C269.631 191.624 266.506 199.842 263.693 206.06L258.577 217.366L247.179 205.625C238.7 196.892 236.093 193.104 237.005 190.841C239.124 185.58 241.014 166.767 240.421 156.827C239.776 145.981 230.425 112.992 223.287 96.3797C222.447 94.423 224.683 91.9028 231.31 87.3458C249.832 74.6037 253.437 74.5796 260.627 87.1495ZM153.863 135.368C151.507 130.722 145.975 122.031 141.573 116.051C137.168 110.073 132.977 105.198 132.257 105.221C130.852 105.262 108.383 132.498 103.243 140.389C101.281 143.4 100.528 146.724 101.2 149.4C102.266 153.644 124.857 185.334 133.202 194.29L137.63 199.046L141.014 193.421C142.877 190.328 147.679 183.884 151.688 179.101C155.696 174.318 161.082 167.588 163.659 164.148L168.342 157.892L163.246 150.853C160.441 146.981 156.221 140.013 153.863 135.368Z" fill="black"/>
<path fill-rule="evenodd" clip-rule="evenodd" d="M47.1072 44.7157C61.3102 27.1313 75.6645 17.9842 108.345 5.69956C118.253 1.97572 175.826 2.24025 182.437 6.04062C184.933 7.47554 193.222 11.9228 200.855 15.9232C218.444 25.1397 223.285 29.2672 234.692 44.7835C239.775 51.6955 247.199 61.4059 251.194 66.3629C269.499 89.0886 279.975 117.154 280.29 144.315C280.518 163.938 277.501 183.618 272.289 196.494C256.283 236.049 250.674 245.499 232.463 263.587C198.212 297.604 156.507 311.197 112.327 302.743C85.8959 297.685 56.2014 278.575 37.8425 254.809C30.4037 245.18 17.1014 223.276 17.0736 220.613C16.453 219.281 9.42383 204.144 8.94093 200.769C3.36267 184.83 1.37352 153.368 4.8495 136.057C12.1162 99.8723 24.928 72.1792 47.1072 44.7157ZM163.974 49.8326C166.447 50.9597 168.104 52.8348 167.659 53.9984C167.146 55.3307 172.157 58.117 181.215 61.5382C198.037 67.8884 208.14 75.8682 213.904 87.3563C216.182 91.8994 219.414 97.681 221.087 100.205C222.758 102.73 226.062 112.122 228.428 121.076C230.795 130.032 233.666 139.683 234.81 142.523C237.627 149.522 236.761 178.772 233.436 188.897C228.354 204.373 205.493 230.885 190.94 238.181C174.529 246.408 165.395 248.354 148.478 247.226C114.398 244.951 93.5331 236.143 69.5125 213.887C54.1097 199.616 51.9135 194.203 51.8839 170.404C51.8144 117.836 66.146 88.2016 103.128 64.4427C119.421 53.9739 125.679 51.0171 128.912 52.2572C130.204 52.7546 132.266 51.9512 133.492 50.4727C136.234 47.1663 157.161 46.728 163.974 49.8326ZM97.3967 142.972C99.8259 137.927 119.711 112.1 128.84 102.137C130.812 99.9853 132.876 98.2304 133.426 98.2374C134.308 98.2496 139.552 106.052 166.942 148.119C173.218 157.758 173.303 158.113 170.517 162.831C168.946 165.493 163.035 172.98 157.382 179.471C147.992 190.253 144.151 196.395 141.564 204.755C140.277 208.918 137.036 208.606 137.036 204.321C137.036 202.407 136.059 200.832 134.862 200.82C133.668 200.807 131.124 198.56 129.211 195.829C127.298 193.097 120.059 183.331 113.126 174.13C106.194 164.927 100.52 156.864 100.52 156.212C100.52 155.56 99.2087 153.577 97.6072 151.806C94.9433 148.861 94.9258 148.108 97.3967 142.972ZM58.2202 76.2718C52.8211 68.7354 47.328 61.199 46.0134 59.524C44.6989 57.8491 43.16 56.4803 42.5949 56.4803C39.2458 56.4803 17.0545 98.6166 17.0545 104.975C17.0545 106.776 20.5566 107.123 43.8556 107.638C47.6967 107.724 50.9831 108.753 51.4039 110.004C51.9917 111.753 48.1383 111.976 33.0363 111.058L13.9263 109.896L10.7077 123.628C8.33237 133.764 7.52565 143.73 7.62477 161.708C7.74127 182.745 8.33238 187.716 11.9718 198.233C16.9397 212.591 17.4823 212.715 37.5922 204.03L50.3032 198.541L49.06 191.431C44.3876 164.712 50.7484 121.433 62.4857 100.076L68.0379 89.9757L58.2202 76.2718ZM122.481 27.4935C126.71 39.0172 128.263 43.2465 126.825 45.7765C125.991 47.2434 124.152 48.139 121.247 49.5539C120.645 49.8469 119.998 50.1622 119.305 50.5094C104.721 57.8127 82.3087 73.2402 76.2418 80.1522C73.1884 83.6291 70.081 85.7927 69.3368 84.9579C67.0346 82.3785 52.8715 63.2932 49.6668 58.4544C47.9992 55.9342 46.629 52.8887 46.6238 51.6852C46.6064 47.5926 70.0202 25.6789 79.6535 20.7723C89.1998 15.911 110.27 7.87036 113.561 7.83384C114.518 7.82166 117.794 14.6537 120.842 23.0162C121.426 24.6203 121.973 26.1095 122.481 27.4935ZM175.084 28.888C178.777 17.0173 181.406 13.9683 169.5 7.83384C164.986 5.50665 155.172 6.94494 139.834 6.36924L119.157 5.5936L120.132 9.7313C120.668 12.0063 123.648 20.6161 126.756 28.8656L132.403 43.8634L145.784 44.0355C153.141 44.1311 161.277 45.0132 163.861 45.9959C170.697 48.5962 171.813 48.2585 171.813 43.5902C171.813 41.2839 173.284 34.6677 175.084 28.888ZM195.994 17.9999C205.785 22.7447 215.582 28.9141 219.818 33.005C225.554 38.5429 250.062 70.3008 250.062 72.1949C250.062 72.9115 248.265 73.9463 246.071 74.4977C243.876 75.049 237.06 78.7451 230.924 82.7142C224.636 86.7772 219.489 89.0974 219.133 88.0277C217.055 81.794 201.763 66.5125 193.613 62.5226C188.586 60.0632 182.316 55.7986 179.68 53.0453L174.886 48.0394L177.849 34.7164C177.849 34.7164 180 17.5 184.827 12.9977C185.289 12.9977 190.314 15.2483 195.994 17.9999ZM94.4337 236.703C82.253 229.753 70.5157 220.677 58.4393 208.871C54.899 205.411 51.3779 202.63 50.6145 202.691C48.1279 202.888 23.2014 213.356 21.0192 215.122C19.3794 216.445 19.6819 218.376 22.3475 223.604C28.1345 234.948 39.4822 251.786 46.0099 258.709L52.1915 265.266L58.9436 252.059C68.789 232.802 71.4443 228.671 73.9778 228.671C75.4541 228.671 74.383 231.859 70.9122 237.802C67.9805 242.825 63.1709 251.607 60.2252 257.319L54.8712 267.706L61.6111 273.604C70.5141 281.396 79.2917 286.922 90.9716 292.089L100.551 296.326L104.596 288.153C106.82 283.659 110.476 274.893 112.721 268.675C116.804 257.366 121.284 248.859 122.508 250.085C122.866 250.444 121.628 254.576 119.755 259.27C108.418 287.699 105.759 295.472 106.978 296.605C109.383 298.834 126.436 301.722 137.213 301.722C148.603 301.722 171.173 297.208 172.778 294.609C173.331 293.715 169.255 283.697 163.722 272.347L153.663 251.708L146.153 251.556C142.023 251.473 138.018 251.019 137.253 250.546C136.488 250.073 131.459 249.259 126.079 248.735C114.827 247.643 111.16 246.248 94.4337 236.703ZM218.22 244.443C222.226 250.595 226.484 256.736 227.684 258.089C229.484 260.117 228.665 261.587 223.01 266.478C209.044 278.558 180.264 295.491 178.169 292.861C176.018 290.164 161.703 259.917 160.754 256.065C159.641 251.55 159.909 251.282 165.513 251.282C172.95 251.282 193.912 242.865 201.638 236.778C204.841 234.254 208.242 232.43 209.199 232.723C210.155 233.016 214.215 238.289 218.22 244.443ZM257.431 221.594L246.356 210.38C240.265 204.215 234.864 199.153 234.353 199.136C233.842 199.118 231.972 201.647 230.199 204.755C228.427 207.864 223.954 214.071 220.261 218.546C216.568 223.023 213.546 227.403 213.546 228.278C213.546 229.155 216.872 234.825 220.936 240.879C224.999 246.934 229.176 253.306 230.214 255.04C231.897 257.851 233.057 257.016 240.891 247.346C245.725 241.38 251.425 233.144 253.555 229.045L257.431 221.594ZM260.627 87.1495C265.797 96.1869 274.87 121.528 273.448 122.953C273.108 123.292 264.385 122.626 254.061 121.471C243.739 120.318 234.951 119.716 234.534 120.133C232.125 122.542 239.229 124.383 254.901 125.41C266.831 126.193 273.34 127.378 274.698 129.014C277.503 132.394 277.522 161.417 274.727 172.144C273.481 176.927 271.639 183.971 270.634 187.797C269.631 191.624 266.506 199.842 263.693 206.06L258.577 217.366L247.179 205.625C238.7 196.892 236.093 193.104 237.005 190.841C239.124 185.58 241.014 166.767 240.421 156.827C239.776 145.981 230.425 112.992 223.287 96.3797C222.447 94.423 224.683 91.9028 231.31 87.3458C249.832 74.6037 253.437 74.5796 260.627 87.1495ZM153.863 135.368C151.507 130.722 145.975 122.031 141.573 116.051C137.168 110.073 132.977 105.198 132.257 105.221C130.852 105.262 108.383 132.498 103.243 140.389C101.281 143.4 100.528 146.724 101.2 149.4C102.266 153.644 124.857 185.334 133.202 194.29L137.63 199.046L141.014 193.421C142.877 190.328 147.679 183.884 151.688 179.101C155.696 174.318 161.082 167.588 163.659 164.148L168.342 157.892L163.246 150.853C160.441 146.981 156.221 140.013 153.863 135.368Z" stroke="black" stroke-width="6" mask="url(#path-1-outside-1_531_1650)"/>
</svg>
