<svg width="203" height="374" viewBox="0 0 203 374" fill="none" xmlns="http://www.w3.org/2000/svg">
<mask id="path-1-outside-1_531_1654" maskUnits="userSpaceOnUse" x="0.460205" y="0.462952" width="203" height="374" fill="black">
<rect fill="white" x="0.460205" y="0.462952" width="203" height="374"/>
<path d="M124.844 26.1588C148.074 17.5282 155.76 13.647 164.16 6.30805C169.035 2.04993 171.85 2.7284 168.26 7.2956C164.675 11.8565 163.461 16.7165 161.865 32.887C160.271 49.0274 157.455 63.17 154.793 68.3868C152.402 73.0746 144.72 77.9422 136.584 79.9249C132.89 80.8257 128.878 81.9791 127.67 82.488C126.163 83.1225 125.472 82.8423 125.472 81.5959C125.472 80.4123 127.995 79.196 132.693 78.113C136.664 77.197 141.043 75.9067 142.424 75.2458C146.09 73.4906 151.813 67.9232 153.736 64.243C155.972 59.9623 162.642 14.377 161.237 12.971C160.986 12.7197 157.78 14.1873 154.114 16.2316C150.447 18.2758 143.492 21.4848 138.657 23.3619C121.616 29.9796 111.809 35.4728 106.729 41.2487C101.9 46.7369 97.8471 55.8198 97.8471 61.1534C97.8471 65.7822 101.476 76.3188 104.12 79.3707C107.183 82.9026 106.352 84.4141 103.012 81.3886C99.2659 77.9974 94.9728 63.1424 96.0414 57.271C98.5226 43.6259 109.371 31.9096 124.844 26.1588Z"/>
<path d="M98.8679 128.842C103.441 103.579 113.522 77.5388 128.343 52.6975C131.944 46.6615 135.597 41.7149 136.46 41.7036C138.653 41.6734 138.653 41.6746 132.575 50.745C121.47 67.3138 107.664 99.5167 102.918 119.918C99.5297 134.476 97.4289 157.775 98.1132 173.179C98.4334 180.383 98.2866 186.531 97.7868 186.84C94.5459 188.844 95.2967 148.571 98.8679 128.842Z"/>
<path d="M41.5504 140.628C39.378 133.479 38.7439 125.859 40.1076 123.309C41.8556 120.042 44.5967 120.187 47.9896 123.727C56.1818 132.274 59.9991 137.429 59.3624 139.087C58.9656 140.125 59.5621 141.267 60.7387 141.718C63.4485 142.759 76.136 159.584 81.4715 169.212C83.7694 173.358 87.2653 179.649 89.2393 183.191C92.5719 189.168 92.6773 189.755 90.7021 191.358C89.1852 192.59 88.8513 192.626 89.5369 191.484C90.8955 189.222 78.503 166.297 69.3138 154.069C59.807 141.421 53.1518 138.068 46.9172 142.786C43.4503 145.41 42.9417 145.205 41.5504 140.628Z"/>
<path d="M167.37 189.369C154.646 187.891 124.752 181.613 126.728 180.833C129.733 179.648 130.321 179.731 146.819 183.661C155.452 185.718 164.884 187.407 167.778 187.416C170.672 187.424 173.43 188.06 173.905 188.829C174.524 189.832 172.67 189.984 167.37 189.369Z"/>
<path d="M8.69259 197.972C8.69259 195.963 9.79761 195.29 17.8692 192.382C24.8258 189.877 37.5736 189.112 37.5736 191.2C37.5736 191.891 34.8513 192.456 31.5237 192.456C24.7454 192.456 12.4597 195.698 12.4597 197.487C12.4597 203.13 60.5554 208.403 99.1027 206.989C137.614 205.575 182.151 200.801 188.257 197.432C189.682 196.645 188.766 195.768 184.49 193.823C181.382 192.411 178.04 191.243 177.06 191.228C176.082 191.213 175.59 190.892 175.966 190.515C176.342 190.138 179.227 190.48 182.377 191.273C188.435 192.799 193.296 196.789 191.303 198.598C186.11 203.313 129.489 208.974 88.0363 208.921C42.7823 208.864 8.69259 204.16 8.69259 197.972Z"/>
<path d="M33.1787 234.761C5.3512 228.194 5.02977 227.955 3.68492 212.874C3.30068 208.555 3.42117 205.021 3.95484 205.021C4.48851 205.021 4.92552 206.614 4.92552 208.562C4.92552 210.51 5.80204 215.056 6.87314 218.665C9.20121 226.51 10.2974 227.101 31.2952 231.833C49.7074 235.98 52.6206 236.321 70.8496 236.452C109.46 236.733 176.594 229.347 191.287 223.204C196.296 221.11 198.973 214.956 197.697 208.472C197.1 205.437 197.23 204.875 198.207 206.277C198.929 207.314 199.528 210.848 199.54 214.13C199.562 221.168 197.445 223.839 190.127 226.009C181.784 228.484 159.473 232.554 146.819 233.909C140.258 234.612 128.957 235.819 121.705 236.591C114.454 237.362 94.9589 238.067 78.3838 238.155C49.3935 238.311 47.6732 238.181 33.1787 234.761Z"/>
<path d="M183.879 286.69C185.634 275.288 186.954 268.061 190.357 251.196C191.135 247.336 193.28 246.476 193.28 250.025C193.28 251.282 192.449 255.112 191.433 258.536C190.416 261.96 189.011 268.99 188.31 274.156C184.614 301.383 174.977 350.575 171.958 357.622C170.12 361.912 168.706 363.432 166.03 363.995C164.098 364.402 160.255 365.231 157.493 365.838C148.19 367.881 99.8197 371.159 89.685 370.434C77.4671 369.56 60.2666 365.859 52.5566 362.447C45.6427 359.387 38.1299 352.977 35.5067 347.901C34.3678 345.697 32.8384 336.572 31.7999 325.785C29.6853 303.802 27.5883 290.028 23.2097 269.354C21.129 259.536 20.3379 253.183 21.0399 251.931C21.8335 250.511 22.3872 251.808 23.0163 256.552C23.4972 260.178 25.2515 268.908 26.9153 275.952C29.5962 287.304 31.2838 299.009 34.7169 330.038L35.6901 338.833L41.9685 339.223C50.5676 339.757 51.7228 341.52 43.6613 341.805C40.0486 341.933 36.8754 342.253 36.6118 342.517C35.7051 343.424 39.8653 350.145 43.4264 353.525C48.4593 358.303 59.0285 362.798 71.4774 365.454C93.1482 370.079 159.68 366.106 167.256 359.736C171.136 356.473 177.315 329.322 183.879 286.69Z"/>
<path d="M42.334 268.874C39.1269 270.152 26.7772 269.091 28.9244 267.724C29.8825 267.114 31.4194 266.89 32.3398 267.229C33.259 267.567 36.3668 267.884 39.2462 267.932C42.4331 267.986 43.6412 268.354 42.334 268.874Z"/>
<path d="M34.8311 284.178C32.4554 284.178 31.4521 283.682 32.0072 282.785C32.9841 281.203 41.7777 282.235 44.9873 284.307C46.4941 285.281 45.9416 285.425 42.7534 284.89C40.4228 284.498 36.8578 284.178 34.8311 284.178Z"/>
<path d="M38.5154 302.392C35.9261 301.986 33.8065 301.076 33.8065 300.369C33.8065 299.663 34.796 299.366 36.004 299.707C37.212 300.048 40.5998 300.701 43.5319 301.157C46.4627 301.613 49.175 302.494 49.558 303.115C49.9422 303.735 48.674 303.992 46.7402 303.686C44.8064 303.38 41.1059 302.798 38.5154 302.392Z"/>
<path d="M43.2243 321.052C39.7711 320.632 36.3807 319.725 35.6901 319.035C34.1343 317.481 44.544 318.89 47.4986 320.632C48.8347 321.421 47.4095 321.561 43.2243 321.052Z"/>
</mask>
<path d="M124.844 26.1588C148.074 17.5282 155.76 13.647 164.16 6.30805C169.035 2.04993 171.85 2.7284 168.26 7.2956C164.675 11.8565 163.461 16.7165 161.865 32.887C160.271 49.0274 157.455 63.17 154.793 68.3868C152.402 73.0746 144.72 77.9422 136.584 79.9249C132.89 80.8257 128.878 81.9791 127.67 82.488C126.163 83.1225 125.472 82.8423 125.472 81.5959C125.472 80.4123 127.995 79.196 132.693 78.113C136.664 77.197 141.043 75.9067 142.424 75.2458C146.09 73.4906 151.813 67.9232 153.736 64.243C155.972 59.9623 162.642 14.377 161.237 12.971C160.986 12.7197 157.78 14.1873 154.114 16.2316C150.447 18.2758 143.492 21.4848 138.657 23.3619C121.616 29.9796 111.809 35.4728 106.729 41.2487C101.9 46.7369 97.8471 55.8198 97.8471 61.1534C97.8471 65.7822 101.476 76.3188 104.12 79.3707C107.183 82.9026 106.352 84.4141 103.012 81.3886C99.2659 77.9974 94.9728 63.1424 96.0414 57.271C98.5226 43.6259 109.371 31.9096 124.844 26.1588Z" fill="black"/>
<path d="M98.8679 128.842C103.441 103.579 113.522 77.5388 128.343 52.6975C131.944 46.6615 135.597 41.7149 136.46 41.7036C138.653 41.6734 138.653 41.6746 132.575 50.745C121.47 67.3138 107.664 99.5167 102.918 119.918C99.5297 134.476 97.4289 157.775 98.1132 173.179C98.4334 180.383 98.2866 186.531 97.7868 186.84C94.5459 188.844 95.2967 148.571 98.8679 128.842Z" fill="black"/>
<path d="M41.5504 140.628C39.378 133.479 38.7439 125.859 40.1076 123.309C41.8556 120.042 44.5967 120.187 47.9896 123.727C56.1818 132.274 59.9991 137.429 59.3624 139.087C58.9656 140.125 59.5621 141.267 60.7387 141.718C63.4485 142.759 76.136 159.584 81.4715 169.212C83.7694 173.358 87.2653 179.649 89.2393 183.191C92.5719 189.168 92.6773 189.755 90.7021 191.358C89.1852 192.59 88.8513 192.626 89.5369 191.484C90.8955 189.222 78.503 166.297 69.3138 154.069C59.807 141.421 53.1518 138.068 46.9172 142.786C43.4503 145.41 42.9417 145.205 41.5504 140.628Z" fill="black"/>
<path d="M167.37 189.369C154.646 187.891 124.752 181.613 126.728 180.833C129.733 179.648 130.321 179.731 146.819 183.661C155.452 185.718 164.884 187.407 167.778 187.416C170.672 187.424 173.43 188.06 173.905 188.829C174.524 189.832 172.67 189.984 167.37 189.369Z" fill="black"/>
<path d="M8.69259 197.972C8.69259 195.963 9.79761 195.29 17.8692 192.382C24.8258 189.877 37.5736 189.112 37.5736 191.2C37.5736 191.891 34.8513 192.456 31.5237 192.456C24.7454 192.456 12.4597 195.698 12.4597 197.487C12.4597 203.13 60.5554 208.403 99.1027 206.989C137.614 205.575 182.151 200.801 188.257 197.432C189.682 196.645 188.766 195.768 184.49 193.823C181.382 192.411 178.04 191.243 177.06 191.228C176.082 191.213 175.59 190.892 175.966 190.515C176.342 190.138 179.227 190.48 182.377 191.273C188.435 192.799 193.296 196.789 191.303 198.598C186.11 203.313 129.489 208.974 88.0363 208.921C42.7823 208.864 8.69259 204.16 8.69259 197.972Z" fill="black"/>
<path d="M33.1787 234.761C5.3512 228.194 5.02977 227.955 3.68492 212.874C3.30068 208.555 3.42117 205.021 3.95484 205.021C4.48851 205.021 4.92552 206.614 4.92552 208.562C4.92552 210.51 5.80204 215.056 6.87314 218.665C9.20121 226.51 10.2974 227.101 31.2952 231.833C49.7074 235.98 52.6206 236.321 70.8496 236.452C109.46 236.733 176.594 229.347 191.287 223.204C196.296 221.11 198.973 214.956 197.697 208.472C197.1 205.437 197.23 204.875 198.207 206.277C198.929 207.314 199.528 210.848 199.54 214.13C199.562 221.168 197.445 223.839 190.127 226.009C181.784 228.484 159.473 232.554 146.819 233.909C140.258 234.612 128.957 235.819 121.705 236.591C114.454 237.362 94.9589 238.067 78.3838 238.155C49.3935 238.311 47.6732 238.181 33.1787 234.761Z" fill="black"/>
<path d="M183.879 286.69C185.634 275.288 186.954 268.061 190.357 251.196C191.135 247.336 193.28 246.476 193.28 250.025C193.28 251.282 192.449 255.112 191.433 258.536C190.416 261.96 189.011 268.99 188.31 274.156C184.614 301.383 174.977 350.575 171.958 357.622C170.12 361.912 168.706 363.432 166.03 363.995C164.098 364.402 160.255 365.231 157.493 365.838C148.19 367.881 99.8197 371.159 89.685 370.434C77.4671 369.56 60.2666 365.859 52.5566 362.447C45.6427 359.387 38.1299 352.977 35.5067 347.901C34.3678 345.697 32.8384 336.572 31.7999 325.785C29.6853 303.802 27.5883 290.028 23.2097 269.354C21.129 259.536 20.3379 253.183 21.0399 251.931C21.8335 250.511 22.3872 251.808 23.0163 256.552C23.4972 260.178 25.2515 268.908 26.9153 275.952C29.5962 287.304 31.2838 299.009 34.7169 330.038L35.6901 338.833L41.9685 339.223C50.5676 339.757 51.7228 341.52 43.6613 341.805C40.0486 341.933 36.8754 342.253 36.6118 342.517C35.7051 343.424 39.8653 350.145 43.4264 353.525C48.4593 358.303 59.0285 362.798 71.4774 365.454C93.1482 370.079 159.68 366.106 167.256 359.736C171.136 356.473 177.315 329.322 183.879 286.69Z" fill="black"/>
<path d="M42.334 268.874C39.1269 270.152 26.7772 269.091 28.9244 267.724C29.8825 267.114 31.4194 266.89 32.3398 267.229C33.259 267.567 36.3668 267.884 39.2462 267.932C42.4331 267.986 43.6412 268.354 42.334 268.874Z" fill="black"/>
<path d="M34.8311 284.178C32.4554 284.178 31.4521 283.682 32.0072 282.785C32.9841 281.203 41.7777 282.235 44.9873 284.307C46.4941 285.281 45.9416 285.425 42.7534 284.89C40.4228 284.498 36.8578 284.178 34.8311 284.178Z" fill="black"/>
<path d="M38.5154 302.392C35.9261 301.986 33.8065 301.076 33.8065 300.369C33.8065 299.663 34.796 299.366 36.004 299.707C37.212 300.048 40.5998 300.701 43.5319 301.157C46.4627 301.613 49.175 302.494 49.558 303.115C49.9422 303.735 48.674 303.992 46.7402 303.686C44.8064 303.38 41.1059 302.798 38.5154 302.392Z" fill="black"/>
<path d="M43.2243 321.052C39.7711 320.632 36.3807 319.725 35.6901 319.035C34.1343 317.481 44.544 318.89 47.4986 320.632C48.8347 321.421 47.4095 321.561 43.2243 321.052Z" fill="black"/>
<path d="M124.844 26.1588C148.074 17.5282 155.76 13.647 164.16 6.30805C169.035 2.04993 171.85 2.7284 168.26 7.2956C164.675 11.8565 163.461 16.7165 161.865 32.887C160.271 49.0274 157.455 63.17 154.793 68.3868C152.402 73.0746 144.72 77.9422 136.584 79.9249C132.89 80.8257 128.878 81.9791 127.67 82.488C126.163 83.1225 125.472 82.8423 125.472 81.5959C125.472 80.4123 127.995 79.196 132.693 78.113C136.664 77.197 141.043 75.9067 142.424 75.2458C146.09 73.4906 151.813 67.9232 153.736 64.243C155.972 59.9623 162.642 14.377 161.237 12.971C160.986 12.7197 157.78 14.1873 154.114 16.2316C150.447 18.2758 143.492 21.4848 138.657 23.3619C121.616 29.9796 111.809 35.4728 106.729 41.2487C101.9 46.7369 97.8471 55.8198 97.8471 61.1534C97.8471 65.7822 101.476 76.3188 104.12 79.3707C107.183 82.9026 106.352 84.4141 103.012 81.3886C99.2659 77.9974 94.9728 63.1424 96.0414 57.271C98.5226 43.6259 109.371 31.9096 124.844 26.1588Z" stroke="black" stroke-width="6" mask="url(#path-1-outside-1_531_1654)"/>
<path d="M98.8679 128.842C103.441 103.579 113.522 77.5388 128.343 52.6975C131.944 46.6615 135.597 41.7149 136.46 41.7036C138.653 41.6734 138.653 41.6746 132.575 50.745C121.47 67.3138 107.664 99.5167 102.918 119.918C99.5297 134.476 97.4289 157.775 98.1132 173.179C98.4334 180.383 98.2866 186.531 97.7868 186.84C94.5459 188.844 95.2967 148.571 98.8679 128.842Z" stroke="black" stroke-width="6" mask="url(#path-1-outside-1_531_1654)"/>
<path d="M41.5504 140.628C39.378 133.479 38.7439 125.859 40.1076 123.309C41.8556 120.042 44.5967 120.187 47.9896 123.727C56.1818 132.274 59.9991 137.429 59.3624 139.087C58.9656 140.125 59.5621 141.267 60.7387 141.718C63.4485 142.759 76.136 159.584 81.4715 169.212C83.7694 173.358 87.2653 179.649 89.2393 183.191C92.5719 189.168 92.6773 189.755 90.7021 191.358C89.1852 192.59 88.8513 192.626 89.5369 191.484C90.8955 189.222 78.503 166.297 69.3138 154.069C59.807 141.421 53.1518 138.068 46.9172 142.786C43.4503 145.41 42.9417 145.205 41.5504 140.628Z" stroke="black" stroke-width="6" mask="url(#path-1-outside-1_531_1654)"/>
<path d="M167.37 189.369C154.646 187.891 124.752 181.613 126.728 180.833C129.733 179.648 130.321 179.731 146.819 183.661C155.452 185.718 164.884 187.407 167.778 187.416C170.672 187.424 173.43 188.06 173.905 188.829C174.524 189.832 172.67 189.984 167.37 189.369Z" stroke="black" stroke-width="6" mask="url(#path-1-outside-1_531_1654)"/>
<path d="M8.69259 197.972C8.69259 195.963 9.79761 195.29 17.8692 192.382C24.8258 189.877 37.5736 189.112 37.5736 191.2C37.5736 191.891 34.8513 192.456 31.5237 192.456C24.7454 192.456 12.4597 195.698 12.4597 197.487C12.4597 203.13 60.5554 208.403 99.1027 206.989C137.614 205.575 182.151 200.801 188.257 197.432C189.682 196.645 188.766 195.768 184.49 193.823C181.382 192.411 178.04 191.243 177.06 191.228C176.082 191.213 175.59 190.892 175.966 190.515C176.342 190.138 179.227 190.48 182.377 191.273C188.435 192.799 193.296 196.789 191.303 198.598C186.11 203.313 129.489 208.974 88.0363 208.921C42.7823 208.864 8.69259 204.16 8.69259 197.972Z" stroke="black" stroke-width="6" mask="url(#path-1-outside-1_531_1654)"/>
<path d="M33.1787 234.761C5.3512 228.194 5.02977 227.955 3.68492 212.874C3.30068 208.555 3.42117 205.021 3.95484 205.021C4.48851 205.021 4.92552 206.614 4.92552 208.562C4.92552 210.51 5.80204 215.056 6.87314 218.665C9.20121 226.51 10.2974 227.101 31.2952 231.833C49.7074 235.98 52.6206 236.321 70.8496 236.452C109.46 236.733 176.594 229.347 191.287 223.204C196.296 221.11 198.973 214.956 197.697 208.472C197.1 205.437 197.23 204.875 198.207 206.277C198.929 207.314 199.528 210.848 199.54 214.13C199.562 221.168 197.445 223.839 190.127 226.009C181.784 228.484 159.473 232.554 146.819 233.909C140.258 234.612 128.957 235.819 121.705 236.591C114.454 237.362 94.9589 238.067 78.3838 238.155C49.3935 238.311 47.6732 238.181 33.1787 234.761Z" stroke="black" stroke-width="6" mask="url(#path-1-outside-1_531_1654)"/>
<path d="M183.879 286.69C185.634 275.288 186.954 268.061 190.357 251.196C191.135 247.336 193.28 246.476 193.28 250.025C193.28 251.282 192.449 255.112 191.433 258.536C190.416 261.96 189.011 268.99 188.31 274.156C184.614 301.383 174.977 350.575 171.958 357.622C170.12 361.912 168.706 363.432 166.03 363.995C164.098 364.402 160.255 365.231 157.493 365.838C148.19 367.881 99.8197 371.159 89.685 370.434C77.4671 369.56 60.2666 365.859 52.5566 362.447C45.6427 359.387 38.1299 352.977 35.5067 347.901C34.3678 345.697 32.8384 336.572 31.7999 325.785C29.6853 303.802 27.5883 290.028 23.2097 269.354C21.129 259.536 20.3379 253.183 21.0399 251.931C21.8335 250.511 22.3872 251.808 23.0163 256.552C23.4972 260.178 25.2515 268.908 26.9153 275.952C29.5962 287.304 31.2838 299.009 34.7169 330.038L35.6901 338.833L41.9685 339.223C50.5676 339.757 51.7228 341.52 43.6613 341.805C40.0486 341.933 36.8754 342.253 36.6118 342.517C35.7051 343.424 39.8653 350.145 43.4264 353.525C48.4593 358.303 59.0285 362.798 71.4774 365.454C93.1482 370.079 159.68 366.106 167.256 359.736C171.136 356.473 177.315 329.322 183.879 286.69Z" stroke="black" stroke-width="6" mask="url(#path-1-outside-1_531_1654)"/>
<path d="M42.334 268.874C39.1269 270.152 26.7772 269.091 28.9244 267.724C29.8825 267.114 31.4194 266.89 32.3398 267.229C33.259 267.567 36.3668 267.884 39.2462 267.932C42.4331 267.986 43.6412 268.354 42.334 268.874Z" stroke="black" stroke-width="6" mask="url(#path-1-outside-1_531_1654)"/>
<path d="M34.8311 284.178C32.4554 284.178 31.4521 283.682 32.0072 282.785C32.9841 281.203 41.7777 282.235 44.9873 284.307C46.4941 285.281 45.9416 285.425 42.7534 284.89C40.4228 284.498 36.8578 284.178 34.8311 284.178Z" stroke="black" stroke-width="6" mask="url(#path-1-outside-1_531_1654)"/>
<path d="M38.5154 302.392C35.9261 301.986 33.8065 301.076 33.8065 300.369C33.8065 299.663 34.796 299.366 36.004 299.707C37.212 300.048 40.5998 300.701 43.5319 301.157C46.4627 301.613 49.175 302.494 49.558 303.115C49.9422 303.735 48.674 303.992 46.7402 303.686C44.8064 303.38 41.1059 302.798 38.5154 302.392Z" stroke="black" stroke-width="6" mask="url(#path-1-outside-1_531_1654)"/>
<path d="M43.2243 321.052C39.7711 320.632 36.3807 319.725 35.6901 319.035C34.1343 317.481 44.544 318.89 47.4986 320.632C48.8347 321.421 47.4095 321.561 43.2243 321.052Z" stroke="black" stroke-width="6" mask="url(#path-1-outside-1_531_1654)"/>
</svg>
