<svg width="317" height="287" viewBox="0 0 317 287" fill="none" xmlns="http://www.w3.org/2000/svg">
<path d="M21.6309 22.0797C59.958 26.2799 99.3554 22.0515 137.674 19.0726C165.622 16.8998 194.114 15.9685 222.138 15.9685C245.374 15.9685 268.583 17.7146 291.821 17.7146C295.181 17.7146 298.54 17.7146 301.9 17.7146C302.96 17.7146 303.779 18.086 304.779 18.3936C305.564 18.6349 300.76 17.7964 299.788 17.7146" stroke="black" stroke-width="3" stroke-linecap="round"/>
<path d="M21.6309 16.8416C23.8441 28.8643 23.3585 41.3712 23.3585 53.5573C23.3585 65.1423 21.2061 77.0278 22.6867 88.624C23.3196 93.5815 23.1601 98.3877 23.4065 103.369C23.806 111.442 25.9501 119.19 25.9501 127.328C25.9501 146.913 24.9612 166.584 26.382 186.112C27.5121 201.645 27.5846 216.697 30.0773 232.092C31.0967 238.388 33.0957 244.355 33.6767 250.814C33.9335 253.669 35.8157 272.892 32.8608 274.385" stroke="black" stroke-width="3" stroke-linecap="round"/>
<path d="M300.652 24.6987C296.981 42.7813 299.788 61.7407 299.788 80.0876C299.788 86.8849 302.024 93.3125 302.379 99.7793C303.221 115.086 304.183 130.983 306.506 146.244C307.396 152.086 307.562 157.807 307.562 163.704C307.562 172.111 308.91 180.348 309.242 188.731C309.762 201.873 310.154 214.937 310.154 228.115C310.154 237.21 308.691 243.946 306.266 252.657C304.233 259.964 303.852 267.818 302.379 275.258" stroke="black" stroke-width="3" stroke-linecap="round"/>
<path d="M29.4062 282.243C49.5275 284.113 69.9767 283.888 90.1631 283.989C113.899 284.107 137.646 285.387 161.382 284.668C186.242 283.914 211.186 282.243 236.056 282.243C254.923 282.243 273.792 283.116 292.686 283.116C299.084 283.116 305.388 282.243 311.883 282.243" stroke="black" stroke-width="3" stroke-linecap="round"/>
<path d="M15.5837 25.5717C18.3052 40.3552 17.8878 55.7637 20.3828 70.5327C24.7915 96.63 19.0199 123.325 18.2232 149.493C17.788 163.786 18.7271 178.134 17.9832 192.417C17.4854 201.978 18.2837 211.399 18.8471 220.936C19.274 228.163 18.6147 235.408 19.9029 242.568C21.1172 249.318 19.2727 255.994 19.039 262.842C19.011 263.664 19.2436 272.584 19.9029 272.251C20.8695 271.763 22.5844 266.552 22.8303 265.558C23.9222 261.144 23.3583 256.16 23.3583 251.638C23.3583 243.387 22.4944 235.122 22.4944 226.805C22.4944 219.186 20.6366 211.294 19.9509 203.67C19.12 194.433 19.2805 185.463 17.7913 176.218C15.459 161.739 16.4663 146.665 14.5279 132.081C12.7137 118.432 11.3323 104.663 9.34482 91.0489C7.81711 80.5843 4.49734 70.4466 3.00998 60.0079C1.64458 50.4251 1.31429 35.4043 8.48098 27.9968C14.1621 22.1247 20.1993 17.1024 22.4944 8.98413" stroke="black" stroke-width="3" stroke-linecap="round"/>
<path d="M23.3594 17.7145C42.5754 17.7145 61.8487 18.477 81.0448 19.2665C93.6391 19.7845 106.215 17.8353 118.766 17.7145C136.487 17.5439 153.809 13.4749 171.46 13.3493C201.951 13.1323 232.362 15.6858 262.836 15.9684C270.928 16.0434 279.026 15.9684 287.119 15.9684C287.604 15.9684 292.463 16.3187 289.711 15.7744C281.419 14.1348 273.068 12.8558 264.611 12.5733C228.84 11.3782 193.054 10.7302 157.255 10.7302C135.734 10.7302 114.019 9.87317 92.5147 10.7787C71.9863 11.6432 51.671 15.9684 31.134 15.9684" stroke="black" stroke-width="3" stroke-linecap="round"/>
<path d="M302.38 22.0797C302.38 37.8958 308.427 52.4885 308.427 68.3988C308.427 93.4287 311.018 118.307 311.018 143.431C311.018 186.506 305.069 229.795 307.563 272.639C307.612 273.493 308.458 275.726 308.859 276.616C310.521 280.313 311.395 273.425 311.882 271.572C316.387 254.432 315.337 235.314 315.337 217.687C315.337 212.369 314.57 207.18 314.474 201.924C314.38 196.811 312.84 192.03 312.746 187.082C312.444 171.194 312.696 155.365 311.45 139.502C309.829 118.863 308.396 97.8243 304.539 77.4686C302.341 65.8661 300.652 54.1542 300.652 42.3534C300.652 28.7762 298.061 15.5088 298.061 2" stroke="black" stroke-width="3" stroke-linecap="round"/>
<path d="M26.8146 279.623C44.2566 279.938 61.5054 281.58 79.029 281.321C97.3569 281.051 115.643 280.496 133.979 280.496C159.906 280.496 185.401 281.928 211.293 279.817C229.43 278.339 247.445 279.693 265.571 278.799C275.111 278.329 284.957 277.004 294.414 277.004C295.16 277.004 299.183 277.266 296.573 276.956C279.145 274.884 262.102 274.632 244.551 274.337C227.317 274.046 210.568 272.565 193.344 274.385C180.112 275.784 166.432 276.742 153.127 275.937C136.684 274.943 119.788 278.118 103.313 278.702C85.3724 279.338 67.6681 281.37 49.6584 281.37C44.1558 281.37 38.7958 282.243 33.2934 282.243C31.1784 282.243 24.6678 283.468 22.9753 281.758C21.7299 280.499 23.3434 278.236 21.6316 277.198C21.282 276.986 31.8037 275.244 33.9173 275.452C61.0815 278.131 88.3142 278.75 115.694 278.75C141.226 278.75 166.757 278.75 192.288 278.75C210.424 278.75 228.341 280.496 246.422 280.496C265.075 280.496 283.728 280.496 302.38 280.496" stroke="black" stroke-width="3" stroke-linecap="round"/>
</svg>
