<svg width="384" height="333" viewBox="0 0 384 333" fill="none" xmlns="http://www.w3.org/2000/svg">
<mask id="path-1-outside-1_531_1646" maskUnits="userSpaceOnUse" x="0.994141" y="0.170898" width="383" height="333" fill="black">
<rect fill="white" x="0.994141" y="0.170898" width="383" height="333"/>
<path fill-rule="evenodd" clip-rule="evenodd" d="M140.043 4.83683C135.739 5.70126 125.567 7.62147 117.438 9.10509C109.309 10.5887 93.6589 14.0777 82.6606 16.8589C39.1004 27.8721 23.4577 38.0209 10.5345 63.6513C5.99087 72.6608 5.70744 74.7306 4.45199 108.003C3.50431 133.108 3.99806 161.704 6.21163 209.869C7.90354 246.699 8.87389 280.942 8.36788 285.963C7.74015 292.183 8.07926 295.095 9.43209 295.095C10.5241 295.095 15.6345 298.532 20.7902 302.73C30.7017 310.807 49.2502 318.854 72.0379 324.965C91.1306 330.084 137.377 331.295 164.462 327.381C192.466 323.337 208.672 318.688 235.68 306.951C248.591 301.34 260.329 296.018 261.763 295.122C271.721 288.908 275.729 286.394 279.961 285.933C282.855 285.617 285.853 286.261 290.931 287.337C306.156 290.564 313.852 290.501 325.713 287.052C335.932 284.081 359.27 273.397 369.572 266.972C376.401 262.714 382.574 252.099 380.014 249.014C379.127 247.946 377.952 232.635 377.401 214.989C376.851 197.346 375.295 173.909 373.944 162.908C370.442 134.382 367.336 75.1376 368.086 51.1579C368.437 39.9168 368.472 30.7211 368.162 30.7211C367.854 30.7211 364.951 32.7439 361.709 35.2154C352.365 42.3466 341.252 44.9294 325.232 43.6928C307.77 42.3466 294.715 38.7984 288.397 33.6814C281.358 27.9817 235.934 7.71122 228.808 6.65372C223.668 5.89191 224.087 6.26064 231.505 9.03483C244.878 14.0336 277.114 28.6513 279.26 32.6621C282.574 38.8558 279.701 47.1662 271.716 54.4938C262.554 62.8999 242.024 76.3899 233.941 79.3119C230.594 80.5225 226.29 82.1783 224.378 82.994C196.18 95.0073 123.489 105.055 86.919 101.994C64.0826 100.083 31.1173 92.3184 21.8005 86.6587C14.7894 82.3992 13.9201 81.1573 13.4471 74.7028C12.3273 59.4456 27.7213 40.3029 48.9337 30.5698C62.5385 24.3274 84.1874 18.2921 114.83 12.2028C134.406 8.31195 144.025 7.35187 163.947 7.30143C177.571 7.26838 188.722 6.76051 188.726 6.17263C188.743 2.9758 154.046 2.02438 140.043 4.83683ZM320.884 46.4339C310.842 45.3138 299.201 42.8857 295.015 41.0369C290.828 39.1897 287.234 37.6783 287.027 37.6783C286.82 37.6783 286.137 55.4852 285.509 77.2474C284.881 99.0095 283.478 132.47 282.391 151.602C280.513 184.68 281.69 217.06 285.497 251.743C286.396 259.941 286.126 261.744 283.998 261.744C282.007 261.744 281.334 259.217 281.103 250.874C280.936 244.896 280.152 240.394 279.357 229.871C277.481 204.997 277.921 168.754 280.854 106.243C282.16 78.4249 282.675 54.2207 281.998 52.4571C280.905 49.6064 279.953 50.0203 273.44 56.1809C257.407 71.3459 241.794 80.0424 215.683 88.3511C166.809 103.902 99.2876 109.849 62.1994 101.871C34.9532 96.0074 27.1301 93.6959 18.8219 89.052C14.5112 86.6413 10.2894 85.1003 9.43734 85.6273C6.53692 87.4205 7.91933 168.437 12.2856 252.482C14.0172 285.826 14.1709 290.746 16.5744 294.01C17.1059 294.732 17.7474 295.373 18.5402 296.222C24.5602 302.668 34.7654 308.219 51.4306 314.117C75.8216 322.748 87.173 324.823 114.518 325.645C158.927 326.98 196.302 320.269 231.686 304.607C243.503 299.375 253.618 295.095 254.163 295.095C255.875 295.095 276.361 282.396 280.456 278.796C284.363 275.361 284.368 275.362 284.368 278.994C284.368 281.956 285.999 282.98 293.148 284.514C305.382 287.139 315.197 286.868 326.198 283.6C339.421 279.671 364.387 266.784 369.572 261.21L373.92 256.536L373.516 220.592C373.294 200.823 371.944 175.648 370.517 164.647C367.312 139.951 364.415 91.207 364.382 61.4076C364.358 40.7708 364.121 39.148 361.313 40.3673C344.143 47.8289 339.555 48.5176 320.884 46.4339ZM90.868 113.046C90.1794 114.797 89.6405 117.537 89.6683 119.133C89.717 121.721 89.9169 121.7 91.5254 118.937C92.5165 117.232 93.0556 114.493 92.7252 112.849C92.174 110.118 92.0122 110.136 90.868 113.046ZM86.9104 158.466C85.3749 166.651 86.9678 170.241 89.4091 164.099C91.7914 158.102 91.9305 152.472 89.6943 152.472C88.7814 152.472 87.5294 155.17 86.9104 158.466ZM85.2828 194.193C83.7735 196.636 86.1732 211.608 88.0755 211.608C90.1343 211.608 90.0629 194.697 87.9972 193.42C87.1069 192.869 85.8862 193.217 85.2828 194.193ZM86.4862 253.351C86.7731 258.135 87.526 262.048 88.1589 262.048C89.8126 262.048 91.8522 248.607 90.5255 246.459C87.8407 242.112 85.9993 245.255 86.4862 253.351ZM86.1384 295.592C86.1384 304.946 88.6337 306.527 90.2943 298.227C91.0646 294.371 90.5969 291.853 88.7728 290.026C86.4201 287.673 86.1384 288.268 86.1384 295.592Z"/>
<path fill-rule="evenodd" clip-rule="evenodd" d="M133.957 32.6621C116.768 34.6745 99.1102 41.2021 90.3394 48.7855C81.5686 56.3688 86 53.5 86 53.5C86 53.5 83.0966 59.5961 85 61.5C86.9041 63.4046 93.4484 64.2809 93.4484 64.2809L113.703 63.199C127.949 62.439 139.864 60.5466 153.872 56.8245C183.461 48.9594 188.091 44.2789 173.932 36.546C165.309 31.836 152.031 30.5472 133.957 32.6621ZM178.298 43.0545C178.298 42.2283 175.756 40.3881 172.647 38.9654C164.776 35.3616 157.517 34.758 137.435 36.0399C124.169 36.8869 117.346 38.2818 108.655 41.9291C93.0154 48.4898 88.2007 52.3041 90.6195 56.214C93.659 61.1293 101.541 62.1711 120.046 60.0978C148.452 56.9184 178.298 48.1854 178.298 43.0545Z"/>
</mask>
<path fill-rule="evenodd" clip-rule="evenodd" d="M140.043 4.83683C135.739 5.70126 125.567 7.62147 117.438 9.10509C109.309 10.5887 93.6589 14.0777 82.6606 16.8589C39.1004 27.8721 23.4577 38.0209 10.5345 63.6513C5.99087 72.6608 5.70744 74.7306 4.45199 108.003C3.50431 133.108 3.99806 161.704 6.21163 209.869C7.90354 246.699 8.87389 280.942 8.36788 285.963C7.74015 292.183 8.07926 295.095 9.43209 295.095C10.5241 295.095 15.6345 298.532 20.7902 302.73C30.7017 310.807 49.2502 318.854 72.0379 324.965C91.1306 330.084 137.377 331.295 164.462 327.381C192.466 323.337 208.672 318.688 235.68 306.951C248.591 301.34 260.329 296.018 261.763 295.122C271.721 288.908 275.729 286.394 279.961 285.933C282.855 285.617 285.853 286.261 290.931 287.337C306.156 290.564 313.852 290.501 325.713 287.052C335.932 284.081 359.27 273.397 369.572 266.972C376.401 262.714 382.574 252.099 380.014 249.014C379.127 247.946 377.952 232.635 377.401 214.989C376.851 197.346 375.295 173.909 373.944 162.908C370.442 134.382 367.336 75.1376 368.086 51.1579C368.437 39.9168 368.472 30.7211 368.162 30.7211C367.854 30.7211 364.951 32.7439 361.709 35.2154C352.365 42.3466 341.252 44.9294 325.232 43.6928C307.77 42.3466 294.715 38.7984 288.397 33.6814C281.358 27.9817 235.934 7.71122 228.808 6.65372C223.668 5.89191 224.087 6.26064 231.505 9.03483C244.878 14.0336 277.114 28.6513 279.26 32.6621C282.574 38.8558 279.701 47.1662 271.716 54.4938C262.554 62.8999 242.024 76.3899 233.941 79.3119C230.594 80.5225 226.29 82.1783 224.378 82.994C196.18 95.0073 123.489 105.055 86.919 101.994C64.0826 100.083 31.1173 92.3184 21.8005 86.6587C14.7894 82.3992 13.9201 81.1573 13.4471 74.7028C12.3273 59.4456 27.7213 40.3029 48.9337 30.5698C62.5385 24.3274 84.1874 18.2921 114.83 12.2028C134.406 8.31195 144.025 7.35187 163.947 7.30143C177.571 7.26838 188.722 6.76051 188.726 6.17263C188.743 2.9758 154.046 2.02438 140.043 4.83683ZM320.884 46.4339C310.842 45.3138 299.201 42.8857 295.015 41.0369C290.828 39.1897 287.234 37.6783 287.027 37.6783C286.82 37.6783 286.137 55.4852 285.509 77.2474C284.881 99.0095 283.478 132.47 282.391 151.602C280.513 184.68 281.69 217.06 285.497 251.743C286.396 259.941 286.126 261.744 283.998 261.744C282.007 261.744 281.334 259.217 281.103 250.874C280.936 244.896 280.152 240.394 279.357 229.871C277.481 204.997 277.921 168.754 280.854 106.243C282.16 78.4249 282.675 54.2207 281.998 52.4571C280.905 49.6064 279.953 50.0203 273.44 56.1809C257.407 71.3459 241.794 80.0424 215.683 88.3511C166.809 103.902 99.2876 109.849 62.1994 101.871C34.9532 96.0074 27.1301 93.6959 18.8219 89.052C14.5112 86.6413 10.2894 85.1003 9.43734 85.6273C6.53692 87.4205 7.91933 168.437 12.2856 252.482C14.0172 285.826 14.1709 290.746 16.5744 294.01C17.1059 294.732 17.7474 295.373 18.5402 296.222C24.5602 302.668 34.7654 308.219 51.4306 314.117C75.8216 322.748 87.173 324.823 114.518 325.645C158.927 326.98 196.302 320.269 231.686 304.607C243.503 299.375 253.618 295.095 254.163 295.095C255.875 295.095 276.361 282.396 280.456 278.796C284.363 275.361 284.368 275.362 284.368 278.994C284.368 281.956 285.999 282.98 293.148 284.514C305.382 287.139 315.197 286.868 326.198 283.6C339.421 279.671 364.387 266.784 369.572 261.21L373.92 256.536L373.516 220.592C373.294 200.823 371.944 175.648 370.517 164.647C367.312 139.951 364.415 91.207 364.382 61.4076C364.358 40.7708 364.121 39.148 361.313 40.3673C344.143 47.8289 339.555 48.5176 320.884 46.4339ZM90.868 113.046C90.1794 114.797 89.6405 117.537 89.6683 119.133C89.717 121.721 89.9169 121.7 91.5254 118.937C92.5165 117.232 93.0556 114.493 92.7252 112.849C92.174 110.118 92.0122 110.136 90.868 113.046ZM86.9104 158.466C85.3749 166.651 86.9678 170.241 89.4091 164.099C91.7914 158.102 91.9305 152.472 89.6943 152.472C88.7814 152.472 87.5294 155.17 86.9104 158.466ZM85.2828 194.193C83.7735 196.636 86.1732 211.608 88.0755 211.608C90.1343 211.608 90.0629 194.697 87.9972 193.42C87.1069 192.869 85.8862 193.217 85.2828 194.193ZM86.4862 253.351C86.7731 258.135 87.526 262.048 88.1589 262.048C89.8126 262.048 91.8522 248.607 90.5255 246.459C87.8407 242.112 85.9993 245.255 86.4862 253.351ZM86.1384 295.592C86.1384 304.946 88.6337 306.527 90.2943 298.227C91.0646 294.371 90.5969 291.853 88.7728 290.026C86.4201 287.673 86.1384 288.268 86.1384 295.592Z" fill="black"/>
<path fill-rule="evenodd" clip-rule="evenodd" d="M133.957 32.6621C116.768 34.6745 99.1102 41.2021 90.3394 48.7855C81.5686 56.3688 86 53.5 86 53.5C86 53.5 83.0966 59.5961 85 61.5C86.9041 63.4046 93.4484 64.2809 93.4484 64.2809L113.703 63.199C127.949 62.439 139.864 60.5466 153.872 56.8245C183.461 48.9594 188.091 44.2789 173.932 36.546C165.309 31.836 152.031 30.5472 133.957 32.6621ZM178.298 43.0545C178.298 42.2283 175.756 40.3881 172.647 38.9654C164.776 35.3616 157.517 34.758 137.435 36.0399C124.169 36.8869 117.346 38.2818 108.655 41.9291C93.0154 48.4898 88.2007 52.3041 90.6195 56.214C93.659 61.1293 101.541 62.1711 120.046 60.0978C148.452 56.9184 178.298 48.1854 178.298 43.0545Z" fill="black"/>
<path fill-rule="evenodd" clip-rule="evenodd" d="M140.043 4.83683C135.739 5.70126 125.567 7.62147 117.438 9.10509C109.309 10.5887 93.6589 14.0777 82.6606 16.8589C39.1004 27.8721 23.4577 38.0209 10.5345 63.6513C5.99087 72.6608 5.70744 74.7306 4.45199 108.003C3.50431 133.108 3.99806 161.704 6.21163 209.869C7.90354 246.699 8.87389 280.942 8.36788 285.963C7.74015 292.183 8.07926 295.095 9.43209 295.095C10.5241 295.095 15.6345 298.532 20.7902 302.73C30.7017 310.807 49.2502 318.854 72.0379 324.965C91.1306 330.084 137.377 331.295 164.462 327.381C192.466 323.337 208.672 318.688 235.68 306.951C248.591 301.34 260.329 296.018 261.763 295.122C271.721 288.908 275.729 286.394 279.961 285.933C282.855 285.617 285.853 286.261 290.931 287.337C306.156 290.564 313.852 290.501 325.713 287.052C335.932 284.081 359.27 273.397 369.572 266.972C376.401 262.714 382.574 252.099 380.014 249.014C379.127 247.946 377.952 232.635 377.401 214.989C376.851 197.346 375.295 173.909 373.944 162.908C370.442 134.382 367.336 75.1376 368.086 51.1579C368.437 39.9168 368.472 30.7211 368.162 30.7211C367.854 30.7211 364.951 32.7439 361.709 35.2154C352.365 42.3466 341.252 44.9294 325.232 43.6928C307.77 42.3466 294.715 38.7984 288.397 33.6814C281.358 27.9817 235.934 7.71122 228.808 6.65372C223.668 5.89191 224.087 6.26064 231.505 9.03483C244.878 14.0336 277.114 28.6513 279.26 32.6621C282.574 38.8558 279.701 47.1662 271.716 54.4938C262.554 62.8999 242.024 76.3899 233.941 79.3119C230.594 80.5225 226.29 82.1783 224.378 82.994C196.18 95.0073 123.489 105.055 86.919 101.994C64.0826 100.083 31.1173 92.3184 21.8005 86.6587C14.7894 82.3992 13.9201 81.1573 13.4471 74.7028C12.3273 59.4456 27.7213 40.3029 48.9337 30.5698C62.5385 24.3274 84.1874 18.2921 114.83 12.2028C134.406 8.31195 144.025 7.35187 163.947 7.30143C177.571 7.26838 188.722 6.76051 188.726 6.17263C188.743 2.9758 154.046 2.02438 140.043 4.83683ZM320.884 46.4339C310.842 45.3138 299.201 42.8857 295.015 41.0369C290.828 39.1897 287.234 37.6783 287.027 37.6783C286.82 37.6783 286.137 55.4852 285.509 77.2474C284.881 99.0095 283.478 132.47 282.391 151.602C280.513 184.68 281.69 217.06 285.497 251.743C286.396 259.941 286.126 261.744 283.998 261.744C282.007 261.744 281.334 259.217 281.103 250.874C280.936 244.896 280.152 240.394 279.357 229.871C277.481 204.997 277.921 168.754 280.854 106.243C282.16 78.4249 282.675 54.2207 281.998 52.4571C280.905 49.6064 279.953 50.0203 273.44 56.1809C257.407 71.3459 241.794 80.0424 215.683 88.3511C166.809 103.902 99.2876 109.849 62.1994 101.871C34.9532 96.0074 27.1301 93.6959 18.8219 89.052C14.5112 86.6413 10.2894 85.1003 9.43734 85.6273C6.53692 87.4205 7.91933 168.437 12.2856 252.482C14.0172 285.826 14.1709 290.746 16.5744 294.01C17.1059 294.732 17.7474 295.373 18.5402 296.222C24.5602 302.668 34.7654 308.219 51.4306 314.117C75.8216 322.748 87.173 324.823 114.518 325.645C158.927 326.98 196.302 320.269 231.686 304.607C243.503 299.375 253.618 295.095 254.163 295.095C255.875 295.095 276.361 282.396 280.456 278.796C284.363 275.361 284.368 275.362 284.368 278.994C284.368 281.956 285.999 282.98 293.148 284.514C305.382 287.139 315.197 286.868 326.198 283.6C339.421 279.671 364.387 266.784 369.572 261.21L373.92 256.536L373.516 220.592C373.294 200.823 371.944 175.648 370.517 164.647C367.312 139.951 364.415 91.207 364.382 61.4076C364.358 40.7708 364.121 39.148 361.313 40.3673C344.143 47.8289 339.555 48.5176 320.884 46.4339ZM90.868 113.046C90.1794 114.797 89.6405 117.537 89.6683 119.133C89.717 121.721 89.9169 121.7 91.5254 118.937C92.5165 117.232 93.0556 114.493 92.7252 112.849C92.174 110.118 92.0122 110.136 90.868 113.046ZM86.9104 158.466C85.3749 166.651 86.9678 170.241 89.4091 164.099C91.7914 158.102 91.9305 152.472 89.6943 152.472C88.7814 152.472 87.5294 155.17 86.9104 158.466ZM85.2828 194.193C83.7735 196.636 86.1732 211.608 88.0755 211.608C90.1343 211.608 90.0629 194.697 87.9972 193.42C87.1069 192.869 85.8862 193.217 85.2828 194.193ZM86.4862 253.351C86.7731 258.135 87.526 262.048 88.1589 262.048C89.8126 262.048 91.8522 248.607 90.5255 246.459C87.8407 242.112 85.9993 245.255 86.4862 253.351ZM86.1384 295.592C86.1384 304.946 88.6337 306.527 90.2943 298.227C91.0646 294.371 90.5969 291.853 88.7728 290.026C86.4201 287.673 86.1384 288.268 86.1384 295.592Z" stroke="black" stroke-width="6" mask="url(#path-1-outside-1_531_1646)"/>
<path fill-rule="evenodd" clip-rule="evenodd" d="M133.957 32.6621C116.768 34.6745 99.1102 41.2021 90.3394 48.7855C81.5686 56.3688 86 53.5 86 53.5C86 53.5 83.0966 59.5961 85 61.5C86.9041 63.4046 93.4484 64.2809 93.4484 64.2809L113.703 63.199C127.949 62.439 139.864 60.5466 153.872 56.8245C183.461 48.9594 188.091 44.2789 173.932 36.546C165.309 31.836 152.031 30.5472 133.957 32.6621ZM178.298 43.0545C178.298 42.2283 175.756 40.3881 172.647 38.9654C164.776 35.3616 157.517 34.758 137.435 36.0399C124.169 36.8869 117.346 38.2818 108.655 41.9291C93.0154 48.4898 88.2007 52.3041 90.6195 56.214C93.659 61.1293 101.541 62.1711 120.046 60.0978C148.452 56.9184 178.298 48.1854 178.298 43.0545Z" stroke="black" stroke-width="6" mask="url(#path-1-outside-1_531_1646)"/>
</svg>
