<svg width="287" height="351" viewBox="0 0 287 351" fill="none" xmlns="http://www.w3.org/2000/svg">
<mask id="path-1-outside-1_531_1642" maskUnits="userSpaceOnUse" x="0.881348" y="0.124023" width="286" height="351" fill="black">
<rect fill="white" x="0.881348" y="0.124023" width="286" height="351"/>
<path d="M66.9388 19.9013C86.6036 13.1893 134.511 5.53816 169.497 3.52405C173.322 3.3049 184.053 3.12402 193.343 3.12402C206.734 3.12402 209.791 3.56926 208.092 5.26855C206.588 6.77305 195.573 7.63055 171.203 8.14191C103.989 9.55074 65.4328 18.8108 27.2788 42.7087C17.6264 48.7545 14.3765 48.1092 22.883 41.8356C33.297 34.1548 50.9882 25.3471 66.9388 19.9013Z"/>
<path d="M205.18 57.9119C202.878 36.889 202.89 16.9028 205.204 12.5754C208.353 6.69133 208.831 8.8533 207.639 23.5626C206.999 31.4538 207.324 44.9559 208.362 53.5654C209.944 66.685 211.521 83.6675 212.721 100.525C212.857 102.438 212.186 104.395 211.229 104.873C210.177 105.4 208.997 99.5664 208.239 90.089C207.552 81.4795 206.174 66.9998 205.18 57.9119Z"/>
<path d="M235.702 66.8171C233.904 63.9073 248.79 52.494 265.403 44.0428C270.994 41.2008 276.685 39.0475 278.05 39.2615C281.067 39.7328 282.9 46.0725 283.677 58.726C284.533 72.6282 280.999 71.4037 279.608 57.3154C278.961 50.7686 278.034 45.0168 277.551 44.5316C275.452 42.434 263.126 48.5441 250.364 58.0076C242.781 63.6325 236.184 67.5963 235.702 66.8171Z"/>
<path d="M6.93421 113.57C6.02653 102.568 4.81972 85.3494 4.25111 75.3049C3.60078 63.7873 3.81646 58.0059 4.83369 59.6512C5.72225 61.0862 6.94808 69.6957 7.5619 78.7836C8.17398 87.8714 9.80155 110.569 11.1787 129.223C12.5576 147.877 14.5382 174.88 15.5815 189.229C16.3565 199.888 17.6583 217.785 18.8497 234.164L20.0209 250.266C21.4189 269.489 23.0777 298.252 23.7055 314.186L24.848 343.157H34.6968C44.3701 343.157 71.1694 338.186 80.1837 334.72C82.7067 333.751 94.8353 330.94 107.136 328.476C119.438 326.011 134.198 322.851 139.936 321.454C145.674 320.056 158.884 318.116 169.292 317.142C179.699 316.17 189.304 314.469 190.634 313.363C194.241 310.37 195.837 313.206 192.451 316.593C190.33 318.716 185.837 319.657 176.036 320.031C162.284 320.558 124.316 327.691 92.9868 335.635C69.8583 341.5 44.8518 346.163 32.5598 346.904L22.5579 347.505L21.6432 324.894C21.1407 312.458 19.9495 292.109 18.9966 279.673C18.0454 267.237 16.098 239.06 14.6704 217.058C12.229 179.399 10.9023 161.663 6.93421 113.57Z"/>
<path d="M207.04 145.312C215.444 135.756 234.104 106.164 245.633 84.111C251.166 73.5274 256.448 64.8691 257.37 64.8691C260.202 64.8691 259.373 67.0363 249.681 84.9493C234.081 113.785 215.131 143.023 207.39 150.203L200.073 156.989L190.507 153.328C185.247 151.314 179.792 150.109 178.384 150.65C176.977 151.191 171.769 157.643 166.814 164.99C156.391 180.44 146.518 191.838 143.556 191.838C142.424 191.838 134.48 187.692 125.903 182.621C109.982 173.21 97.5305 167.488 92.9764 167.488C89.6065 167.488 81.6547 183.533 72.0527 209.706C62.6889 235.228 57.2515 247.496 55.304 247.496C54.511 247.496 53.8625 247.221 53.8625 246.885C53.8625 245.212 58.0514 234.338 58.9869 233.581C59.5782 233.103 62.256 226.841 64.9373 219.667C67.6186 212.492 71.4284 202.317 73.402 197.056C75.3756 191.795 79.7419 182.143 83.1031 175.61C89.2117 163.74 89.2222 163.731 95.3325 164.879C101.146 165.969 113.032 171.742 133.527 183.43L142.765 188.699L149.74 181.143C153.574 176.988 161.1 167.128 166.461 159.231C171.823 151.337 176.786 144.877 177.49 144.877C178.196 144.877 182.423 146.442 186.885 148.356C198.078 153.154 200.461 152.796 207.04 145.312Z"/>
<path d="M209.329 207.358C207.4 191.321 206.856 180.773 207.847 178.659C209.031 176.129 209.536 177.642 209.92 184.881C210.198 190.142 211.933 206.97 213.775 222.276C215.618 237.582 217.621 259.888 218.23 271.846C218.837 283.803 219.704 294.921 220.157 296.551C220.977 299.518 213.829 304.986 202.97 309.7C195.807 312.808 197.198 311.02 205.922 305.906C210.177 303.412 214.213 300.473 214.893 299.374C217.058 295.869 214.112 247.136 209.329 207.358Z"/>
</mask>
<path d="M66.9388 19.9013C86.6036 13.1893 134.511 5.53816 169.497 3.52405C173.322 3.3049 184.053 3.12402 193.343 3.12402C206.734 3.12402 209.791 3.56926 208.092 5.26855C206.588 6.77305 195.573 7.63055 171.203 8.14191C103.989 9.55074 65.4328 18.8108 27.2788 42.7087C17.6264 48.7545 14.3765 48.1092 22.883 41.8356C33.297 34.1548 50.9882 25.3471 66.9388 19.9013Z" fill="black"/>
<path d="M205.18 57.9119C202.878 36.889 202.89 16.9028 205.204 12.5754C208.353 6.69133 208.831 8.8533 207.639 23.5626C206.999 31.4538 207.324 44.9559 208.362 53.5654C209.944 66.685 211.521 83.6675 212.721 100.525C212.857 102.438 212.186 104.395 211.229 104.873C210.177 105.4 208.997 99.5664 208.239 90.089C207.552 81.4795 206.174 66.9998 205.18 57.9119Z" fill="black"/>
<path d="M235.702 66.8171C233.904 63.9073 248.79 52.494 265.403 44.0428C270.994 41.2008 276.685 39.0475 278.05 39.2615C281.067 39.7328 282.9 46.0725 283.677 58.726C284.533 72.6282 280.999 71.4037 279.608 57.3154C278.961 50.7686 278.034 45.0168 277.551 44.5316C275.452 42.434 263.126 48.5441 250.364 58.0076C242.781 63.6325 236.184 67.5963 235.702 66.8171Z" fill="black"/>
<path d="M6.93421 113.57C6.02653 102.568 4.81972 85.3494 4.25111 75.3049C3.60078 63.7873 3.81646 58.0059 4.83369 59.6512C5.72225 61.0862 6.94808 69.6957 7.5619 78.7836C8.17398 87.8714 9.80155 110.569 11.1787 129.223C12.5576 147.877 14.5382 174.88 15.5815 189.229C16.3565 199.888 17.6583 217.785 18.8497 234.164L20.0209 250.266C21.4189 269.489 23.0777 298.252 23.7055 314.186L24.848 343.157H34.6968C44.3701 343.157 71.1694 338.186 80.1837 334.72C82.7067 333.751 94.8353 330.94 107.136 328.476C119.438 326.011 134.198 322.851 139.936 321.454C145.674 320.056 158.884 318.116 169.292 317.142C179.699 316.17 189.304 314.469 190.634 313.363C194.241 310.37 195.837 313.206 192.451 316.593C190.33 318.716 185.837 319.657 176.036 320.031C162.284 320.558 124.316 327.691 92.9868 335.635C69.8583 341.5 44.8518 346.163 32.5598 346.904L22.5579 347.505L21.6432 324.894C21.1407 312.458 19.9495 292.109 18.9966 279.673C18.0454 267.237 16.098 239.06 14.6704 217.058C12.229 179.399 10.9023 161.663 6.93421 113.57Z" fill="black"/>
<path d="M207.04 145.312C215.444 135.756 234.104 106.164 245.633 84.111C251.166 73.5274 256.448 64.8691 257.37 64.8691C260.202 64.8691 259.373 67.0363 249.681 84.9493C234.081 113.785 215.131 143.023 207.39 150.203L200.073 156.989L190.507 153.328C185.247 151.314 179.792 150.109 178.384 150.65C176.977 151.191 171.769 157.643 166.814 164.99C156.391 180.44 146.518 191.838 143.556 191.838C142.424 191.838 134.48 187.692 125.903 182.621C109.982 173.21 97.5305 167.488 92.9764 167.488C89.6065 167.488 81.6547 183.533 72.0527 209.706C62.6889 235.228 57.2515 247.496 55.304 247.496C54.511 247.496 53.8625 247.221 53.8625 246.885C53.8625 245.212 58.0514 234.338 58.9869 233.581C59.5782 233.103 62.256 226.841 64.9373 219.667C67.6186 212.492 71.4284 202.317 73.402 197.056C75.3756 191.795 79.7419 182.143 83.1031 175.61C89.2117 163.74 89.2222 163.731 95.3325 164.879C101.146 165.969 113.032 171.742 133.527 183.43L142.765 188.699L149.74 181.143C153.574 176.988 161.1 167.128 166.461 159.231C171.823 151.337 176.786 144.877 177.49 144.877C178.196 144.877 182.423 146.442 186.885 148.356C198.078 153.154 200.461 152.796 207.04 145.312Z" fill="black"/>
<path d="M209.329 207.358C207.4 191.321 206.856 180.773 207.847 178.659C209.031 176.129 209.536 177.642 209.92 184.881C210.198 190.142 211.933 206.97 213.775 222.276C215.618 237.582 217.621 259.888 218.23 271.846C218.837 283.803 219.704 294.921 220.157 296.551C220.977 299.518 213.829 304.986 202.97 309.7C195.807 312.808 197.198 311.02 205.922 305.906C210.177 303.412 214.213 300.473 214.893 299.374C217.058 295.869 214.112 247.136 209.329 207.358Z" fill="black"/>
<path d="M169.497 3.52405L169.325 0.528958L169.324 0.529007L169.497 3.52405ZM66.9388 19.9013L65.9697 17.0621L65.9695 17.0622L66.9388 19.9013ZM22.883 41.8356L24.6637 44.25L24.6637 44.2499L22.883 41.8356ZM27.2788 42.7087L28.8712 45.2512L28.8712 45.2512L27.2788 42.7087ZM171.203 8.14191L171.265 11.1412L171.265 11.1412L171.203 8.14191ZM208.092 5.26855L210.214 7.38961V7.38961L208.092 5.26855ZM205.204 12.5754L202.559 11.1598L202.559 11.1605L205.204 12.5754ZM205.18 57.9119L208.162 57.5855L208.162 57.5853L205.18 57.9119ZM208.239 90.089L205.248 90.3276L205.248 90.3282L208.239 90.089ZM211.229 104.873L209.887 102.19L209.886 102.191L211.229 104.873ZM212.721 100.525L215.714 100.313L215.714 100.312L212.721 100.525ZM208.362 53.5654L205.384 53.9246L205.384 53.9247L208.362 53.5654ZM207.639 23.5626L204.648 23.3201V23.3201L207.639 23.5626ZM265.403 44.0428L264.044 41.3685L264.043 41.3689L265.403 44.0428ZM235.702 66.8171L233.15 68.3941L233.15 68.3945L235.702 66.8171ZM250.364 58.0076L248.577 55.5979L248.577 55.5981L250.364 58.0076ZM277.551 44.5316L279.676 42.4143L279.672 42.4096L277.551 44.5316ZM279.608 57.3154L282.594 57.0206V57.0204L279.608 57.3154ZM283.677 58.726L280.683 58.9099L280.683 58.9102L283.677 58.726ZM278.05 39.2615L277.586 42.2253L277.587 42.2255L278.05 39.2615ZM4.25111 75.3049L1.25588 75.4741L1.2559 75.4745L4.25111 75.3049ZM6.93421 113.57L9.92406 113.323L9.92406 113.323L6.93421 113.57ZM14.6704 217.058L11.6766 217.252L11.6767 217.252L14.6704 217.058ZM18.9966 279.673L16.0053 279.902L16.0054 279.902L18.9966 279.673ZM21.6432 324.894L18.6456 325.016L18.6457 325.016L21.6432 324.894ZM22.5579 347.505L19.5603 347.627L19.684 350.684L22.7381 350.5L22.5579 347.505ZM32.5598 346.904L32.7399 349.898L32.7403 349.898L32.5598 346.904ZM92.9868 335.635L92.2495 332.727L92.2494 332.727L92.9868 335.635ZM176.036 320.031L175.922 317.034L175.922 317.034L176.036 320.031ZM192.451 316.593L190.33 314.472L190.329 314.473L192.451 316.593ZM190.634 313.363L188.718 311.054L188.716 311.056L190.634 313.363ZM169.292 317.142L169.012 314.155L169.012 314.156L169.292 317.142ZM139.936 321.454L140.646 324.369L140.646 324.369L139.936 321.454ZM107.136 328.476L106.547 325.534L106.547 325.534L107.136 328.476ZM80.1837 334.72L79.1083 331.919L79.1069 331.92L80.1837 334.72ZM24.848 343.157L21.8503 343.275L21.9639 346.157H24.848V343.157ZM23.7055 314.186L20.7078 314.304L20.7078 314.304L23.7055 314.186ZM20.0209 250.266L23.013 250.049L23.013 250.049L20.0209 250.266ZM18.8497 234.164L21.8418 233.947L18.8497 234.164ZM15.5815 189.229L12.5894 189.447L15.5815 189.229ZM11.1787 129.223L8.18686 129.444L8.18688 129.444L11.1787 129.223ZM7.5619 78.7836L10.5551 78.582L10.5551 78.5814L7.5619 78.7836ZM4.83369 59.6512L2.28197 61.2288L2.28311 61.2307L4.83369 59.6512ZM245.633 84.111L242.974 82.7211L242.974 82.7212L245.633 84.111ZM207.04 145.312L204.788 143.331L204.787 143.331L207.04 145.312ZM186.885 148.356L185.703 151.113L185.703 151.113L186.885 148.356ZM166.461 159.231L163.979 157.546L163.979 157.546L166.461 159.231ZM149.74 181.143L151.944 183.178L151.945 183.178L149.74 181.143ZM142.765 188.699L141.279 191.305L143.351 192.486L144.97 190.733L142.765 188.699ZM133.527 183.43L132.04 186.036L132.041 186.036L133.527 183.43ZM95.3325 164.879L94.7786 167.827L94.7794 167.827L95.3325 164.879ZM83.1031 175.61L80.4356 174.238L80.4355 174.238L83.1031 175.61ZM58.9869 233.581L60.8735 235.914L60.8738 235.913L58.9869 233.581ZM72.0527 209.706L74.8691 210.739L74.8691 210.739L72.0527 209.706ZM125.903 182.621L127.43 180.039L127.43 180.039L125.903 182.621ZM166.814 164.99L169.301 166.668L169.301 166.668L166.814 164.99ZM178.384 150.65L177.308 147.849L177.307 147.849L178.384 150.65ZM190.507 153.328L189.435 156.13L189.435 156.13L190.507 153.328ZM200.073 156.989L199 159.791L200.744 160.459L202.113 159.189L200.073 156.989ZM207.39 150.203L205.35 148.003L205.35 148.003L207.39 150.203ZM249.681 84.9493L247.042 83.5217L247.042 83.5219L249.681 84.9493ZM207.847 178.659L210.563 179.933L210.564 179.931L207.847 178.659ZM209.329 207.358L206.35 207.716V207.716L209.329 207.358ZM214.893 299.374L217.444 300.952L217.445 300.95L214.893 299.374ZM205.922 305.906L207.439 308.495H207.439L205.922 305.906ZM202.97 309.7L204.164 312.452L204.164 312.452L202.97 309.7ZM220.157 296.551L223.048 295.751L223.047 295.749L220.157 296.551ZM218.23 271.846L221.226 271.694L221.226 271.693L218.23 271.846ZM213.775 222.276L210.796 222.634L210.796 222.634L213.775 222.276ZM209.92 184.881L212.916 184.722L212.916 184.722L209.92 184.881ZM169.324 0.529007C134.225 2.54962 86.0079 10.2227 65.9697 17.0621L67.9079 22.7405C87.1992 16.156 134.796 8.52669 169.669 6.51909L169.324 0.529007ZM65.9695 17.0622C49.8112 22.5789 31.8252 31.5126 21.1023 39.4212L24.6637 44.2499C34.7688 36.797 52.1653 28.1152 67.9081 22.7404L65.9695 17.0622ZM21.1024 39.4212C18.9318 41.022 17.3257 42.3944 16.3641 43.4956C15.9653 43.9524 15.305 44.7659 15.0684 45.784C14.931 46.3755 14.8589 47.404 15.5163 48.4007C16.1651 49.3843 17.1205 49.722 17.6869 49.8345C18.6846 50.0326 19.6697 49.7882 20.2314 49.6269C20.9323 49.4256 21.7199 49.1185 22.56 48.7385C24.2499 47.9741 26.3857 46.808 28.8712 45.2512L25.6863 40.1663C23.3456 41.6324 21.4555 42.6528 20.0872 43.2717C19.3982 43.5834 18.8985 43.7672 18.575 43.8601C18.4138 43.9064 18.3436 43.9163 18.3469 43.9159C18.3511 43.9153 18.3945 43.9097 18.4692 43.9095C18.5406 43.9093 18.6768 43.9139 18.8557 43.9494C19.1832 44.0145 19.9705 44.2566 20.5249 45.097C21.0879 45.9505 20.9949 46.7882 20.9127 47.1418C20.8694 47.3285 20.814 47.4608 20.7824 47.529C20.7494 47.6001 20.7248 47.6389 20.7227 47.6422C20.7214 47.6441 20.7635 47.5796 20.8835 47.4421C21.4033 46.8468 22.581 45.786 24.6637 44.25L21.1024 39.4212ZM28.8712 45.2512C66.3932 21.7491 104.345 12.5439 171.265 11.1412L171.14 5.14257C103.633 6.55754 64.4724 15.8724 25.6863 40.1663L28.8712 45.2512ZM171.265 11.1412C183.459 10.8854 192.377 10.542 198.455 10.0686C201.485 9.83261 203.887 9.55879 205.665 9.23048C206.551 9.06696 207.359 8.87642 208.045 8.64174C208.643 8.43743 209.523 8.08037 210.214 7.38961L205.971 3.1475C206.285 2.83286 206.492 2.83171 206.105 2.96426C205.806 3.06644 205.315 3.19372 204.576 3.33015C203.105 3.60174 200.947 3.85635 197.989 4.08672C192.091 4.54607 183.316 4.88708 171.14 5.14257L171.265 11.1412ZM210.214 7.38961C210.537 7.06601 211.098 6.44652 211.367 5.55668C211.721 4.38729 211.457 3.12651 210.601 2.19112C209.949 1.47927 209.133 1.15562 208.64 0.993472C208.077 0.808073 207.448 0.683353 206.808 0.59029C204.324 0.228979 199.976 0.124023 193.343 0.124023V6.12402C200.101 6.12402 203.977 6.24169 205.945 6.52782C206.418 6.59661 206.666 6.66031 206.766 6.69303C206.936 6.749 206.569 6.67319 206.175 6.24204C205.575 5.58735 205.376 4.64015 205.624 3.82037C205.787 3.28013 206.072 3.04627 205.971 3.1475L210.214 7.38961ZM193.343 0.124023C184.052 0.124023 173.245 0.304388 169.325 0.528959L169.668 6.51914C173.399 6.3054 184.053 6.12402 193.343 6.12402V0.124023ZM202.559 11.1605C201.67 12.8216 201.204 15.4316 200.916 18.2199C200.611 21.1686 200.463 24.84 200.461 28.9812C200.456 37.2722 201.036 47.6352 202.198 58.2385L208.162 57.5853C207.021 47.1657 206.456 37.0241 206.461 28.9845C206.463 24.9603 206.608 21.5098 206.884 18.837C207.177 16.0039 207.581 14.4929 207.85 13.9902L202.559 11.1605ZM202.198 58.2383C203.189 67.2989 204.564 81.7492 205.248 90.3276L211.229 89.8504C210.54 81.2097 209.16 66.7007 208.162 57.5855L202.198 58.2383ZM205.248 90.3282C205.631 95.1166 206.127 99.08 206.683 101.828C206.954 103.164 207.273 104.395 207.674 105.316C207.856 105.732 208.185 106.404 208.765 106.954C209.078 107.252 209.595 107.637 210.326 107.814C211.124 108.007 211.914 107.886 212.573 107.555L209.886 102.191C210.413 101.926 211.07 101.821 211.735 101.982C212.333 102.126 212.716 102.432 212.895 102.602C213.206 102.897 213.264 103.125 213.175 102.92C213.036 102.6 212.815 101.878 212.564 100.638C212.077 98.231 211.604 94.5388 211.229 89.8498L205.248 90.3282ZM212.571 107.556C214.122 106.781 214.873 105.23 215.222 104.211C215.627 103.031 215.809 101.66 215.714 100.313L209.729 100.737C209.769 101.303 209.683 101.867 209.547 102.263C209.516 102.355 209.485 102.426 209.461 102.477C209.435 102.529 209.421 102.55 209.423 102.547C209.424 102.545 209.453 102.503 209.519 102.441C209.585 102.379 209.705 102.281 209.887 102.19L212.571 107.556ZM215.714 100.312C214.511 83.4182 212.93 66.3854 211.34 53.2062L205.384 53.9247C206.959 66.9845 208.532 83.9168 209.729 100.738L215.714 100.312ZM211.34 53.2063C210.324 44.7778 210.007 31.478 210.629 23.805L204.648 23.3201C203.991 31.4296 204.324 45.134 205.384 53.9246L211.34 53.2063ZM210.629 23.8051C210.928 20.1169 211.126 17.1666 211.203 14.9143C211.275 12.7714 211.254 10.942 210.979 9.69767C210.903 9.35824 210.784 8.93657 210.574 8.51384C210.373 8.11072 209.977 7.47853 209.233 7.02533C207.309 5.8535 205.604 7.06318 205.148 7.44645C204.568 7.93486 204.103 8.5776 203.754 9.10802C203.372 9.68974 202.973 10.3874 202.559 11.1598L207.849 13.991C208.223 13.2924 208.527 12.7704 208.769 12.4016C209.045 11.9815 209.124 11.9427 209.013 12.0362C208.955 12.0853 208.667 12.3233 208.169 12.4546C207.564 12.614 206.801 12.5691 206.112 12.1499C205.529 11.7946 205.276 11.3364 205.201 11.1855C205.116 11.015 205.105 10.9238 205.121 10.9953C205.209 11.3946 205.281 12.4959 205.206 14.7115C205.135 16.8177 204.946 19.6536 204.648 23.3201L210.629 23.8051ZM264.043 41.3689C255.595 45.6667 247.561 50.7281 241.823 55.1273C238.973 57.3129 236.58 59.4178 234.985 61.25C234.202 62.1499 233.479 63.1319 233.035 64.1403C232.629 65.0614 232.14 66.7604 233.15 68.3941L238.254 65.2402C238.814 66.1464 238.397 66.8522 238.526 66.5592C238.617 66.3534 238.892 65.9004 239.511 65.1891C240.721 63.7988 242.751 61.9765 245.474 59.8887C250.884 55.7409 258.599 50.8701 266.764 46.7167L264.043 41.3689ZM233.15 68.3945C233.795 69.4376 234.795 69.7747 235.384 69.8699C235.945 69.9607 236.429 69.8942 236.707 69.8426C237.285 69.7352 237.86 69.5144 238.326 69.3115C239.311 68.8834 240.549 68.2062 241.915 67.3855C244.679 65.7246 248.307 63.2685 252.151 60.4171L248.577 55.5981C244.838 58.3717 241.376 60.7099 238.825 62.2424C237.533 63.0183 236.558 63.5375 235.933 63.8092C235.595 63.9563 235.516 63.9613 235.612 63.9434C235.648 63.9367 235.934 63.8809 236.342 63.9469C236.777 64.0173 237.669 64.2941 238.254 65.2397L233.15 68.3945ZM252.151 60.4173C258.427 55.7636 264.546 51.9728 269.288 49.6221C271.677 48.4379 273.602 47.6772 274.962 47.3263C275.651 47.1486 276.051 47.1145 276.223 47.1191C276.451 47.1253 275.954 47.1772 275.43 46.6535L279.672 42.4096C278.623 41.3615 277.282 41.1455 276.385 41.1213C275.43 41.0956 274.424 41.2686 273.463 41.5166C271.522 42.0171 269.174 42.9822 266.624 44.2463C261.488 46.792 255.063 50.7881 248.577 55.5979L252.151 60.4173ZM275.426 46.6488C275.09 46.3122 274.947 45.9916 274.938 45.9725C274.902 45.8961 274.893 45.8641 274.908 45.9086C274.937 45.9945 274.991 46.1795 275.063 46.4923C275.206 47.106 275.375 47.9989 275.556 49.1272C275.918 51.3713 276.304 54.3837 276.623 57.6103L282.594 57.0204C282.266 53.7003 281.865 50.5635 281.48 48.1736C281.289 46.985 281.095 45.9397 280.908 45.1339C280.815 44.737 280.712 44.3418 280.595 43.9947C280.537 43.8228 280.459 43.611 280.355 43.3938C280.279 43.2339 280.072 42.8115 279.676 42.4143L275.426 46.6488ZM276.623 57.6102C276.98 61.2308 277.484 64.1285 278.057 66.2253C278.341 67.262 278.668 68.2041 279.054 68.9696C279.246 69.3512 279.495 69.7731 279.82 70.1598C280.12 70.5163 280.665 71.0613 281.503 71.3517C282.499 71.6971 283.565 71.5599 284.433 71.01C285.162 70.5475 285.57 69.9132 285.786 69.5041C286.22 68.6804 286.437 67.6852 286.567 66.7782C286.842 64.8631 286.89 62.0993 286.671 58.5417L280.683 58.9102C280.892 62.3037 280.819 64.6002 280.628 65.9252C280.526 66.6383 280.424 66.8081 280.479 66.7033C280.506 66.6537 280.708 66.2672 281.221 65.9422C281.502 65.764 281.868 65.6111 282.304 65.559C282.74 65.5068 283.14 65.5689 283.468 65.6826C284.068 65.8906 284.367 66.2439 284.414 66.3005C284.487 66.3873 284.478 66.401 284.411 66.2673C284.277 66.0023 284.075 65.4853 283.845 64.6433C283.391 62.9826 282.932 60.4441 282.594 57.0206L276.623 57.6102ZM286.671 58.542C286.279 52.155 285.612 47.1416 284.585 43.5923C284.074 41.8246 283.423 40.2333 282.54 38.9878C281.642 37.7192 280.328 36.5809 278.513 36.2974L277.587 42.2255C277.281 42.1777 277.327 42.0087 277.645 42.4568C277.979 42.9279 278.4 43.8008 278.821 45.2586C279.66 48.1603 280.298 52.6435 280.683 58.9099L286.671 58.542ZM278.515 36.2977C277.894 36.2003 277.299 36.2629 276.905 36.3212C276.459 36.3873 275.985 36.4939 275.513 36.6194C274.567 36.8712 273.449 37.2466 272.25 37.7001C269.843 38.6104 266.923 39.905 264.044 41.3685L266.763 46.7171C269.475 45.3385 272.195 44.1356 274.372 43.3122C275.466 42.8989 276.376 42.5985 277.055 42.4179C277.396 42.3272 277.635 42.2785 277.783 42.2566C277.983 42.227 277.865 42.2691 277.586 42.2253L278.515 36.2977ZM1.2559 75.4745C1.82609 85.5469 3.03476 102.792 3.94437 113.816L9.92406 113.323C9.0183 102.345 7.81334 85.1519 7.24631 75.1354L1.2559 75.4745ZM3.94437 113.816C7.91139 161.897 9.23669 179.614 11.6766 217.252L17.6641 216.864C15.2213 179.183 13.8932 161.429 9.92406 113.323L3.94437 113.816ZM11.6767 217.252C13.1045 239.259 15.0529 267.449 16.0053 279.902L21.9879 279.444C21.038 267.025 19.0914 238.861 17.6641 216.864L11.6767 217.252ZM16.0054 279.902C16.9555 292.302 18.1446 312.616 18.6456 325.016L24.6408 324.773C24.1368 312.301 22.9435 291.915 21.9878 279.444L16.0054 279.902ZM18.6457 325.016L19.5603 347.627L25.5554 347.384L24.6407 324.773L18.6457 325.016ZM22.7381 350.5L32.7399 349.898L32.3796 343.909L22.3777 344.511L22.7381 350.5ZM32.7403 349.898C45.3216 349.14 70.549 344.419 93.7242 338.543L92.2494 332.727C69.1675 338.58 44.3819 343.186 32.3793 343.909L32.7403 349.898ZM93.7241 338.543C125.048 330.601 162.745 323.543 176.151 323.029L175.922 317.034C161.823 317.574 123.584 324.782 92.2495 332.727L93.7241 338.543ZM176.151 323.029C181.09 322.841 184.869 322.505 187.738 321.904C190.587 321.308 192.911 320.377 194.574 318.713L190.329 314.473C189.87 314.932 188.887 315.534 186.508 316.032C184.151 316.526 180.783 316.848 175.922 317.034L176.151 323.029ZM194.573 318.714C195.632 317.654 196.442 316.503 196.899 315.325C197.315 314.253 197.628 312.623 196.779 311.114C195.758 309.298 193.842 308.929 192.416 309.171C191.084 309.396 189.827 310.134 188.718 311.054L192.55 315.671C193.245 315.095 193.54 315.066 193.416 315.087C193.331 315.101 193.029 315.135 192.624 314.982C192.18 314.814 191.79 314.484 191.55 314.056C191.33 313.665 191.312 313.335 191.316 313.203C191.32 313.07 191.347 313.049 191.306 313.152C191.224 313.365 190.963 313.838 190.33 314.472L194.573 318.714ZM188.716 311.056C188.962 310.852 189.073 310.857 188.706 310.995C188.426 311.1 188.008 311.232 187.436 311.383C186.297 311.684 184.736 312.014 182.844 312.349C179.069 313.017 174.149 313.676 169.012 314.155L169.571 320.129C174.841 319.637 179.927 318.959 183.89 318.257C185.866 317.907 187.606 317.544 188.968 317.184C189.646 317.005 190.277 316.814 190.818 316.611C191.271 316.441 191.974 316.15 192.552 315.67L188.716 311.056ZM169.012 314.156C158.552 315.134 145.174 317.09 139.226 318.539L140.646 324.369C146.175 323.022 159.216 321.098 169.571 320.129L169.012 314.156ZM139.227 318.539C133.552 319.92 118.843 323.071 106.547 325.534L107.725 331.417C120.034 328.951 134.844 325.781 140.646 324.369L139.227 318.539ZM106.547 325.534C100.37 326.772 94.2334 328.097 89.3161 329.236C84.5126 330.349 80.6102 331.342 79.1083 331.919L81.259 337.52C82.2803 337.128 85.7036 336.232 90.6704 335.081C95.5232 333.957 101.601 332.644 107.725 331.417L106.547 325.534ZM79.1069 331.92C74.8829 333.544 66.1724 335.613 57.1403 337.289C48.1084 338.964 39.2308 340.157 34.6968 340.157V346.157C39.8362 346.157 49.1948 344.865 58.2345 343.188C67.2739 341.511 76.4702 339.362 81.2604 337.52L79.1069 331.92ZM34.6968 340.157H24.848V346.157H34.6968V340.157ZM27.8456 343.039L26.7031 314.067L20.7078 314.304L21.8503 343.275L27.8456 343.039ZM26.7031 314.068C26.0739 298.095 24.4129 269.298 23.013 250.049L17.0288 250.484C18.4249 269.68 20.0816 298.409 20.7078 314.304L26.7031 314.068ZM23.013 250.049L21.8418 233.947L15.8576 234.382L17.0288 250.484L23.013 250.049ZM21.8418 233.947C20.6504 217.568 19.3486 199.67 18.5736 189.012L12.5894 189.447C13.3644 200.106 14.6662 218.003 15.8576 234.382L21.8418 233.947ZM18.5736 189.012C17.5302 174.661 15.5495 147.657 14.1706 129.002L8.18688 129.444C9.56573 148.097 11.5462 175.099 12.5894 189.447L18.5736 189.012ZM14.1706 129.002C12.7935 110.35 11.1665 87.6597 10.5551 78.582L4.56868 78.9852C5.18144 88.0831 6.8096 110.789 8.18686 129.444L14.1706 129.002ZM10.5551 78.5814C10.244 73.9751 9.77704 69.476 9.27081 65.9242C9.01826 64.1524 8.75087 62.5802 8.48043 61.3326C8.34563 60.7106 8.20223 60.1326 8.04901 59.633C7.91427 59.1936 7.70785 58.5944 7.38427 58.0718L2.28311 61.2307C2.18167 61.0668 2.20793 61.0505 2.3127 61.3922C2.39899 61.6735 2.50194 62.0746 2.6166 62.6035C2.8451 63.6577 3.08913 65.075 3.33084 66.7709C3.81312 70.1546 4.26603 74.5042 4.56872 78.9857L10.5551 78.5814ZM7.38541 58.0737C7.24038 57.8391 6.96276 57.431 6.51107 57.0745C6.03193 56.6963 5.06736 56.1721 3.82681 56.4533C2.69492 56.7098 2.08507 57.4787 1.84415 57.843C1.57961 58.2431 1.43699 58.6374 1.35829 58.8896C1.07021 59.8126 0.967905 61.1209 0.919141 62.4303C0.813865 65.2572 0.929758 69.6983 1.25588 75.4741L7.24634 75.1358C6.92213 69.3939 6.82069 65.1855 6.91498 62.6536C6.93831 62.0273 6.97251 61.5379 7.01274 61.1734C7.05662 60.7759 7.09537 60.6465 7.08584 60.6771C7.08369 60.684 7.02401 60.8877 6.84877 61.1527C6.69715 61.382 6.18295 62.0714 5.15305 62.3049C4.01447 62.5629 3.15821 62.0719 2.79367 61.7842C2.45658 61.5181 2.29984 61.2577 2.28197 61.2288L7.38541 58.0737ZM242.974 82.7212C231.472 104.723 212.946 134.054 204.788 143.331L209.293 147.293C217.942 137.458 236.736 107.605 248.291 85.5009L242.974 82.7212ZM204.787 143.331C201.447 147.13 199.857 148.23 198.245 148.473C197.405 148.6 196.305 148.527 194.629 148.065C192.938 147.598 190.848 146.79 188.067 145.598L185.703 151.113C188.519 152.32 190.924 153.267 193.033 153.849C195.157 154.435 197.163 154.705 199.141 154.406C203.163 153.799 206.054 150.978 209.293 147.293L204.787 143.331ZM188.068 145.598C185.799 144.625 183.579 143.736 181.821 143.085C180.945 142.761 180.158 142.486 179.523 142.288C179.208 142.19 178.9 142.1 178.621 142.032C178.422 141.984 177.971 141.877 177.49 141.877V147.877C177.186 147.877 177.021 147.818 177.206 147.863C177.311 147.889 177.483 147.937 177.734 148.015C178.23 148.17 178.91 148.406 179.738 148.712C181.385 149.322 183.51 150.172 185.703 151.113L188.068 145.598ZM177.49 141.877C176.511 141.877 175.812 142.347 175.683 142.43C175.417 142.602 175.191 142.793 175.028 142.939C174.692 143.241 174.334 143.621 173.982 144.016C173.264 144.824 172.36 145.943 171.343 147.266C169.3 149.925 166.684 153.563 163.979 157.546L168.942 160.917C171.6 157.005 174.146 153.466 176.101 150.921C177.084 149.643 177.888 148.653 178.466 148.003C178.762 147.67 178.949 147.483 179.04 147.401C179.091 147.355 179.049 147.399 178.935 147.473C178.877 147.51 178.746 147.591 178.556 147.669C178.388 147.738 178.007 147.877 177.49 147.877V141.877ZM163.979 157.546C158.653 165.391 151.223 175.112 147.535 179.109L151.945 183.178C155.925 178.864 163.546 168.865 168.943 160.916L163.979 157.546ZM147.535 179.108L140.561 186.664L144.97 190.733L151.944 183.178L147.535 179.108ZM144.251 186.093L135.013 180.824L132.041 186.036L141.279 191.305L144.251 186.093ZM135.013 180.824C124.743 174.968 116.582 170.565 110.235 167.482C103.963 164.436 99.2224 162.556 95.8857 161.93L94.7794 167.827C97.2556 168.292 101.365 169.844 107.613 172.879C113.786 175.877 121.816 180.205 132.04 186.036L135.013 180.824ZM95.8864 161.93C94.4792 161.666 92.972 161.368 91.6249 161.403C90.0233 161.445 88.5707 161.939 87.2385 163.108C86.0788 164.125 85.1107 165.575 84.1348 167.262C83.1336 168.993 81.9483 171.298 80.4356 174.238L85.7706 176.983C87.3122 173.987 88.4189 171.839 89.3287 170.266C90.2637 168.649 90.8255 167.943 91.1958 167.618C91.3936 167.444 91.4711 167.409 91.7809 167.401C92.3452 167.386 93.1306 167.518 94.7786 167.827L95.8864 161.93ZM80.4355 174.238C77.0363 180.844 72.6179 190.605 70.5932 196.002L76.2109 198.11C78.1334 192.984 82.4475 183.442 85.7707 176.983L80.4355 174.238ZM70.5932 196.002C68.6191 201.265 64.8089 211.441 62.1272 218.617L67.7475 220.717C70.4284 213.543 74.2378 203.37 76.2109 198.11L70.5932 196.002ZM62.1272 218.617C60.799 222.17 59.4765 225.485 58.42 227.955C57.8899 229.195 57.4391 230.193 57.0959 230.893C56.9222 231.246 56.7949 231.485 56.7125 231.626C56.6705 231.698 56.6607 231.709 56.6801 231.682C56.6905 231.667 56.7229 231.623 56.7759 231.561C56.8217 231.508 56.931 231.386 57.1001 231.249L60.8738 235.913C61.2372 235.62 61.473 235.295 61.5634 235.168C61.6882 234.993 61.7993 234.813 61.8923 234.654C62.08 234.333 62.2798 233.948 62.4823 233.536C62.8912 232.702 63.3883 231.597 63.9367 230.315C65.0373 227.741 66.3943 224.338 67.7475 220.717L62.1272 218.617ZM57.1004 231.249C56.6758 231.592 56.3995 231.994 56.2885 232.159C56.1349 232.386 55.9923 232.631 55.8663 232.862C55.6119 233.327 55.3371 233.895 55.0611 234.501C54.5046 235.724 53.87 237.265 53.2744 238.811C52.6783 240.359 52.105 241.954 51.6757 243.288C51.4619 243.953 51.2741 244.584 51.1363 245.127C51.0238 245.571 50.8625 246.257 50.8625 246.885H56.8625C56.8625 247.095 56.8321 247.075 56.9523 246.601C57.0473 246.227 57.194 245.727 57.3876 245.125C57.7729 243.927 58.3053 242.443 58.8734 240.968C59.442 239.492 60.0301 238.068 60.5221 236.986C60.7703 236.441 60.9763 236.022 61.13 235.741C61.2081 235.599 61.2515 235.531 61.262 235.515C61.3151 235.436 61.1811 235.665 60.8735 235.914L57.1004 231.249ZM50.8625 246.885C50.8625 248.005 51.4151 248.805 51.8582 249.247C52.2913 249.678 52.7667 249.931 53.1158 250.079C53.8264 250.38 54.6014 250.496 55.304 250.496V244.496C55.2136 244.496 55.2679 244.474 55.456 244.554C55.5439 244.591 55.8076 244.712 56.0943 244.998C56.391 245.293 56.8625 245.934 56.8625 246.885H50.8625ZM55.304 250.496C56.2077 250.496 56.9097 250.148 57.3352 249.873C57.7751 249.59 58.1329 249.248 58.4097 248.946C58.9625 248.344 59.4919 247.567 59.9978 246.724C61.0246 245.014 62.2389 242.548 63.6399 239.387C66.4546 233.037 70.1823 223.514 74.8691 210.739L69.2363 208.673C64.5593 221.42 60.8864 230.792 58.1546 236.956C56.7823 240.052 55.6869 242.248 54.8538 243.636C54.4297 244.342 54.1416 244.723 53.9878 244.891C53.9112 244.974 53.9433 244.921 54.0851 244.83C54.2124 244.748 54.6436 244.496 55.304 244.496V250.496ZM74.8691 210.739C79.6529 197.7 83.9987 187.259 87.5396 180.114C89.3173 176.527 90.844 173.87 92.0752 172.15C92.6963 171.282 93.1676 170.759 93.4815 170.484C93.8857 170.13 93.6749 170.488 92.9764 170.488V164.488C91.4355 164.488 90.2391 165.347 89.5259 165.973C88.7224 166.677 87.9445 167.612 87.1962 168.658C85.6886 170.764 83.9954 173.754 82.1636 177.45C78.4855 184.871 74.0545 195.539 69.2362 208.673L74.8691 210.739ZM92.9764 170.488C93.6144 170.488 94.8699 170.715 96.8575 171.376C98.7743 172.013 101.148 172.975 103.925 174.251C109.474 176.802 116.472 180.531 124.377 185.204L127.43 180.039C119.414 175.3 112.226 171.463 106.43 168.8C103.535 167.469 100.946 166.412 98.7498 165.682C96.6243 164.976 94.6155 164.488 92.9764 164.488V170.488ZM124.377 185.204C128.7 187.76 132.877 190.091 136.133 191.79C137.757 192.638 139.181 193.344 140.294 193.846C140.846 194.095 141.362 194.312 141.808 194.472C142.103 194.579 142.819 194.838 143.556 194.838V188.838C144.011 188.838 144.231 188.968 143.841 188.827C143.603 188.742 143.245 188.595 142.759 188.376C141.796 187.942 140.486 187.294 138.91 186.472C135.766 184.83 131.683 182.553 127.43 180.039L124.377 185.204ZM143.556 194.838C144.76 194.838 145.817 194.31 146.514 193.895C147.3 193.427 148.119 192.796 148.943 192.079C150.599 190.637 152.541 188.612 154.654 186.172C158.896 181.276 164.043 174.461 169.301 166.668L164.327 163.312C159.161 170.969 154.16 177.579 150.119 182.244C148.092 184.584 146.358 186.374 145.004 187.553C144.323 188.146 143.804 188.526 143.443 188.741C142.992 189.01 143.093 188.838 143.556 188.838V194.838ZM169.301 166.668C171.739 163.053 174.229 159.674 176.264 157.152C177.285 155.886 178.163 154.872 178.844 154.162C179.187 153.805 179.446 153.561 179.624 153.41C179.87 153.202 179.784 153.326 179.461 153.45L177.307 147.849C176.633 148.109 176.076 148.553 175.749 148.829C175.353 149.164 174.936 149.57 174.515 150.008C173.669 150.89 172.671 152.05 171.595 153.384C169.435 156.06 166.844 159.581 164.326 163.313L169.301 166.668ZM179.46 153.45C179.111 153.584 179.098 153.478 179.874 153.546C180.491 153.599 181.331 153.734 182.354 153.96C184.391 154.41 186.927 155.17 189.435 156.13L191.58 150.527C188.827 149.473 186.006 148.622 183.649 148.101C182.474 147.842 181.358 147.651 180.391 147.568C179.584 147.498 178.362 147.445 177.308 147.849L179.46 153.45ZM189.435 156.13L199 159.791L201.145 154.188L191.58 150.526L189.435 156.13ZM202.113 159.189L209.43 152.402L205.35 148.003L198.033 154.79L202.113 159.189ZM209.43 152.402C213.62 148.516 220.485 139.087 228.106 127.329C235.806 115.448 244.484 100.862 252.319 86.3768L247.042 83.5219C239.279 97.873 230.681 112.323 223.071 124.065C215.382 135.93 208.901 144.71 205.35 148.003L209.43 152.402ZM252.319 86.377C257.118 77.5083 259.871 72.2753 261.024 69.2646C261.321 68.4892 261.561 67.7393 261.689 67.0382C261.809 66.38 261.892 65.4505 261.558 64.4963C261.16 63.3603 260.324 62.6059 259.39 62.2222C258.612 61.9027 257.843 61.8691 257.37 61.8691V67.8691C257.605 67.8691 257.43 67.9033 257.111 67.7723C256.635 67.5771 256.124 67.132 255.895 66.479C255.73 66.0079 255.827 65.7353 255.786 65.9607C255.753 66.1434 255.656 66.504 255.421 67.1191C254.444 69.6702 251.936 74.4773 247.042 83.5217L252.319 86.377ZM257.37 61.8691C256.301 61.8691 255.56 62.4138 255.381 62.5435C255.08 62.7631 254.83 63.0086 254.648 63.2005C254.274 63.5957 253.883 64.095 253.5 64.6217C252.718 65.6955 251.75 67.1883 250.669 68.9589C248.499 72.5167 245.763 77.3872 242.974 82.7211L248.291 85.5009C251.036 80.2512 253.707 75.5008 255.792 72.0835C256.839 70.3666 257.71 69.0334 258.351 68.153C258.678 67.7027 258.894 67.4428 259.008 67.3232C259.069 67.2577 259.033 67.3068 258.913 67.3944C258.85 67.4399 258.709 67.537 258.5 67.6309C258.305 67.7183 257.907 67.8691 257.37 67.8691V61.8691ZM205.131 177.385C204.819 178.052 204.668 178.795 204.579 179.408C204.482 180.073 204.423 180.836 204.391 181.666C204.328 183.329 204.368 185.447 204.497 187.942C204.755 192.943 205.382 199.664 206.35 207.716L212.307 207C211.347 199.015 210.737 192.443 210.489 187.633C210.365 185.222 210.334 183.304 210.387 181.893C210.414 181.187 210.46 180.654 210.516 180.275C210.579 179.844 210.628 179.795 210.563 179.933L205.131 177.385ZM206.35 207.716C208.734 227.543 210.662 249.612 211.722 267.149C212.252 275.922 212.564 283.527 212.61 289.136C212.633 291.947 212.588 294.208 212.479 295.844C212.423 296.666 212.355 297.275 212.283 297.691C212.19 298.234 212.144 298.116 212.341 297.797L217.445 300.95C217.913 300.194 218.097 299.284 218.196 298.708C218.317 298.006 218.403 297.17 218.465 296.246C218.59 294.391 218.633 291.959 218.61 289.087C218.562 283.33 218.244 275.608 217.711 266.787C216.644 249.137 214.706 226.95 212.307 207L206.35 207.716ZM212.342 297.796C212.437 297.642 212.379 297.771 211.836 298.242C211.382 298.636 210.754 299.13 209.982 299.692C208.444 300.812 206.455 302.117 204.405 303.318L207.439 308.495C209.645 307.202 211.801 305.79 213.514 304.542C214.369 303.92 215.143 303.317 215.769 302.773C216.308 302.305 217.01 301.655 217.444 300.952L212.342 297.796ZM204.405 303.318C202.196 304.613 200.415 305.719 199.098 306.605C198.442 307.047 197.873 307.453 197.412 307.815C197.009 308.131 196.498 308.56 196.121 309.044C195.994 309.207 195.489 309.85 195.394 310.799C195.335 311.383 195.429 312.143 195.911 312.853C196.371 313.531 196.982 313.866 197.407 314.024C198.143 314.299 198.814 314.234 199.034 314.211C199.358 314.178 199.667 314.11 199.927 314.044C200.92 313.79 202.368 313.231 204.164 312.452L201.775 306.948C199.99 307.723 198.926 308.106 198.439 308.231C198.328 308.26 198.332 308.252 198.413 308.243C198.456 308.239 198.565 308.229 198.718 308.237C198.856 308.244 199.149 308.27 199.506 308.403C199.873 308.541 200.443 308.846 200.877 309.485C201.332 310.157 201.417 310.871 201.363 311.4C201.315 311.88 201.157 312.224 201.075 312.384C200.983 312.56 200.896 312.678 200.856 312.729C200.751 312.864 200.759 312.815 201.119 312.532C201.422 312.295 201.86 311.979 202.448 311.582C203.623 310.792 205.287 309.756 207.439 308.495L204.405 303.318ZM204.164 312.452C209.732 310.035 214.468 307.376 217.766 304.853C219.401 303.602 220.811 302.288 221.777 300.95C222.669 299.714 223.624 297.833 223.048 295.751L217.265 297.351C217.1 296.752 217.469 296.667 216.912 297.438C216.429 298.108 215.527 299.012 214.12 300.088C211.334 302.219 207.067 304.651 201.775 306.948L204.164 312.452ZM223.047 295.749C223.049 295.754 223.008 295.576 222.939 295.093C222.878 294.657 222.809 294.08 222.733 293.369C222.583 291.949 222.416 290.063 222.242 287.838C221.895 283.392 221.528 277.65 221.226 271.694L215.234 271.998C215.538 277.999 215.909 283.795 216.26 288.305C216.436 290.557 216.608 292.504 216.767 294.001C216.912 295.377 217.072 296.655 217.266 297.353L223.047 295.749ZM221.226 271.693C220.613 259.651 218.603 237.273 216.753 221.917L210.796 222.634C212.634 237.89 214.629 260.126 215.234 271.998L221.226 271.693ZM216.753 221.917C214.91 206.597 213.188 189.867 212.916 184.722L206.924 185.039C207.208 190.417 208.957 207.343 210.796 222.634L216.753 221.917ZM212.916 184.722C212.819 182.892 212.712 181.379 212.583 180.18C212.462 179.046 212.302 177.975 212.03 177.158C211.913 176.807 211.644 176.075 211.023 175.466C210.667 175.116 210.115 174.73 209.357 174.58C208.582 174.426 207.887 174.58 207.365 174.819C206.482 175.225 205.98 175.923 205.785 176.208C205.526 176.586 205.31 177.004 205.13 177.388L210.564 179.931C210.681 179.682 210.739 179.593 210.736 179.598C210.732 179.604 210.68 179.681 210.573 179.788C210.476 179.886 210.245 180.099 209.868 180.272C209.456 180.461 208.867 180.599 208.193 180.466C207.538 180.336 207.083 180.005 206.821 179.748C206.388 179.324 206.293 178.922 206.337 179.055C206.387 179.205 206.499 179.711 206.617 180.818C206.729 181.86 206.829 183.25 206.924 185.04L212.916 184.722Z" fill="black" mask="url(#path-1-outside-1_531_1642)"/>
</svg>
